<?xml version="1.0" encoding="utf-8" standalone="no"?>
<!DOCTYPE svg PUBLIC "-//W3C//DTD SVG 1.1//EN"
  "http://www.w3.org/Graphics/SVG/1.1/DTD/svg11.dtd">
<!-- Created with matplotlib (https://matplotlib.org/) -->
<svg height="345.6pt" version="1.1" viewBox="0 0 460.8 345.6" width="460.8pt" xmlns="http://www.w3.org/2000/svg" xmlns:xlink="http://www.w3.org/1999/xlink">
 <defs>
  <style type="text/css">
*{stroke-linecap:butt;stroke-linejoin:round;}
  </style>
 </defs>
 <g id="figure_1">
  <g id="patch_1">
   <path d="M 0 345.6 
L 460.8 345.6 
L 460.8 0 
L 0 0 
z
" style="fill:#ffffff;"/>
  </g>
  <g id="axes_1">
   <g id="patch_2">
    <path d="M 57.6 307.584 
L 414.72 307.584 
L 414.72 41.472 
L 57.6 41.472 
z
" style="fill:#ffffff;"/>
   </g>
   <g id="matplotlib.axis_1">
    <g id="xtick_1">
     <g id="line2d_1">
      <path clip-path="url(#p7d069ba4ee)" d="M 73.182117 307.584 
L 73.182117 41.472 
" style="fill:none;stroke:#b0b0b0;stroke-linecap:square;stroke-width:0.8;"/>
     </g>
     <g id="line2d_2">
      <defs>
       <path d="M 0 0 
L 0 3.5 
" id="m41914353f6" style="stroke:#000000;stroke-width:0.8;"/>
      </defs>
      <g>
       <use style="stroke:#000000;stroke-width:0.8;" x="73.182117" xlink:href="#m41914353f6" y="307.584"/>
      </g>
     </g>
     <g id="text_1">
      <!-- 0 -->
      <defs>
       <path d="M 31.78125 66.40625 
Q 24.171875 66.40625 20.328125 58.90625 
Q 16.5 51.421875 16.5 36.375 
Q 16.5 21.390625 20.328125 13.890625 
Q 24.171875 6.390625 31.78125 6.390625 
Q 39.453125 6.390625 43.28125 13.890625 
Q 47.125 21.390625 47.125 36.375 
Q 47.125 51.421875 43.28125 58.90625 
Q 39.453125 66.40625 31.78125 66.40625 
z
M 31.78125 74.21875 
Q 44.046875 74.21875 50.515625 64.515625 
Q 56.984375 54.828125 56.984375 36.375 
Q 56.984375 17.96875 50.515625 8.265625 
Q 44.046875 -1.421875 31.78125 -1.421875 
Q 19.53125 -1.421875 13.0625 8.265625 
Q 6.59375 17.96875 6.59375 36.375 
Q 6.59375 54.828125 13.0625 64.515625 
Q 19.53125 74.21875 31.78125 74.21875 
z
" id="DejaVuSans-48"/>
      </defs>
      <g transform="translate(70.000867 322.182437)scale(0.1 -0.1)">
       <use xlink:href="#DejaVuSans-48"/>
      </g>
     </g>
    </g>
    <g id="xtick_2">
     <g id="line2d_3">
      <path clip-path="url(#p7d069ba4ee)" d="M 138.243148 307.584 
L 138.243148 41.472 
" style="fill:none;stroke:#b0b0b0;stroke-linecap:square;stroke-width:0.8;"/>
     </g>
     <g id="line2d_4">
      <g>
       <use style="stroke:#000000;stroke-width:0.8;" x="138.243148" xlink:href="#m41914353f6" y="307.584"/>
      </g>
     </g>
     <g id="text_2">
      <!-- 100 -->
      <defs>
       <path d="M 12.40625 8.296875 
L 28.515625 8.296875 
L 28.515625 63.921875 
L 10.984375 60.40625 
L 10.984375 69.390625 
L 28.421875 72.90625 
L 38.28125 72.90625 
L 38.28125 8.296875 
L 54.390625 8.296875 
L 54.390625 0 
L 12.40625 0 
z
" id="DejaVuSans-49"/>
      </defs>
      <g transform="translate(128.699398 322.182437)scale(0.1 -0.1)">
       <use xlink:href="#DejaVuSans-49"/>
       <use x="63.623047" xlink:href="#DejaVuSans-48"/>
       <use x="127.246094" xlink:href="#DejaVuSans-48"/>
      </g>
     </g>
    </g>
    <g id="xtick_3">
     <g id="line2d_5">
      <path clip-path="url(#p7d069ba4ee)" d="M 203.304179 307.584 
L 203.304179 41.472 
" style="fill:none;stroke:#b0b0b0;stroke-linecap:square;stroke-width:0.8;"/>
     </g>
     <g id="line2d_6">
      <g>
       <use style="stroke:#000000;stroke-width:0.8;" x="203.304179" xlink:href="#m41914353f6" y="307.584"/>
      </g>
     </g>
     <g id="text_3">
      <!-- 200 -->
      <defs>
       <path d="M 19.1875 8.296875 
L 53.609375 8.296875 
L 53.609375 0 
L 7.328125 0 
L 7.328125 8.296875 
Q 12.9375 14.109375 22.625 23.890625 
Q 32.328125 33.6875 34.8125 36.53125 
Q 39.546875 41.84375 41.421875 45.53125 
Q 43.3125 49.21875 43.3125 52.78125 
Q 43.3125 58.59375 39.234375 62.25 
Q 35.15625 65.921875 28.609375 65.921875 
Q 23.96875 65.921875 18.8125 64.3125 
Q 13.671875 62.703125 7.8125 59.421875 
L 7.8125 69.390625 
Q 13.765625 71.78125 18.9375 73 
Q 24.125 74.21875 28.421875 74.21875 
Q 39.75 74.21875 46.484375 68.546875 
Q 53.21875 62.890625 53.21875 53.421875 
Q 53.21875 48.921875 51.53125 44.890625 
Q 49.859375 40.875 45.40625 35.40625 
Q 44.1875 33.984375 37.640625 27.21875 
Q 31.109375 20.453125 19.1875 8.296875 
z
" id="DejaVuSans-50"/>
      </defs>
      <g transform="translate(193.760429 322.182437)scale(0.1 -0.1)">
       <use xlink:href="#DejaVuSans-50"/>
       <use x="63.623047" xlink:href="#DejaVuSans-48"/>
       <use x="127.246094" xlink:href="#DejaVuSans-48"/>
      </g>
     </g>
    </g>
    <g id="xtick_4">
     <g id="line2d_7">
      <path clip-path="url(#p7d069ba4ee)" d="M 268.36521 307.584 
L 268.36521 41.472 
" style="fill:none;stroke:#b0b0b0;stroke-linecap:square;stroke-width:0.8;"/>
     </g>
     <g id="line2d_8">
      <g>
       <use style="stroke:#000000;stroke-width:0.8;" x="268.36521" xlink:href="#m41914353f6" y="307.584"/>
      </g>
     </g>
     <g id="text_4">
      <!-- 300 -->
      <defs>
       <path d="M 40.578125 39.3125 
Q 47.65625 37.796875 51.625 33 
Q 55.609375 28.21875 55.609375 21.1875 
Q 55.609375 10.40625 48.1875 4.484375 
Q 40.765625 -1.421875 27.09375 -1.421875 
Q 22.515625 -1.421875 17.65625 -0.515625 
Q 12.796875 0.390625 7.625 2.203125 
L 7.625 11.71875 
Q 11.71875 9.328125 16.59375 8.109375 
Q 21.484375 6.890625 26.8125 6.890625 
Q 36.078125 6.890625 40.9375 10.546875 
Q 45.796875 14.203125 45.796875 21.1875 
Q 45.796875 27.640625 41.28125 31.265625 
Q 36.765625 34.90625 28.71875 34.90625 
L 20.21875 34.90625 
L 20.21875 43.015625 
L 29.109375 43.015625 
Q 36.375 43.015625 40.234375 45.921875 
Q 44.09375 48.828125 44.09375 54.296875 
Q 44.09375 59.90625 40.109375 62.90625 
Q 36.140625 65.921875 28.71875 65.921875 
Q 24.65625 65.921875 20.015625 65.03125 
Q 15.375 64.15625 9.8125 62.3125 
L 9.8125 71.09375 
Q 15.4375 72.65625 20.34375 73.4375 
Q 25.25 74.21875 29.59375 74.21875 
Q 40.828125 74.21875 47.359375 69.109375 
Q 53.90625 64.015625 53.90625 55.328125 
Q 53.90625 49.265625 50.4375 45.09375 
Q 46.96875 40.921875 40.578125 39.3125 
z
" id="DejaVuSans-51"/>
      </defs>
      <g transform="translate(258.82146 322.182437)scale(0.1 -0.1)">
       <use xlink:href="#DejaVuSans-51"/>
       <use x="63.623047" xlink:href="#DejaVuSans-48"/>
       <use x="127.246094" xlink:href="#DejaVuSans-48"/>
      </g>
     </g>
    </g>
    <g id="xtick_5">
     <g id="line2d_9">
      <path clip-path="url(#p7d069ba4ee)" d="M 333.426242 307.584 
L 333.426242 41.472 
" style="fill:none;stroke:#b0b0b0;stroke-linecap:square;stroke-width:0.8;"/>
     </g>
     <g id="line2d_10">
      <g>
       <use style="stroke:#000000;stroke-width:0.8;" x="333.426242" xlink:href="#m41914353f6" y="307.584"/>
      </g>
     </g>
     <g id="text_5">
      <!-- 400 -->
      <defs>
       <path d="M 37.796875 64.3125 
L 12.890625 25.390625 
L 37.796875 25.390625 
z
M 35.203125 72.90625 
L 47.609375 72.90625 
L 47.609375 25.390625 
L 58.015625 25.390625 
L 58.015625 17.1875 
L 47.609375 17.1875 
L 47.609375 0 
L 37.796875 0 
L 37.796875 17.1875 
L 4.890625 17.1875 
L 4.890625 26.703125 
z
" id="DejaVuSans-52"/>
      </defs>
      <g transform="translate(323.882492 322.182437)scale(0.1 -0.1)">
       <use xlink:href="#DejaVuSans-52"/>
       <use x="63.623047" xlink:href="#DejaVuSans-48"/>
       <use x="127.246094" xlink:href="#DejaVuSans-48"/>
      </g>
     </g>
    </g>
    <g id="xtick_6">
     <g id="line2d_11">
      <path clip-path="url(#p7d069ba4ee)" d="M 398.487273 307.584 
L 398.487273 41.472 
" style="fill:none;stroke:#b0b0b0;stroke-linecap:square;stroke-width:0.8;"/>
     </g>
     <g id="line2d_12">
      <g>
       <use style="stroke:#000000;stroke-width:0.8;" x="398.487273" xlink:href="#m41914353f6" y="307.584"/>
      </g>
     </g>
     <g id="text_6">
      <!-- 500 -->
      <defs>
       <path d="M 10.796875 72.90625 
L 49.515625 72.90625 
L 49.515625 64.59375 
L 19.828125 64.59375 
L 19.828125 46.734375 
Q 21.96875 47.46875 24.109375 47.828125 
Q 26.265625 48.1875 28.421875 48.1875 
Q 40.625 48.1875 47.75 41.5 
Q 54.890625 34.8125 54.890625 23.390625 
Q 54.890625 11.625 47.5625 5.09375 
Q 40.234375 -1.421875 26.90625 -1.421875 
Q 22.3125 -1.421875 17.546875 -0.640625 
Q 12.796875 0.140625 7.71875 1.703125 
L 7.71875 11.625 
Q 12.109375 9.234375 16.796875 8.0625 
Q 21.484375 6.890625 26.703125 6.890625 
Q 35.15625 6.890625 40.078125 11.328125 
Q 45.015625 15.765625 45.015625 23.390625 
Q 45.015625 31 40.078125 35.4375 
Q 35.15625 39.890625 26.703125 39.890625 
Q 22.75 39.890625 18.8125 39.015625 
Q 14.890625 38.140625 10.796875 36.28125 
z
" id="DejaVuSans-53"/>
      </defs>
      <g transform="translate(388.943523 322.182437)scale(0.1 -0.1)">
       <use xlink:href="#DejaVuSans-53"/>
       <use x="63.623047" xlink:href="#DejaVuSans-48"/>
       <use x="127.246094" xlink:href="#DejaVuSans-48"/>
      </g>
     </g>
    </g>
    <g id="text_7">
     <!-- Epoch -->
     <defs>
      <path d="M 9.8125 72.90625 
L 55.90625 72.90625 
L 55.90625 64.59375 
L 19.671875 64.59375 
L 19.671875 43.015625 
L 54.390625 43.015625 
L 54.390625 34.71875 
L 19.671875 34.71875 
L 19.671875 8.296875 
L 56.78125 8.296875 
L 56.78125 0 
L 9.8125 0 
z
" id="DejaVuSans-69"/>
      <path d="M 18.109375 8.203125 
L 18.109375 -20.796875 
L 9.078125 -20.796875 
L 9.078125 54.6875 
L 18.109375 54.6875 
L 18.109375 46.390625 
Q 20.953125 51.265625 25.265625 53.625 
Q 29.59375 56 35.59375 56 
Q 45.5625 56 51.78125 48.09375 
Q 58.015625 40.1875 58.015625 27.296875 
Q 58.015625 14.40625 51.78125 6.484375 
Q 45.5625 -1.421875 35.59375 -1.421875 
Q 29.59375 -1.421875 25.265625 0.953125 
Q 20.953125 3.328125 18.109375 8.203125 
z
M 48.6875 27.296875 
Q 48.6875 37.203125 44.609375 42.84375 
Q 40.53125 48.484375 33.40625 48.484375 
Q 26.265625 48.484375 22.1875 42.84375 
Q 18.109375 37.203125 18.109375 27.296875 
Q 18.109375 17.390625 22.1875 11.75 
Q 26.265625 6.109375 33.40625 6.109375 
Q 40.53125 6.109375 44.609375 11.75 
Q 48.6875 17.390625 48.6875 27.296875 
z
" id="DejaVuSans-112"/>
      <path d="M 30.609375 48.390625 
Q 23.390625 48.390625 19.1875 42.75 
Q 14.984375 37.109375 14.984375 27.296875 
Q 14.984375 17.484375 19.15625 11.84375 
Q 23.34375 6.203125 30.609375 6.203125 
Q 37.796875 6.203125 41.984375 11.859375 
Q 46.1875 17.53125 46.1875 27.296875 
Q 46.1875 37.015625 41.984375 42.703125 
Q 37.796875 48.390625 30.609375 48.390625 
z
M 30.609375 56 
Q 42.328125 56 49.015625 48.375 
Q 55.71875 40.765625 55.71875 27.296875 
Q 55.71875 13.875 49.015625 6.21875 
Q 42.328125 -1.421875 30.609375 -1.421875 
Q 18.84375 -1.421875 12.171875 6.21875 
Q 5.515625 13.875 5.515625 27.296875 
Q 5.515625 40.765625 12.171875 48.375 
Q 18.84375 56 30.609375 56 
z
" id="DejaVuSans-111"/>
      <path d="M 48.78125 52.59375 
L 48.78125 44.1875 
Q 44.96875 46.296875 41.140625 47.34375 
Q 37.3125 48.390625 33.40625 48.390625 
Q 24.65625 48.390625 19.8125 42.84375 
Q 14.984375 37.3125 14.984375 27.296875 
Q 14.984375 17.28125 19.8125 11.734375 
Q 24.65625 6.203125 33.40625 6.203125 
Q 37.3125 6.203125 41.140625 7.25 
Q 44.96875 8.296875 48.78125 10.40625 
L 48.78125 2.09375 
Q 45.015625 0.34375 40.984375 -0.53125 
Q 36.96875 -1.421875 32.421875 -1.421875 
Q 20.0625 -1.421875 12.78125 6.34375 
Q 5.515625 14.109375 5.515625 27.296875 
Q 5.515625 40.671875 12.859375 48.328125 
Q 20.21875 56 33.015625 56 
Q 37.15625 56 41.109375 55.140625 
Q 45.0625 54.296875 48.78125 52.59375 
z
" id="DejaVuSans-99"/>
      <path d="M 54.890625 33.015625 
L 54.890625 0 
L 45.90625 0 
L 45.90625 32.71875 
Q 45.90625 40.484375 42.875 44.328125 
Q 39.84375 48.1875 33.796875 48.1875 
Q 26.515625 48.1875 22.3125 43.546875 
Q 18.109375 38.921875 18.109375 30.90625 
L 18.109375 0 
L 9.078125 0 
L 9.078125 75.984375 
L 18.109375 75.984375 
L 18.109375 46.1875 
Q 21.34375 51.125 25.703125 53.5625 
Q 30.078125 56 35.796875 56 
Q 45.21875 56 50.046875 50.171875 
Q 54.890625 44.34375 54.890625 33.015625 
z
" id="DejaVuSans-104"/>
     </defs>
     <g transform="translate(220.849063 335.860562)scale(0.1 -0.1)">
      <use xlink:href="#DejaVuSans-69"/>
      <use x="63.183594" xlink:href="#DejaVuSans-112"/>
      <use x="126.660156" xlink:href="#DejaVuSans-111"/>
      <use x="187.841797" xlink:href="#DejaVuSans-99"/>
      <use x="242.822266" xlink:href="#DejaVuSans-104"/>
     </g>
    </g>
   </g>
   <g id="matplotlib.axis_2">
    <g id="ytick_1">
     <g id="line2d_13">
      <path clip-path="url(#p7d069ba4ee)" d="M 57.6 307.584 
L 414.72 307.584 
" style="fill:none;stroke:#b0b0b0;stroke-linecap:square;stroke-width:0.8;"/>
     </g>
     <g id="line2d_14">
      <defs>
       <path d="M 0 0 
L -3.5 0 
" id="m5b3461f748" style="stroke:#000000;stroke-width:0.8;"/>
      </defs>
      <g>
       <use style="stroke:#000000;stroke-width:0.8;" x="57.6" xlink:href="#m5b3461f748" y="307.584"/>
      </g>
     </g>
     <g id="text_8">
      <!-- 0.00 -->
      <defs>
       <path d="M 10.6875 12.40625 
L 21 12.40625 
L 21 0 
L 10.6875 0 
z
" id="DejaVuSans-46"/>
      </defs>
      <g transform="translate(28.334375 311.383219)scale(0.1 -0.1)">
       <use xlink:href="#DejaVuSans-48"/>
       <use x="63.623047" xlink:href="#DejaVuSans-46"/>
       <use x="95.410156" xlink:href="#DejaVuSans-48"/>
       <use x="159.033203" xlink:href="#DejaVuSans-48"/>
      </g>
     </g>
    </g>
    <g id="ytick_2">
     <g id="line2d_15">
      <path clip-path="url(#p7d069ba4ee)" d="M 57.6 274.32 
L 414.72 274.32 
" style="fill:none;stroke:#b0b0b0;stroke-linecap:square;stroke-width:0.8;"/>
     </g>
     <g id="line2d_16">
      <g>
       <use style="stroke:#000000;stroke-width:0.8;" x="57.6" xlink:href="#m5b3461f748" y="274.32"/>
      </g>
     </g>
     <g id="text_9">
      <!-- 0.25 -->
      <g transform="translate(28.334375 278.119219)scale(0.1 -0.1)">
       <use xlink:href="#DejaVuSans-48"/>
       <use x="63.623047" xlink:href="#DejaVuSans-46"/>
       <use x="95.410156" xlink:href="#DejaVuSans-50"/>
       <use x="159.033203" xlink:href="#DejaVuSans-53"/>
      </g>
     </g>
    </g>
    <g id="ytick_3">
     <g id="line2d_17">
      <path clip-path="url(#p7d069ba4ee)" d="M 57.6 241.056 
L 414.72 241.056 
" style="fill:none;stroke:#b0b0b0;stroke-linecap:square;stroke-width:0.8;"/>
     </g>
     <g id="line2d_18">
      <g>
       <use style="stroke:#000000;stroke-width:0.8;" x="57.6" xlink:href="#m5b3461f748" y="241.056"/>
      </g>
     </g>
     <g id="text_10">
      <!-- 0.50 -->
      <g transform="translate(28.334375 244.855219)scale(0.1 -0.1)">
       <use xlink:href="#DejaVuSans-48"/>
       <use x="63.623047" xlink:href="#DejaVuSans-46"/>
       <use x="95.410156" xlink:href="#DejaVuSans-53"/>
       <use x="159.033203" xlink:href="#DejaVuSans-48"/>
      </g>
     </g>
    </g>
    <g id="ytick_4">
     <g id="line2d_19">
      <path clip-path="url(#p7d069ba4ee)" d="M 57.6 207.792 
L 414.72 207.792 
" style="fill:none;stroke:#b0b0b0;stroke-linecap:square;stroke-width:0.8;"/>
     </g>
     <g id="line2d_20">
      <g>
       <use style="stroke:#000000;stroke-width:0.8;" x="57.6" xlink:href="#m5b3461f748" y="207.792"/>
      </g>
     </g>
     <g id="text_11">
      <!-- 0.75 -->
      <defs>
       <path d="M 8.203125 72.90625 
L 55.078125 72.90625 
L 55.078125 68.703125 
L 28.609375 0 
L 18.3125 0 
L 43.21875 64.59375 
L 8.203125 64.59375 
z
" id="DejaVuSans-55"/>
      </defs>
      <g transform="translate(28.334375 211.591219)scale(0.1 -0.1)">
       <use xlink:href="#DejaVuSans-48"/>
       <use x="63.623047" xlink:href="#DejaVuSans-46"/>
       <use x="95.410156" xlink:href="#DejaVuSans-55"/>
       <use x="159.033203" xlink:href="#DejaVuSans-53"/>
      </g>
     </g>
    </g>
    <g id="ytick_5">
     <g id="line2d_21">
      <path clip-path="url(#p7d069ba4ee)" d="M 57.6 174.528 
L 414.72 174.528 
" style="fill:none;stroke:#b0b0b0;stroke-linecap:square;stroke-width:0.8;"/>
     </g>
     <g id="line2d_22">
      <g>
       <use style="stroke:#000000;stroke-width:0.8;" x="57.6" xlink:href="#m5b3461f748" y="174.528"/>
      </g>
     </g>
     <g id="text_12">
      <!-- 1.00 -->
      <g transform="translate(28.334375 178.327219)scale(0.1 -0.1)">
       <use xlink:href="#DejaVuSans-49"/>
       <use x="63.623047" xlink:href="#DejaVuSans-46"/>
       <use x="95.410156" xlink:href="#DejaVuSans-48"/>
       <use x="159.033203" xlink:href="#DejaVuSans-48"/>
      </g>
     </g>
    </g>
    <g id="ytick_6">
     <g id="line2d_23">
      <path clip-path="url(#p7d069ba4ee)" d="M 57.6 141.264 
L 414.72 141.264 
" style="fill:none;stroke:#b0b0b0;stroke-linecap:square;stroke-width:0.8;"/>
     </g>
     <g id="line2d_24">
      <g>
       <use style="stroke:#000000;stroke-width:0.8;" x="57.6" xlink:href="#m5b3461f748" y="141.264"/>
      </g>
     </g>
     <g id="text_13">
      <!-- 1.25 -->
      <g transform="translate(28.334375 145.063219)scale(0.1 -0.1)">
       <use xlink:href="#DejaVuSans-49"/>
       <use x="63.623047" xlink:href="#DejaVuSans-46"/>
       <use x="95.410156" xlink:href="#DejaVuSans-50"/>
       <use x="159.033203" xlink:href="#DejaVuSans-53"/>
      </g>
     </g>
    </g>
    <g id="ytick_7">
     <g id="line2d_25">
      <path clip-path="url(#p7d069ba4ee)" d="M 57.6 108 
L 414.72 108 
" style="fill:none;stroke:#b0b0b0;stroke-linecap:square;stroke-width:0.8;"/>
     </g>
     <g id="line2d_26">
      <g>
       <use style="stroke:#000000;stroke-width:0.8;" x="57.6" xlink:href="#m5b3461f748" y="108"/>
      </g>
     </g>
     <g id="text_14">
      <!-- 1.50 -->
      <g transform="translate(28.334375 111.799219)scale(0.1 -0.1)">
       <use xlink:href="#DejaVuSans-49"/>
       <use x="63.623047" xlink:href="#DejaVuSans-46"/>
       <use x="95.410156" xlink:href="#DejaVuSans-53"/>
       <use x="159.033203" xlink:href="#DejaVuSans-48"/>
      </g>
     </g>
    </g>
    <g id="ytick_8">
     <g id="line2d_27">
      <path clip-path="url(#p7d069ba4ee)" d="M 57.6 74.736 
L 414.72 74.736 
" style="fill:none;stroke:#b0b0b0;stroke-linecap:square;stroke-width:0.8;"/>
     </g>
     <g id="line2d_28">
      <g>
       <use style="stroke:#000000;stroke-width:0.8;" x="57.6" xlink:href="#m5b3461f748" y="74.736"/>
      </g>
     </g>
     <g id="text_15">
      <!-- 1.75 -->
      <g transform="translate(28.334375 78.535219)scale(0.1 -0.1)">
       <use xlink:href="#DejaVuSans-49"/>
       <use x="63.623047" xlink:href="#DejaVuSans-46"/>
       <use x="95.410156" xlink:href="#DejaVuSans-55"/>
       <use x="159.033203" xlink:href="#DejaVuSans-53"/>
      </g>
     </g>
    </g>
    <g id="ytick_9">
     <g id="line2d_29">
      <path clip-path="url(#p7d069ba4ee)" d="M 57.6 41.472 
L 414.72 41.472 
" style="fill:none;stroke:#b0b0b0;stroke-linecap:square;stroke-width:0.8;"/>
     </g>
     <g id="line2d_30">
      <g>
       <use style="stroke:#000000;stroke-width:0.8;" x="57.6" xlink:href="#m5b3461f748" y="41.472"/>
      </g>
     </g>
     <g id="text_16">
      <!-- 2.00 -->
      <g transform="translate(28.334375 45.271219)scale(0.1 -0.1)">
       <use xlink:href="#DejaVuSans-50"/>
       <use x="63.623047" xlink:href="#DejaVuSans-46"/>
       <use x="95.410156" xlink:href="#DejaVuSans-48"/>
       <use x="159.033203" xlink:href="#DejaVuSans-48"/>
      </g>
     </g>
    </g>
    <g id="text_17">
     <!-- Perplexity -->
     <defs>
      <path d="M 19.671875 64.796875 
L 19.671875 37.40625 
L 32.078125 37.40625 
Q 38.96875 37.40625 42.71875 40.96875 
Q 46.484375 44.53125 46.484375 51.125 
Q 46.484375 57.671875 42.71875 61.234375 
Q 38.96875 64.796875 32.078125 64.796875 
z
M 9.8125 72.90625 
L 32.078125 72.90625 
Q 44.34375 72.90625 50.609375 67.359375 
Q 56.890625 61.8125 56.890625 51.125 
Q 56.890625 40.328125 50.609375 34.8125 
Q 44.34375 29.296875 32.078125 29.296875 
L 19.671875 29.296875 
L 19.671875 0 
L 9.8125 0 
z
" id="DejaVuSans-80"/>
      <path d="M 56.203125 29.59375 
L 56.203125 25.203125 
L 14.890625 25.203125 
Q 15.484375 15.921875 20.484375 11.0625 
Q 25.484375 6.203125 34.421875 6.203125 
Q 39.59375 6.203125 44.453125 7.46875 
Q 49.3125 8.734375 54.109375 11.28125 
L 54.109375 2.78125 
Q 49.265625 0.734375 44.1875 -0.34375 
Q 39.109375 -1.421875 33.890625 -1.421875 
Q 20.796875 -1.421875 13.15625 6.1875 
Q 5.515625 13.8125 5.515625 26.8125 
Q 5.515625 40.234375 12.765625 48.109375 
Q 20.015625 56 32.328125 56 
Q 43.359375 56 49.78125 48.890625 
Q 56.203125 41.796875 56.203125 29.59375 
z
M 47.21875 32.234375 
Q 47.125 39.59375 43.09375 43.984375 
Q 39.0625 48.390625 32.421875 48.390625 
Q 24.90625 48.390625 20.390625 44.140625 
Q 15.875 39.890625 15.1875 32.171875 
z
" id="DejaVuSans-101"/>
      <path d="M 41.109375 46.296875 
Q 39.59375 47.171875 37.8125 47.578125 
Q 36.03125 48 33.890625 48 
Q 26.265625 48 22.1875 43.046875 
Q 18.109375 38.09375 18.109375 28.8125 
L 18.109375 0 
L 9.078125 0 
L 9.078125 54.6875 
L 18.109375 54.6875 
L 18.109375 46.1875 
Q 20.953125 51.171875 25.484375 53.578125 
Q 30.03125 56 36.53125 56 
Q 37.453125 56 38.578125 55.875 
Q 39.703125 55.765625 41.0625 55.515625 
z
" id="DejaVuSans-114"/>
      <path d="M 9.421875 75.984375 
L 18.40625 75.984375 
L 18.40625 0 
L 9.421875 0 
z
" id="DejaVuSans-108"/>
      <path d="M 54.890625 54.6875 
L 35.109375 28.078125 
L 55.90625 0 
L 45.3125 0 
L 29.390625 21.484375 
L 13.484375 0 
L 2.875 0 
L 24.125 28.609375 
L 4.6875 54.6875 
L 15.28125 54.6875 
L 29.78125 35.203125 
L 44.28125 54.6875 
z
" id="DejaVuSans-120"/>
      <path d="M 9.421875 54.6875 
L 18.40625 54.6875 
L 18.40625 0 
L 9.421875 0 
z
M 9.421875 75.984375 
L 18.40625 75.984375 
L 18.40625 64.59375 
L 9.421875 64.59375 
z
" id="DejaVuSans-105"/>
      <path d="M 18.3125 70.21875 
L 18.3125 54.6875 
L 36.8125 54.6875 
L 36.8125 47.703125 
L 18.3125 47.703125 
L 18.3125 18.015625 
Q 18.3125 11.328125 20.140625 9.421875 
Q 21.96875 7.515625 27.59375 7.515625 
L 36.8125 7.515625 
L 36.8125 0 
L 27.59375 0 
Q 17.1875 0 13.234375 3.875 
Q 9.28125 7.765625 9.28125 18.015625 
L 9.28125 47.703125 
L 2.6875 47.703125 
L 2.6875 54.6875 
L 9.28125 54.6875 
L 9.28125 70.21875 
z
" id="DejaVuSans-116"/>
      <path d="M 32.171875 -5.078125 
Q 28.375 -14.84375 24.75 -17.8125 
Q 21.140625 -20.796875 15.09375 -20.796875 
L 7.90625 -20.796875 
L 7.90625 -13.28125 
L 13.1875 -13.28125 
Q 16.890625 -13.28125 18.9375 -11.515625 
Q 21 -9.765625 23.484375 -3.21875 
L 25.09375 0.875 
L 2.984375 54.6875 
L 12.5 54.6875 
L 29.59375 11.921875 
L 46.6875 54.6875 
L 56.203125 54.6875 
z
" id="DejaVuSans-121"/>
     </defs>
     <g transform="translate(22.254687 199.579563)rotate(-90)scale(0.1 -0.1)">
      <use xlink:href="#DejaVuSans-80"/>
      <use x="60.255859" xlink:href="#DejaVuSans-101"/>
      <use x="121.779297" xlink:href="#DejaVuSans-114"/>
      <use x="162.892578" xlink:href="#DejaVuSans-112"/>
      <use x="226.369141" xlink:href="#DejaVuSans-108"/>
      <use x="254.152344" xlink:href="#DejaVuSans-101"/>
      <use x="315.660156" xlink:href="#DejaVuSans-120"/>
      <use x="374.839844" xlink:href="#DejaVuSans-105"/>
      <use x="402.623047" xlink:href="#DejaVuSans-116"/>
      <use x="441.832031" xlink:href="#DejaVuSans-121"/>
     </g>
    </g>
   </g>
   <g id="line2d_31">
    <path clip-path="url(#p7d069ba4ee)" d="M 81.281478 -1 
L 81.640051 12.19968 
L 82.941272 29.49696 
L 83.591882 28.1664 
L 84.242492 24.17472 
L 84.893103 21.5136 
L 85.543713 38.81088 
L 86.194323 30.82752 
L 86.844934 40.14144 
L 87.495544 42.80256 
L 88.146154 46.79424 
L 88.796764 49.45536 
L 89.447375 61.4304 
L 90.097985 68.0832 
L 90.748595 61.4304 
L 91.399206 72.07488 
L 92.049816 85.38048 
L 92.700426 81.3888 
L 94.001647 106.66944 
L 94.652257 98.68608 
L 95.302868 104.00832 
L 96.604088 119.97504 
L 97.254698 123.96672 
L 97.905309 117.31392 
L 98.555919 104.00832 
L 99.206529 122.63616 
L 99.85714 113.32224 
L 100.50775 126.62784 
L 101.15836 121.3056 
L 101.808971 126.62784 
L 102.459581 117.31392 
L 103.110191 122.63616 
L 103.760802 130.61952 
L 104.411412 126.62784 
L 105.062022 129.28896 
L 106.363243 118.64448 
L 107.013853 133.28064 
L 107.664463 135.94176 
L 108.315074 126.62784 
L 108.965684 133.28064 
L 109.616294 134.6112 
L 110.266905 138.60288 
L 110.917515 134.6112 
L 111.568125 135.94176 
L 112.218736 130.61952 
L 112.869346 134.6112 
L 113.519956 141.264 
L 114.170567 131.95008 
L 114.821177 141.264 
L 115.471787 143.92512 
L 116.122398 131.95008 
L 116.773008 129.28896 
L 117.423618 137.27232 
L 118.074228 141.264 
L 119.375449 143.92512 
L 120.026059 139.93344 
L 120.67667 142.59456 
L 121.32728 139.93344 
L 122.628501 137.27232 
L 123.279111 146.58624 
L 123.929721 146.58624 
L 124.580332 143.92512 
L 125.230942 145.25568 
L 125.881552 142.59456 
L 126.532163 146.58624 
L 127.182773 145.25568 
L 127.833383 141.264 
L 128.483993 146.58624 
L 129.134604 147.9168 
L 129.785214 143.92512 
L 131.086435 149.24736 
L 131.737045 147.9168 
L 132.387655 142.59456 
L 133.038266 145.25568 
L 133.688876 143.92512 
L 134.339486 147.9168 
L 134.990097 149.24736 
L 135.640707 149.24736 
L 136.291317 147.9168 
L 137.592538 147.9168 
L 138.243148 145.25568 
L 138.893758 149.24736 
L 139.544369 149.24736 
L 140.845589 146.58624 
L 142.14681 151.90848 
L 142.79742 149.24736 
L 143.448031 151.90848 
L 144.098641 150.57792 
L 144.749251 153.23904 
L 145.399862 150.57792 
L 146.050472 151.90848 
L 146.701082 154.5696 
L 148.652913 154.5696 
L 149.303523 146.58624 
L 149.954134 154.5696 
L 150.604744 155.90016 
L 151.255354 155.90016 
L 151.905965 154.5696 
L 152.556575 154.5696 
L 153.207185 150.57792 
L 153.857796 151.90848 
L 154.508406 155.90016 
L 155.159016 155.90016 
L 156.460237 153.23904 
L 157.761457 155.90016 
L 160.363899 155.90016 
L 161.014509 157.23072 
L 161.665119 157.23072 
L 162.31573 155.90016 
L 162.96634 157.23072 
L 163.61695 157.23072 
L 164.267561 153.23904 
L 164.918171 154.5696 
L 165.568781 157.23072 
L 166.219392 157.23072 
L 166.870002 154.5696 
L 167.520612 155.90016 
L 168.171222 155.90016 
L 168.821833 157.23072 
L 169.472443 154.5696 
L 170.123053 154.5696 
L 171.424274 157.23072 
L 172.074884 157.23072 
L 172.725495 155.90016 
L 173.376105 157.23072 
L 174.026715 155.90016 
L 174.677326 157.23072 
L 175.978546 157.23072 
L 176.629156 155.90016 
L 177.279767 153.23904 
L 177.930377 155.90016 
L 178.580987 155.90016 
L 179.882208 158.56128 
L 180.532818 157.23072 
L 181.183429 154.5696 
L 181.834039 157.23072 
L 183.78587 157.23072 
L 184.43648 155.90016 
L 185.737701 158.56128 
L 186.388311 158.56128 
L 187.689532 155.90016 
L 188.340142 157.23072 
L 188.990752 154.5696 
L 189.641363 154.5696 
L 190.291973 157.23072 
L 190.942583 157.23072 
L 191.593194 158.56128 
L 194.846245 158.56128 
L 195.496856 157.23072 
L 196.147466 154.5696 
L 196.798076 154.5696 
L 197.448686 157.23072 
L 198.749907 157.23072 
L 199.400517 158.56128 
L 200.051128 155.90016 
L 201.352348 158.56128 
L 202.002959 157.23072 
L 202.653569 158.56128 
L 203.304179 158.56128 
L 203.95479 157.23072 
L 204.6054 158.56128 
L 206.557231 158.56128 
L 207.207841 157.23072 
L 207.858451 157.23072 
L 208.509062 158.56128 
L 211.762113 158.56128 
L 212.412724 155.90016 
L 213.063334 158.56128 
L 216.316385 158.56128 
L 216.966996 157.23072 
L 217.617606 157.23072 
L 218.268216 158.56128 
L 219.569437 158.56128 
L 220.220047 157.23072 
L 221.521268 157.23072 
L 222.171878 155.90016 
L 222.822489 158.56128 
L 223.473099 157.23072 
L 224.123709 158.56128 
L 229.979202 158.56128 
L 230.629812 157.23072 
L 231.280423 158.56128 
L 232.581643 158.56128 
L 233.232254 157.23072 
L 233.882864 158.56128 
L 236.485305 158.56128 
L 237.135915 157.23072 
L 237.786526 158.56128 
L 240.388967 158.56128 
L 241.039577 157.23072 
L 241.690188 157.23072 
L 242.340798 158.56128 
L 246.24446 158.56128 
L 246.89507 157.23072 
L 247.54568 158.56128 
L 270.317041 158.56128 
L 270.967652 155.90016 
L 272.268872 158.56128 
L 276.172534 158.56128 
L 276.823144 157.23072 
L 277.473755 158.56128 
L 291.136571 158.56128 
L 291.787182 157.23072 
L 293.088402 157.23072 
L 293.739013 158.56128 
L 357.498823 158.56128 
L 358.149433 157.23072 
L 358.800044 158.56128 
L 369.860419 158.56128 
L 371.16164 155.90016 
L 371.81225 158.56128 
L 398.487273 158.56128 
L 398.487273 158.56128 
" style="fill:none;stroke:#1f77b4;stroke-linecap:square;stroke-width:1.5;"/>
   </g>
   <g id="line2d_32">
    <path clip-path="url(#p7d069ba4ee)" d="M 78.783863 -1 
L 79.03761 13.53024 
L 79.68822 24.17472 
L 80.33883 28.1664 
L 80.989441 44.13312 
L 81.640051 50.78592 
L 82.290661 56.10816 
L 82.941272 57.43872 
L 83.591882 48.1248 
L 84.242492 57.43872 
L 84.893103 52.11648 
L 85.543713 58.76928 
L 86.194323 54.7776 
L 86.844934 62.76096 
L 87.495544 65.42208 
L 88.146154 74.736 
L 88.796764 69.41376 
L 89.447375 93.36384 
L 90.097985 88.0416 
L 90.748595 94.6944 
L 91.399206 105.33888 
L 92.049816 113.32224 
L 92.700426 110.66112 
L 93.351037 125.29728 
L 94.001647 130.61952 
L 94.652257 119.97504 
L 95.302868 125.29728 
L 95.953478 137.27232 
L 96.604088 142.59456 
L 97.254698 137.27232 
L 97.905309 137.27232 
L 98.555919 139.93344 
L 99.206529 134.6112 
L 99.85714 141.264 
L 100.50775 142.59456 
L 101.15836 139.93344 
L 101.808971 142.59456 
L 102.459581 141.264 
L 103.110191 146.58624 
L 103.760802 143.92512 
L 105.062022 146.58624 
L 105.712633 129.28896 
L 106.363243 146.58624 
L 107.013853 151.90848 
L 107.664463 150.57792 
L 108.315074 146.58624 
L 108.965684 153.23904 
L 110.266905 153.23904 
L 110.917515 154.5696 
L 111.568125 137.27232 
L 112.218736 153.23904 
L 112.869346 154.5696 
L 113.519956 158.56128 
L 114.170567 154.5696 
L 114.821177 159.89184 
L 115.471787 159.89184 
L 116.122398 154.5696 
L 116.773008 146.58624 
L 117.423618 155.90016 
L 118.074228 158.56128 
L 118.724839 157.23072 
L 120.026059 157.23072 
L 120.67667 151.90848 
L 121.32728 159.89184 
L 121.97789 150.57792 
L 122.628501 159.89184 
L 123.279111 159.89184 
L 123.929721 161.2224 
L 124.580332 158.56128 
L 125.230942 158.56128 
L 125.881552 161.2224 
L 126.532163 159.89184 
L 127.182773 159.89184 
L 127.833383 161.2224 
L 128.483993 159.89184 
L 129.134604 161.2224 
L 129.785214 158.56128 
L 130.435824 162.55296 
L 131.086435 161.2224 
L 133.038266 161.2224 
L 133.688876 159.89184 
L 134.990097 162.55296 
L 135.640707 161.2224 
L 136.291317 161.2224 
L 136.941927 159.89184 
L 137.592538 161.2224 
L 138.243148 159.89184 
L 138.893758 162.55296 
L 140.194979 159.89184 
L 140.845589 159.89184 
L 141.4962 161.2224 
L 142.14681 159.89184 
L 142.79742 161.2224 
L 143.448031 161.2224 
L 144.098641 159.89184 
L 144.749251 159.89184 
L 145.399862 161.2224 
L 146.050472 161.2224 
L 146.701082 162.55296 
L 147.351692 162.55296 
L 148.002303 161.2224 
L 148.652913 162.55296 
L 149.303523 161.2224 
L 149.954134 162.55296 
L 151.255354 162.55296 
L 151.905965 161.2224 
L 152.556575 147.9168 
L 153.207185 162.55296 
L 153.857796 159.89184 
L 155.159016 162.55296 
L 155.809627 161.2224 
L 157.110847 161.2224 
L 157.761457 162.55296 
L 158.412068 162.55296 
L 159.062678 161.2224 
L 159.713288 162.55296 
L 161.665119 162.55296 
L 162.31573 161.2224 
L 162.96634 162.55296 
L 163.61695 161.2224 
L 164.918171 161.2224 
L 165.568781 162.55296 
L 166.219392 161.2224 
L 166.870002 157.23072 
L 167.520612 162.55296 
L 168.821833 162.55296 
L 170.123053 159.89184 
L 170.773664 162.55296 
L 171.424274 162.55296 
L 172.074884 161.2224 
L 172.725495 161.2224 
L 173.376105 162.55296 
L 174.677326 162.55296 
L 175.327936 161.2224 
L 175.978546 161.2224 
L 176.629156 158.56128 
L 177.930377 161.2224 
L 178.580987 161.2224 
L 179.231598 162.55296 
L 180.532818 159.89184 
L 181.183429 161.2224 
L 181.834039 161.2224 
L 182.484649 159.89184 
L 183.13526 161.2224 
L 183.78587 159.89184 
L 184.43648 162.55296 
L 185.737701 162.55296 
L 186.388311 161.2224 
L 188.340142 161.2224 
L 188.990752 154.5696 
L 189.641363 161.2224 
L 191.593194 161.2224 
L 192.243804 159.89184 
L 192.894414 161.2224 
L 194.195635 161.2224 
L 194.846245 162.55296 
L 195.496856 157.23072 
L 196.147466 161.2224 
L 196.798076 161.2224 
L 197.448686 159.89184 
L 198.099297 161.2224 
L 198.749907 161.2224 
L 199.400517 162.55296 
L 200.051128 161.2224 
L 200.701738 161.2224 
L 201.352348 162.55296 
L 202.002959 161.2224 
L 205.906621 161.2224 
L 206.557231 162.55296 
L 207.207841 158.56128 
L 207.858451 161.2224 
L 211.762113 161.2224 
L 212.412724 159.89184 
L 213.063334 161.2224 
L 216.966996 161.2224 
L 217.617606 159.89184 
L 218.268216 161.2224 
L 219.569437 161.2224 
L 220.220047 159.89184 
L 220.870658 161.2224 
L 222.171878 161.2224 
L 222.822489 162.55296 
L 223.473099 161.2224 
L 227.376761 161.2224 
L 228.027371 159.89184 
L 228.677981 161.2224 
L 229.328592 161.2224 
L 229.979202 159.89184 
L 230.629812 161.2224 
L 231.931033 161.2224 
L 232.581643 162.55296 
L 233.232254 159.89184 
L 233.882864 161.2224 
L 234.533474 161.2224 
L 235.184085 162.55296 
L 235.834695 161.2224 
L 237.135915 161.2224 
L 237.786526 159.89184 
L 238.437136 161.2224 
L 239.738357 161.2224 
L 240.388967 162.55296 
L 241.690188 159.89184 
L 242.340798 161.2224 
L 245.59385 161.2224 
L 246.24446 159.89184 
L 246.89507 161.2224 
L 248.196291 161.2224 
L 248.846901 158.56128 
L 249.497511 161.2224 
L 266.413379 161.2224 
L 267.06399 159.89184 
L 267.7146 161.2224 
L 270.967652 161.2224 
L 271.618262 159.89184 
L 272.268872 161.2224 
L 283.979858 161.2224 
L 284.630468 159.89184 
L 285.281079 159.89184 
L 285.931689 161.2224 
L 286.582299 159.89184 
L 287.232909 161.2224 
L 287.88352 159.89184 
L 288.53413 161.2224 
L 289.18474 159.89184 
L 289.835351 161.2224 
L 291.136571 161.2224 
L 291.787182 159.89184 
L 292.437792 157.23072 
L 293.088402 159.89184 
L 293.739013 161.2224 
L 294.389623 159.89184 
L 295.040233 161.2224 
L 295.690844 161.2224 
L 296.341454 159.89184 
L 296.992064 161.2224 
L 299.594505 161.2224 
L 300.245116 159.89184 
L 301.546336 159.89184 
L 302.196947 161.2224 
L 302.847557 159.89184 
L 303.498167 161.2224 
L 311.305491 161.2224 
L 311.956101 159.89184 
L 312.606712 159.89184 
L 313.257322 161.2224 
L 318.462204 161.2224 
L 319.112815 159.89184 
L 319.763425 161.2224 
L 320.414035 161.2224 
L 321.064646 159.89184 
L 321.715256 161.2224 
L 326.269528 161.2224 
L 326.920138 159.89184 
L 327.570749 161.2224 
L 328.221359 159.89184 
L 328.871969 161.2224 
L 329.52258 161.2224 
L 330.17319 159.89184 
L 330.8238 159.89184 
L 331.474411 161.2224 
L 332.775631 161.2224 
L 333.426242 158.56128 
L 334.076852 161.2224 
L 343.836007 161.2224 
L 344.486617 159.89184 
L 345.137227 161.2224 
L 354.896382 161.2224 
L 355.546992 159.89184 
L 356.197602 159.89184 
L 356.848213 161.2224 
L 357.498823 161.2224 
L 358.149433 159.89184 
L 358.800044 161.2224 
L 362.053095 161.2224 
L 362.703706 159.89184 
L 363.354316 161.2224 
L 367.908588 161.2224 
L 368.559198 159.89184 
L 369.209809 161.2224 
L 369.860419 161.2224 
L 370.511029 159.89184 
L 371.16164 161.2224 
L 371.81225 159.89184 
L 372.46286 161.2224 
L 373.113471 159.89184 
L 375.715912 159.89184 
L 376.366522 158.56128 
L 377.017132 159.89184 
L 378.318353 159.89184 
L 378.968963 158.56128 
L 379.619574 159.89184 
L 382.872625 159.89184 
L 383.523236 161.2224 
L 384.173846 159.89184 
L 384.824456 161.2224 
L 385.475066 159.89184 
L 388.728118 159.89184 
L 389.378728 158.56128 
L 390.029339 158.56128 
L 390.679949 159.89184 
L 391.330559 158.56128 
L 391.98117 158.56128 
L 392.63178 159.89184 
L 393.28239 159.89184 
L 393.933001 161.2224 
L 398.487273 161.2224 
L 398.487273 161.2224 
" style="fill:none;stroke:#ff7f0e;stroke-linecap:square;stroke-width:1.5;"/>
   </g>
   <g id="patch_3">
    <path d="M 57.6 307.584 
L 57.6 41.472 
" style="fill:none;stroke:#000000;stroke-linecap:square;stroke-linejoin:miter;stroke-width:0.8;"/>
   </g>
   <g id="patch_4">
    <path d="M 414.72 307.584 
L 414.72 41.472 
" style="fill:none;stroke:#000000;stroke-linecap:square;stroke-linejoin:miter;stroke-width:0.8;"/>
   </g>
   <g id="patch_5">
    <path d="M 57.6 307.584 
L 414.72 307.584 
" style="fill:none;stroke:#000000;stroke-linecap:square;stroke-linejoin:miter;stroke-width:0.8;"/>
   </g>
   <g id="patch_6">
    <path d="M 57.6 41.472 
L 414.72 41.472 
" style="fill:none;stroke:#000000;stroke-linecap:square;stroke-linejoin:miter;stroke-width:0.8;"/>
   </g>
   <g id="legend_1">
    <g id="patch_7">
     <path d="M 350.279375 78.82825 
L 407.72 78.82825 
Q 409.72 78.82825 409.72 76.82825 
L 409.72 48.472 
Q 409.72 46.472 407.72 46.472 
L 350.279375 46.472 
Q 348.279375 46.472 348.279375 48.472 
L 348.279375 76.82825 
Q 348.279375 78.82825 350.279375 78.82825 
z
" style="fill:#ffffff;opacity:0.8;stroke:#cccccc;stroke-linejoin:miter;"/>
    </g>
    <g id="line2d_33">
     <path d="M 352.279375 54.570437 
L 372.279375 54.570437 
" style="fill:none;stroke:#1f77b4;stroke-linecap:square;stroke-width:1.5;"/>
    </g>
    <g id="line2d_34"/>
    <g id="text_18">
     <!-- Train -->
     <defs>
      <path d="M -0.296875 72.90625 
L 61.375 72.90625 
L 61.375 64.59375 
L 35.5 64.59375 
L 35.5 0 
L 25.59375 0 
L 25.59375 64.59375 
L -0.296875 64.59375 
z
" id="DejaVuSans-84"/>
      <path d="M 34.28125 27.484375 
Q 23.390625 27.484375 19.1875 25 
Q 14.984375 22.515625 14.984375 16.5 
Q 14.984375 11.71875 18.140625 8.90625 
Q 21.296875 6.109375 26.703125 6.109375 
Q 34.1875 6.109375 38.703125 11.40625 
Q 43.21875 16.703125 43.21875 25.484375 
L 43.21875 27.484375 
z
M 52.203125 31.203125 
L 52.203125 0 
L 43.21875 0 
L 43.21875 8.296875 
Q 40.140625 3.328125 35.546875 0.953125 
Q 30.953125 -1.421875 24.3125 -1.421875 
Q 15.921875 -1.421875 10.953125 3.296875 
Q 6 8.015625 6 15.921875 
Q 6 25.140625 12.171875 29.828125 
Q 18.359375 34.515625 30.609375 34.515625 
L 43.21875 34.515625 
L 43.21875 35.40625 
Q 43.21875 41.609375 39.140625 45 
Q 35.0625 48.390625 27.6875 48.390625 
Q 23 48.390625 18.546875 47.265625 
Q 14.109375 46.140625 10.015625 43.890625 
L 10.015625 52.203125 
Q 14.9375 54.109375 19.578125 55.046875 
Q 24.21875 56 28.609375 56 
Q 40.484375 56 46.34375 49.84375 
Q 52.203125 43.703125 52.203125 31.203125 
z
" id="DejaVuSans-97"/>
      <path d="M 54.890625 33.015625 
L 54.890625 0 
L 45.90625 0 
L 45.90625 32.71875 
Q 45.90625 40.484375 42.875 44.328125 
Q 39.84375 48.1875 33.796875 48.1875 
Q 26.515625 48.1875 22.3125 43.546875 
Q 18.109375 38.921875 18.109375 30.90625 
L 18.109375 0 
L 9.078125 0 
L 9.078125 54.6875 
L 18.109375 54.6875 
L 18.109375 46.1875 
Q 21.34375 51.125 25.703125 53.5625 
Q 30.078125 56 35.796875 56 
Q 45.21875 56 50.046875 50.171875 
Q 54.890625 44.34375 54.890625 33.015625 
z
" id="DejaVuSans-110"/>
     </defs>
     <g transform="translate(380.279375 58.070437)scale(0.1 -0.1)">
      <use xlink:href="#DejaVuSans-84"/>
      <use x="60.865234" xlink:href="#DejaVuSans-114"/>
      <use x="101.978516" xlink:href="#DejaVuSans-97"/>
      <use x="163.257812" xlink:href="#DejaVuSans-105"/>
      <use x="191.041016" xlink:href="#DejaVuSans-110"/>
     </g>
    </g>
    <g id="line2d_35">
     <path d="M 352.279375 69.248562 
L 372.279375 69.248562 
" style="fill:none;stroke:#ff7f0e;stroke-linecap:square;stroke-width:1.5;"/>
    </g>
    <g id="line2d_36"/>
    <g id="text_19">
     <!-- Valid -->
     <defs>
      <path d="M 28.609375 0 
L 0.78125 72.90625 
L 11.078125 72.90625 
L 34.1875 11.53125 
L 57.328125 72.90625 
L 67.578125 72.90625 
L 39.796875 0 
z
" id="DejaVuSans-86"/>
      <path d="M 45.40625 46.390625 
L 45.40625 75.984375 
L 54.390625 75.984375 
L 54.390625 0 
L 45.40625 0 
L 45.40625 8.203125 
Q 42.578125 3.328125 38.25 0.953125 
Q 33.9375 -1.421875 27.875 -1.421875 
Q 17.96875 -1.421875 11.734375 6.484375 
Q 5.515625 14.40625 5.515625 27.296875 
Q 5.515625 40.1875 11.734375 48.09375 
Q 17.96875 56 27.875 56 
Q 33.9375 56 38.25 53.625 
Q 42.578125 51.265625 45.40625 46.390625 
z
M 14.796875 27.296875 
Q 14.796875 17.390625 18.875 11.75 
Q 22.953125 6.109375 30.078125 6.109375 
Q 37.203125 6.109375 41.296875 11.75 
Q 45.40625 17.390625 45.40625 27.296875 
Q 45.40625 37.203125 41.296875 42.84375 
Q 37.203125 48.484375 30.078125 48.484375 
Q 22.953125 48.484375 18.875 42.84375 
Q 14.796875 37.203125 14.796875 27.296875 
z
" id="DejaVuSans-100"/>
     </defs>
     <g transform="translate(380.279375 72.748562)scale(0.1 -0.1)">
      <use xlink:href="#DejaVuSans-86"/>
      <use x="68.298828" xlink:href="#DejaVuSans-97"/>
      <use x="129.578125" xlink:href="#DejaVuSans-108"/>
      <use x="157.361328" xlink:href="#DejaVuSans-105"/>
      <use x="185.144531" xlink:href="#DejaVuSans-100"/>
     </g>
    </g>
   </g>
  </g>
 </g>
 <defs>
  <clipPath id="p7d069ba4ee">
   <rect height="266.112" width="357.12" x="57.6" y="41.472"/>
  </clipPath>
 </defs>
</svg>
