<?xml version="1.0" encoding="utf-8" standalone="no"?>
<!DOCTYPE svg PUBLIC "-//W3C//DTD SVG 1.1//EN"
  "http://www.w3.org/Graphics/SVG/1.1/DTD/svg11.dtd">
<!-- Created with matplotlib (https://matplotlib.org/) -->
<svg height="345.6pt" version="1.1" viewBox="0 0 460.8 345.6" width="460.8pt" xmlns="http://www.w3.org/2000/svg" xmlns:xlink="http://www.w3.org/1999/xlink">
 <defs>
  <style type="text/css">
*{stroke-linecap:butt;stroke-linejoin:round;}
  </style>
 </defs>
 <g id="figure_1">
  <g id="patch_1">
   <path d="M 0 345.6 
L 460.8 345.6 
L 460.8 0 
L 0 0 
z
" style="fill:#ffffff;"/>
  </g>
  <g id="axes_1">
   <g id="patch_2">
    <path d="M 57.6 307.584 
L 414.72 307.584 
L 414.72 41.472 
L 57.6 41.472 
z
" style="fill:#ffffff;"/>
   </g>
   <g id="matplotlib.axis_1">
    <g id="xtick_1">
     <g id="line2d_1">
      <path clip-path="url(#pd7aaa510fd)" d="M 73.182117 307.584 
L 73.182117 41.472 
" style="fill:none;stroke:#b0b0b0;stroke-linecap:square;stroke-width:0.8;"/>
     </g>
     <g id="line2d_2">
      <defs>
       <path d="M 0 0 
L 0 3.5 
" id="m3627f9daba" style="stroke:#000000;stroke-width:0.8;"/>
      </defs>
      <g>
       <use style="stroke:#000000;stroke-width:0.8;" x="73.182117" xlink:href="#m3627f9daba" y="307.584"/>
      </g>
     </g>
     <g id="text_1">
      <!-- 0 -->
      <defs>
       <path d="M 31.78125 66.40625 
Q 24.171875 66.40625 20.328125 58.90625 
Q 16.5 51.421875 16.5 36.375 
Q 16.5 21.390625 20.328125 13.890625 
Q 24.171875 6.390625 31.78125 6.390625 
Q 39.453125 6.390625 43.28125 13.890625 
Q 47.125 21.390625 47.125 36.375 
Q 47.125 51.421875 43.28125 58.90625 
Q 39.453125 66.40625 31.78125 66.40625 
z
M 31.78125 74.21875 
Q 44.046875 74.21875 50.515625 64.515625 
Q 56.984375 54.828125 56.984375 36.375 
Q 56.984375 17.96875 50.515625 8.265625 
Q 44.046875 -1.421875 31.78125 -1.421875 
Q 19.53125 -1.421875 13.0625 8.265625 
Q 6.59375 17.96875 6.59375 36.375 
Q 6.59375 54.828125 13.0625 64.515625 
Q 19.53125 74.21875 31.78125 74.21875 
z
" id="DejaVuSans-48"/>
      </defs>
      <g transform="translate(70.000867 322.182437)scale(0.1 -0.1)">
       <use xlink:href="#DejaVuSans-48"/>
      </g>
     </g>
    </g>
    <g id="xtick_2">
     <g id="line2d_3">
      <path clip-path="url(#pd7aaa510fd)" d="M 138.243148 307.584 
L 138.243148 41.472 
" style="fill:none;stroke:#b0b0b0;stroke-linecap:square;stroke-width:0.8;"/>
     </g>
     <g id="line2d_4">
      <g>
       <use style="stroke:#000000;stroke-width:0.8;" x="138.243148" xlink:href="#m3627f9daba" y="307.584"/>
      </g>
     </g>
     <g id="text_2">
      <!-- 100 -->
      <defs>
       <path d="M 12.40625 8.296875 
L 28.515625 8.296875 
L 28.515625 63.921875 
L 10.984375 60.40625 
L 10.984375 69.390625 
L 28.421875 72.90625 
L 38.28125 72.90625 
L 38.28125 8.296875 
L 54.390625 8.296875 
L 54.390625 0 
L 12.40625 0 
z
" id="DejaVuSans-49"/>
      </defs>
      <g transform="translate(128.699398 322.182437)scale(0.1 -0.1)">
       <use xlink:href="#DejaVuSans-49"/>
       <use x="63.623047" xlink:href="#DejaVuSans-48"/>
       <use x="127.246094" xlink:href="#DejaVuSans-48"/>
      </g>
     </g>
    </g>
    <g id="xtick_3">
     <g id="line2d_5">
      <path clip-path="url(#pd7aaa510fd)" d="M 203.304179 307.584 
L 203.304179 41.472 
" style="fill:none;stroke:#b0b0b0;stroke-linecap:square;stroke-width:0.8;"/>
     </g>
     <g id="line2d_6">
      <g>
       <use style="stroke:#000000;stroke-width:0.8;" x="203.304179" xlink:href="#m3627f9daba" y="307.584"/>
      </g>
     </g>
     <g id="text_3">
      <!-- 200 -->
      <defs>
       <path d="M 19.1875 8.296875 
L 53.609375 8.296875 
L 53.609375 0 
L 7.328125 0 
L 7.328125 8.296875 
Q 12.9375 14.109375 22.625 23.890625 
Q 32.328125 33.6875 34.8125 36.53125 
Q 39.546875 41.84375 41.421875 45.53125 
Q 43.3125 49.21875 43.3125 52.78125 
Q 43.3125 58.59375 39.234375 62.25 
Q 35.15625 65.921875 28.609375 65.921875 
Q 23.96875 65.921875 18.8125 64.3125 
Q 13.671875 62.703125 7.8125 59.421875 
L 7.8125 69.390625 
Q 13.765625 71.78125 18.9375 73 
Q 24.125 74.21875 28.421875 74.21875 
Q 39.75 74.21875 46.484375 68.546875 
Q 53.21875 62.890625 53.21875 53.421875 
Q 53.21875 48.921875 51.53125 44.890625 
Q 49.859375 40.875 45.40625 35.40625 
Q 44.1875 33.984375 37.640625 27.21875 
Q 31.109375 20.453125 19.1875 8.296875 
z
" id="DejaVuSans-50"/>
      </defs>
      <g transform="translate(193.760429 322.182437)scale(0.1 -0.1)">
       <use xlink:href="#DejaVuSans-50"/>
       <use x="63.623047" xlink:href="#DejaVuSans-48"/>
       <use x="127.246094" xlink:href="#DejaVuSans-48"/>
      </g>
     </g>
    </g>
    <g id="xtick_4">
     <g id="line2d_7">
      <path clip-path="url(#pd7aaa510fd)" d="M 268.36521 307.584 
L 268.36521 41.472 
" style="fill:none;stroke:#b0b0b0;stroke-linecap:square;stroke-width:0.8;"/>
     </g>
     <g id="line2d_8">
      <g>
       <use style="stroke:#000000;stroke-width:0.8;" x="268.36521" xlink:href="#m3627f9daba" y="307.584"/>
      </g>
     </g>
     <g id="text_4">
      <!-- 300 -->
      <defs>
       <path d="M 40.578125 39.3125 
Q 47.65625 37.796875 51.625 33 
Q 55.609375 28.21875 55.609375 21.1875 
Q 55.609375 10.40625 48.1875 4.484375 
Q 40.765625 -1.421875 27.09375 -1.421875 
Q 22.515625 -1.421875 17.65625 -0.515625 
Q 12.796875 0.390625 7.625 2.203125 
L 7.625 11.71875 
Q 11.71875 9.328125 16.59375 8.109375 
Q 21.484375 6.890625 26.8125 6.890625 
Q 36.078125 6.890625 40.9375 10.546875 
Q 45.796875 14.203125 45.796875 21.1875 
Q 45.796875 27.640625 41.28125 31.265625 
Q 36.765625 34.90625 28.71875 34.90625 
L 20.21875 34.90625 
L 20.21875 43.015625 
L 29.109375 43.015625 
Q 36.375 43.015625 40.234375 45.921875 
Q 44.09375 48.828125 44.09375 54.296875 
Q 44.09375 59.90625 40.109375 62.90625 
Q 36.140625 65.921875 28.71875 65.921875 
Q 24.65625 65.921875 20.015625 65.03125 
Q 15.375 64.15625 9.8125 62.3125 
L 9.8125 71.09375 
Q 15.4375 72.65625 20.34375 73.4375 
Q 25.25 74.21875 29.59375 74.21875 
Q 40.828125 74.21875 47.359375 69.109375 
Q 53.90625 64.015625 53.90625 55.328125 
Q 53.90625 49.265625 50.4375 45.09375 
Q 46.96875 40.921875 40.578125 39.3125 
z
" id="DejaVuSans-51"/>
      </defs>
      <g transform="translate(258.82146 322.182437)scale(0.1 -0.1)">
       <use xlink:href="#DejaVuSans-51"/>
       <use x="63.623047" xlink:href="#DejaVuSans-48"/>
       <use x="127.246094" xlink:href="#DejaVuSans-48"/>
      </g>
     </g>
    </g>
    <g id="xtick_5">
     <g id="line2d_9">
      <path clip-path="url(#pd7aaa510fd)" d="M 333.426242 307.584 
L 333.426242 41.472 
" style="fill:none;stroke:#b0b0b0;stroke-linecap:square;stroke-width:0.8;"/>
     </g>
     <g id="line2d_10">
      <g>
       <use style="stroke:#000000;stroke-width:0.8;" x="333.426242" xlink:href="#m3627f9daba" y="307.584"/>
      </g>
     </g>
     <g id="text_5">
      <!-- 400 -->
      <defs>
       <path d="M 37.796875 64.3125 
L 12.890625 25.390625 
L 37.796875 25.390625 
z
M 35.203125 72.90625 
L 47.609375 72.90625 
L 47.609375 25.390625 
L 58.015625 25.390625 
L 58.015625 17.1875 
L 47.609375 17.1875 
L 47.609375 0 
L 37.796875 0 
L 37.796875 17.1875 
L 4.890625 17.1875 
L 4.890625 26.703125 
z
" id="DejaVuSans-52"/>
      </defs>
      <g transform="translate(323.882492 322.182437)scale(0.1 -0.1)">
       <use xlink:href="#DejaVuSans-52"/>
       <use x="63.623047" xlink:href="#DejaVuSans-48"/>
       <use x="127.246094" xlink:href="#DejaVuSans-48"/>
      </g>
     </g>
    </g>
    <g id="xtick_6">
     <g id="line2d_11">
      <path clip-path="url(#pd7aaa510fd)" d="M 398.487273 307.584 
L 398.487273 41.472 
" style="fill:none;stroke:#b0b0b0;stroke-linecap:square;stroke-width:0.8;"/>
     </g>
     <g id="line2d_12">
      <g>
       <use style="stroke:#000000;stroke-width:0.8;" x="398.487273" xlink:href="#m3627f9daba" y="307.584"/>
      </g>
     </g>
     <g id="text_6">
      <!-- 500 -->
      <defs>
       <path d="M 10.796875 72.90625 
L 49.515625 72.90625 
L 49.515625 64.59375 
L 19.828125 64.59375 
L 19.828125 46.734375 
Q 21.96875 47.46875 24.109375 47.828125 
Q 26.265625 48.1875 28.421875 48.1875 
Q 40.625 48.1875 47.75 41.5 
Q 54.890625 34.8125 54.890625 23.390625 
Q 54.890625 11.625 47.5625 5.09375 
Q 40.234375 -1.421875 26.90625 -1.421875 
Q 22.3125 -1.421875 17.546875 -0.640625 
Q 12.796875 0.140625 7.71875 1.703125 
L 7.71875 11.625 
Q 12.109375 9.234375 16.796875 8.0625 
Q 21.484375 6.890625 26.703125 6.890625 
Q 35.15625 6.890625 40.078125 11.328125 
Q 45.015625 15.765625 45.015625 23.390625 
Q 45.015625 31 40.078125 35.4375 
Q 35.15625 39.890625 26.703125 39.890625 
Q 22.75 39.890625 18.8125 39.015625 
Q 14.890625 38.140625 10.796875 36.28125 
z
" id="DejaVuSans-53"/>
      </defs>
      <g transform="translate(388.943523 322.182437)scale(0.1 -0.1)">
       <use xlink:href="#DejaVuSans-53"/>
       <use x="63.623047" xlink:href="#DejaVuSans-48"/>
       <use x="127.246094" xlink:href="#DejaVuSans-48"/>
      </g>
     </g>
    </g>
    <g id="text_7">
     <!-- Epoch -->
     <defs>
      <path d="M 9.8125 72.90625 
L 55.90625 72.90625 
L 55.90625 64.59375 
L 19.671875 64.59375 
L 19.671875 43.015625 
L 54.390625 43.015625 
L 54.390625 34.71875 
L 19.671875 34.71875 
L 19.671875 8.296875 
L 56.78125 8.296875 
L 56.78125 0 
L 9.8125 0 
z
" id="DejaVuSans-69"/>
      <path d="M 18.109375 8.203125 
L 18.109375 -20.796875 
L 9.078125 -20.796875 
L 9.078125 54.6875 
L 18.109375 54.6875 
L 18.109375 46.390625 
Q 20.953125 51.265625 25.265625 53.625 
Q 29.59375 56 35.59375 56 
Q 45.5625 56 51.78125 48.09375 
Q 58.015625 40.1875 58.015625 27.296875 
Q 58.015625 14.40625 51.78125 6.484375 
Q 45.5625 -1.421875 35.59375 -1.421875 
Q 29.59375 -1.421875 25.265625 0.953125 
Q 20.953125 3.328125 18.109375 8.203125 
z
M 48.6875 27.296875 
Q 48.6875 37.203125 44.609375 42.84375 
Q 40.53125 48.484375 33.40625 48.484375 
Q 26.265625 48.484375 22.1875 42.84375 
Q 18.109375 37.203125 18.109375 27.296875 
Q 18.109375 17.390625 22.1875 11.75 
Q 26.265625 6.109375 33.40625 6.109375 
Q 40.53125 6.109375 44.609375 11.75 
Q 48.6875 17.390625 48.6875 27.296875 
z
" id="DejaVuSans-112"/>
      <path d="M 30.609375 48.390625 
Q 23.390625 48.390625 19.1875 42.75 
Q 14.984375 37.109375 14.984375 27.296875 
Q 14.984375 17.484375 19.15625 11.84375 
Q 23.34375 6.203125 30.609375 6.203125 
Q 37.796875 6.203125 41.984375 11.859375 
Q 46.1875 17.53125 46.1875 27.296875 
Q 46.1875 37.015625 41.984375 42.703125 
Q 37.796875 48.390625 30.609375 48.390625 
z
M 30.609375 56 
Q 42.328125 56 49.015625 48.375 
Q 55.71875 40.765625 55.71875 27.296875 
Q 55.71875 13.875 49.015625 6.21875 
Q 42.328125 -1.421875 30.609375 -1.421875 
Q 18.84375 -1.421875 12.171875 6.21875 
Q 5.515625 13.875 5.515625 27.296875 
Q 5.515625 40.765625 12.171875 48.375 
Q 18.84375 56 30.609375 56 
z
" id="DejaVuSans-111"/>
      <path d="M 48.78125 52.59375 
L 48.78125 44.1875 
Q 44.96875 46.296875 41.140625 47.34375 
Q 37.3125 48.390625 33.40625 48.390625 
Q 24.65625 48.390625 19.8125 42.84375 
Q 14.984375 37.3125 14.984375 27.296875 
Q 14.984375 17.28125 19.8125 11.734375 
Q 24.65625 6.203125 33.40625 6.203125 
Q 37.3125 6.203125 41.140625 7.25 
Q 44.96875 8.296875 48.78125 10.40625 
L 48.78125 2.09375 
Q 45.015625 0.34375 40.984375 -0.53125 
Q 36.96875 -1.421875 32.421875 -1.421875 
Q 20.0625 -1.421875 12.78125 6.34375 
Q 5.515625 14.109375 5.515625 27.296875 
Q 5.515625 40.671875 12.859375 48.328125 
Q 20.21875 56 33.015625 56 
Q 37.15625 56 41.109375 55.140625 
Q 45.0625 54.296875 48.78125 52.59375 
z
" id="DejaVuSans-99"/>
      <path d="M 54.890625 33.015625 
L 54.890625 0 
L 45.90625 0 
L 45.90625 32.71875 
Q 45.90625 40.484375 42.875 44.328125 
Q 39.84375 48.1875 33.796875 48.1875 
Q 26.515625 48.1875 22.3125 43.546875 
Q 18.109375 38.921875 18.109375 30.90625 
L 18.109375 0 
L 9.078125 0 
L 9.078125 75.984375 
L 18.109375 75.984375 
L 18.109375 46.1875 
Q 21.34375 51.125 25.703125 53.5625 
Q 30.078125 56 35.796875 56 
Q 45.21875 56 50.046875 50.171875 
Q 54.890625 44.34375 54.890625 33.015625 
z
" id="DejaVuSans-104"/>
     </defs>
     <g transform="translate(220.849063 335.860562)scale(0.1 -0.1)">
      <use xlink:href="#DejaVuSans-69"/>
      <use x="63.183594" xlink:href="#DejaVuSans-112"/>
      <use x="126.660156" xlink:href="#DejaVuSans-111"/>
      <use x="187.841797" xlink:href="#DejaVuSans-99"/>
      <use x="242.822266" xlink:href="#DejaVuSans-104"/>
     </g>
    </g>
   </g>
   <g id="matplotlib.axis_2">
    <g id="ytick_1">
     <g id="line2d_13">
      <path clip-path="url(#pd7aaa510fd)" d="M 57.6 307.584 
L 414.72 307.584 
" style="fill:none;stroke:#b0b0b0;stroke-linecap:square;stroke-width:0.8;"/>
     </g>
     <g id="line2d_14">
      <defs>
       <path d="M 0 0 
L -3.5 0 
" id="ma9d93ec8c9" style="stroke:#000000;stroke-width:0.8;"/>
      </defs>
      <g>
       <use style="stroke:#000000;stroke-width:0.8;" x="57.6" xlink:href="#ma9d93ec8c9" y="307.584"/>
      </g>
     </g>
     <g id="text_8">
      <!-- 0.00 -->
      <defs>
       <path d="M 10.6875 12.40625 
L 21 12.40625 
L 21 0 
L 10.6875 0 
z
" id="DejaVuSans-46"/>
      </defs>
      <g transform="translate(28.334375 311.383219)scale(0.1 -0.1)">
       <use xlink:href="#DejaVuSans-48"/>
       <use x="63.623047" xlink:href="#DejaVuSans-46"/>
       <use x="95.410156" xlink:href="#DejaVuSans-48"/>
       <use x="159.033203" xlink:href="#DejaVuSans-48"/>
      </g>
     </g>
    </g>
    <g id="ytick_2">
     <g id="line2d_15">
      <path clip-path="url(#pd7aaa510fd)" d="M 57.6 274.32 
L 414.72 274.32 
" style="fill:none;stroke:#b0b0b0;stroke-linecap:square;stroke-width:0.8;"/>
     </g>
     <g id="line2d_16">
      <g>
       <use style="stroke:#000000;stroke-width:0.8;" x="57.6" xlink:href="#ma9d93ec8c9" y="274.32"/>
      </g>
     </g>
     <g id="text_9">
      <!-- 0.25 -->
      <g transform="translate(28.334375 278.119219)scale(0.1 -0.1)">
       <use xlink:href="#DejaVuSans-48"/>
       <use x="63.623047" xlink:href="#DejaVuSans-46"/>
       <use x="95.410156" xlink:href="#DejaVuSans-50"/>
       <use x="159.033203" xlink:href="#DejaVuSans-53"/>
      </g>
     </g>
    </g>
    <g id="ytick_3">
     <g id="line2d_17">
      <path clip-path="url(#pd7aaa510fd)" d="M 57.6 241.056 
L 414.72 241.056 
" style="fill:none;stroke:#b0b0b0;stroke-linecap:square;stroke-width:0.8;"/>
     </g>
     <g id="line2d_18">
      <g>
       <use style="stroke:#000000;stroke-width:0.8;" x="57.6" xlink:href="#ma9d93ec8c9" y="241.056"/>
      </g>
     </g>
     <g id="text_10">
      <!-- 0.50 -->
      <g transform="translate(28.334375 244.855219)scale(0.1 -0.1)">
       <use xlink:href="#DejaVuSans-48"/>
       <use x="63.623047" xlink:href="#DejaVuSans-46"/>
       <use x="95.410156" xlink:href="#DejaVuSans-53"/>
       <use x="159.033203" xlink:href="#DejaVuSans-48"/>
      </g>
     </g>
    </g>
    <g id="ytick_4">
     <g id="line2d_19">
      <path clip-path="url(#pd7aaa510fd)" d="M 57.6 207.792 
L 414.72 207.792 
" style="fill:none;stroke:#b0b0b0;stroke-linecap:square;stroke-width:0.8;"/>
     </g>
     <g id="line2d_20">
      <g>
       <use style="stroke:#000000;stroke-width:0.8;" x="57.6" xlink:href="#ma9d93ec8c9" y="207.792"/>
      </g>
     </g>
     <g id="text_11">
      <!-- 0.75 -->
      <defs>
       <path d="M 8.203125 72.90625 
L 55.078125 72.90625 
L 55.078125 68.703125 
L 28.609375 0 
L 18.3125 0 
L 43.21875 64.59375 
L 8.203125 64.59375 
z
" id="DejaVuSans-55"/>
      </defs>
      <g transform="translate(28.334375 211.591219)scale(0.1 -0.1)">
       <use xlink:href="#DejaVuSans-48"/>
       <use x="63.623047" xlink:href="#DejaVuSans-46"/>
       <use x="95.410156" xlink:href="#DejaVuSans-55"/>
       <use x="159.033203" xlink:href="#DejaVuSans-53"/>
      </g>
     </g>
    </g>
    <g id="ytick_5">
     <g id="line2d_21">
      <path clip-path="url(#pd7aaa510fd)" d="M 57.6 174.528 
L 414.72 174.528 
" style="fill:none;stroke:#b0b0b0;stroke-linecap:square;stroke-width:0.8;"/>
     </g>
     <g id="line2d_22">
      <g>
       <use style="stroke:#000000;stroke-width:0.8;" x="57.6" xlink:href="#ma9d93ec8c9" y="174.528"/>
      </g>
     </g>
     <g id="text_12">
      <!-- 1.00 -->
      <g transform="translate(28.334375 178.327219)scale(0.1 -0.1)">
       <use xlink:href="#DejaVuSans-49"/>
       <use x="63.623047" xlink:href="#DejaVuSans-46"/>
       <use x="95.410156" xlink:href="#DejaVuSans-48"/>
       <use x="159.033203" xlink:href="#DejaVuSans-48"/>
      </g>
     </g>
    </g>
    <g id="ytick_6">
     <g id="line2d_23">
      <path clip-path="url(#pd7aaa510fd)" d="M 57.6 141.264 
L 414.72 141.264 
" style="fill:none;stroke:#b0b0b0;stroke-linecap:square;stroke-width:0.8;"/>
     </g>
     <g id="line2d_24">
      <g>
       <use style="stroke:#000000;stroke-width:0.8;" x="57.6" xlink:href="#ma9d93ec8c9" y="141.264"/>
      </g>
     </g>
     <g id="text_13">
      <!-- 1.25 -->
      <g transform="translate(28.334375 145.063219)scale(0.1 -0.1)">
       <use xlink:href="#DejaVuSans-49"/>
       <use x="63.623047" xlink:href="#DejaVuSans-46"/>
       <use x="95.410156" xlink:href="#DejaVuSans-50"/>
       <use x="159.033203" xlink:href="#DejaVuSans-53"/>
      </g>
     </g>
    </g>
    <g id="ytick_7">
     <g id="line2d_25">
      <path clip-path="url(#pd7aaa510fd)" d="M 57.6 108 
L 414.72 108 
" style="fill:none;stroke:#b0b0b0;stroke-linecap:square;stroke-width:0.8;"/>
     </g>
     <g id="line2d_26">
      <g>
       <use style="stroke:#000000;stroke-width:0.8;" x="57.6" xlink:href="#ma9d93ec8c9" y="108"/>
      </g>
     </g>
     <g id="text_14">
      <!-- 1.50 -->
      <g transform="translate(28.334375 111.799219)scale(0.1 -0.1)">
       <use xlink:href="#DejaVuSans-49"/>
       <use x="63.623047" xlink:href="#DejaVuSans-46"/>
       <use x="95.410156" xlink:href="#DejaVuSans-53"/>
       <use x="159.033203" xlink:href="#DejaVuSans-48"/>
      </g>
     </g>
    </g>
    <g id="ytick_8">
     <g id="line2d_27">
      <path clip-path="url(#pd7aaa510fd)" d="M 57.6 74.736 
L 414.72 74.736 
" style="fill:none;stroke:#b0b0b0;stroke-linecap:square;stroke-width:0.8;"/>
     </g>
     <g id="line2d_28">
      <g>
       <use style="stroke:#000000;stroke-width:0.8;" x="57.6" xlink:href="#ma9d93ec8c9" y="74.736"/>
      </g>
     </g>
     <g id="text_15">
      <!-- 1.75 -->
      <g transform="translate(28.334375 78.535219)scale(0.1 -0.1)">
       <use xlink:href="#DejaVuSans-49"/>
       <use x="63.623047" xlink:href="#DejaVuSans-46"/>
       <use x="95.410156" xlink:href="#DejaVuSans-55"/>
       <use x="159.033203" xlink:href="#DejaVuSans-53"/>
      </g>
     </g>
    </g>
    <g id="ytick_9">
     <g id="line2d_29">
      <path clip-path="url(#pd7aaa510fd)" d="M 57.6 41.472 
L 414.72 41.472 
" style="fill:none;stroke:#b0b0b0;stroke-linecap:square;stroke-width:0.8;"/>
     </g>
     <g id="line2d_30">
      <g>
       <use style="stroke:#000000;stroke-width:0.8;" x="57.6" xlink:href="#ma9d93ec8c9" y="41.472"/>
      </g>
     </g>
     <g id="text_16">
      <!-- 2.00 -->
      <g transform="translate(28.334375 45.271219)scale(0.1 -0.1)">
       <use xlink:href="#DejaVuSans-50"/>
       <use x="63.623047" xlink:href="#DejaVuSans-46"/>
       <use x="95.410156" xlink:href="#DejaVuSans-48"/>
       <use x="159.033203" xlink:href="#DejaVuSans-48"/>
      </g>
     </g>
    </g>
    <g id="text_17">
     <!-- Perplexity -->
     <defs>
      <path d="M 19.671875 64.796875 
L 19.671875 37.40625 
L 32.078125 37.40625 
Q 38.96875 37.40625 42.71875 40.96875 
Q 46.484375 44.53125 46.484375 51.125 
Q 46.484375 57.671875 42.71875 61.234375 
Q 38.96875 64.796875 32.078125 64.796875 
z
M 9.8125 72.90625 
L 32.078125 72.90625 
Q 44.34375 72.90625 50.609375 67.359375 
Q 56.890625 61.8125 56.890625 51.125 
Q 56.890625 40.328125 50.609375 34.8125 
Q 44.34375 29.296875 32.078125 29.296875 
L 19.671875 29.296875 
L 19.671875 0 
L 9.8125 0 
z
" id="DejaVuSans-80"/>
      <path d="M 56.203125 29.59375 
L 56.203125 25.203125 
L 14.890625 25.203125 
Q 15.484375 15.921875 20.484375 11.0625 
Q 25.484375 6.203125 34.421875 6.203125 
Q 39.59375 6.203125 44.453125 7.46875 
Q 49.3125 8.734375 54.109375 11.28125 
L 54.109375 2.78125 
Q 49.265625 0.734375 44.1875 -0.34375 
Q 39.109375 -1.421875 33.890625 -1.421875 
Q 20.796875 -1.421875 13.15625 6.1875 
Q 5.515625 13.8125 5.515625 26.8125 
Q 5.515625 40.234375 12.765625 48.109375 
Q 20.015625 56 32.328125 56 
Q 43.359375 56 49.78125 48.890625 
Q 56.203125 41.796875 56.203125 29.59375 
z
M 47.21875 32.234375 
Q 47.125 39.59375 43.09375 43.984375 
Q 39.0625 48.390625 32.421875 48.390625 
Q 24.90625 48.390625 20.390625 44.140625 
Q 15.875 39.890625 15.1875 32.171875 
z
" id="DejaVuSans-101"/>
      <path d="M 41.109375 46.296875 
Q 39.59375 47.171875 37.8125 47.578125 
Q 36.03125 48 33.890625 48 
Q 26.265625 48 22.1875 43.046875 
Q 18.109375 38.09375 18.109375 28.8125 
L 18.109375 0 
L 9.078125 0 
L 9.078125 54.6875 
L 18.109375 54.6875 
L 18.109375 46.1875 
Q 20.953125 51.171875 25.484375 53.578125 
Q 30.03125 56 36.53125 56 
Q 37.453125 56 38.578125 55.875 
Q 39.703125 55.765625 41.0625 55.515625 
z
" id="DejaVuSans-114"/>
      <path d="M 9.421875 75.984375 
L 18.40625 75.984375 
L 18.40625 0 
L 9.421875 0 
z
" id="DejaVuSans-108"/>
      <path d="M 54.890625 54.6875 
L 35.109375 28.078125 
L 55.90625 0 
L 45.3125 0 
L 29.390625 21.484375 
L 13.484375 0 
L 2.875 0 
L 24.125 28.609375 
L 4.6875 54.6875 
L 15.28125 54.6875 
L 29.78125 35.203125 
L 44.28125 54.6875 
z
" id="DejaVuSans-120"/>
      <path d="M 9.421875 54.6875 
L 18.40625 54.6875 
L 18.40625 0 
L 9.421875 0 
z
M 9.421875 75.984375 
L 18.40625 75.984375 
L 18.40625 64.59375 
L 9.421875 64.59375 
z
" id="DejaVuSans-105"/>
      <path d="M 18.3125 70.21875 
L 18.3125 54.6875 
L 36.8125 54.6875 
L 36.8125 47.703125 
L 18.3125 47.703125 
L 18.3125 18.015625 
Q 18.3125 11.328125 20.140625 9.421875 
Q 21.96875 7.515625 27.59375 7.515625 
L 36.8125 7.515625 
L 36.8125 0 
L 27.59375 0 
Q 17.1875 0 13.234375 3.875 
Q 9.28125 7.765625 9.28125 18.015625 
L 9.28125 47.703125 
L 2.6875 47.703125 
L 2.6875 54.6875 
L 9.28125 54.6875 
L 9.28125 70.21875 
z
" id="DejaVuSans-116"/>
      <path d="M 32.171875 -5.078125 
Q 28.375 -14.84375 24.75 -17.8125 
Q 21.140625 -20.796875 15.09375 -20.796875 
L 7.90625 -20.796875 
L 7.90625 -13.28125 
L 13.1875 -13.28125 
Q 16.890625 -13.28125 18.9375 -11.515625 
Q 21 -9.765625 23.484375 -3.21875 
L 25.09375 0.875 
L 2.984375 54.6875 
L 12.5 54.6875 
L 29.59375 11.921875 
L 46.6875 54.6875 
L 56.203125 54.6875 
z
" id="DejaVuSans-121"/>
     </defs>
     <g transform="translate(22.254687 199.579563)rotate(-90)scale(0.1 -0.1)">
      <use xlink:href="#DejaVuSans-80"/>
      <use x="60.255859" xlink:href="#DejaVuSans-101"/>
      <use x="121.779297" xlink:href="#DejaVuSans-114"/>
      <use x="162.892578" xlink:href="#DejaVuSans-112"/>
      <use x="226.369141" xlink:href="#DejaVuSans-108"/>
      <use x="254.152344" xlink:href="#DejaVuSans-101"/>
      <use x="315.660156" xlink:href="#DejaVuSans-120"/>
      <use x="374.839844" xlink:href="#DejaVuSans-105"/>
      <use x="402.623047" xlink:href="#DejaVuSans-116"/>
      <use x="441.832031" xlink:href="#DejaVuSans-121"/>
     </g>
    </g>
   </g>
   <g id="line2d_31">
    <path clip-path="url(#pd7aaa510fd)" d="M 82.079546 -1 
L 82.290661 2.88576 
L 82.941272 10.86912 
L 83.591882 16.19136 
L 84.242492 32.15808 
L 84.893103 25.50528 
L 85.543713 8.208 
L 86.194323 34.8192 
L 86.844934 40.14144 
L 87.495544 42.80256 
L 88.146154 34.8192 
L 88.796764 41.472 
L 89.447375 36.14976 
L 90.097985 50.78592 
L 90.748595 61.4304 
L 92.049816 74.736 
L 92.700426 76.06656 
L 93.351037 89.37216 
L 94.001647 90.70272 
L 94.652257 88.0416 
L 95.302868 98.68608 
L 95.953478 101.3472 
L 96.604088 110.66112 
L 97.254698 117.31392 
L 97.905309 115.98336 
L 98.555919 113.32224 
L 99.206529 118.64448 
L 99.85714 122.63616 
L 100.50775 123.96672 
L 101.15836 119.97504 
L 101.808971 113.32224 
L 102.459581 127.9584 
L 103.110191 129.28896 
L 103.760802 119.97504 
L 104.411412 125.29728 
L 105.062022 129.28896 
L 105.712633 115.98336 
L 106.363243 127.9584 
L 107.013853 129.28896 
L 107.664463 131.95008 
L 108.315074 133.28064 
L 108.965684 125.29728 
L 109.616294 130.61952 
L 110.266905 138.60288 
L 110.917515 142.59456 
L 111.568125 135.94176 
L 112.218736 135.94176 
L 112.869346 143.92512 
L 113.519956 133.28064 
L 114.170567 145.25568 
L 114.821177 142.59456 
L 115.471787 135.94176 
L 116.122398 143.92512 
L 116.773008 147.9168 
L 117.423618 146.58624 
L 118.074228 147.9168 
L 118.724839 143.92512 
L 119.375449 133.28064 
L 120.026059 143.92512 
L 120.67667 141.264 
L 121.32728 139.93344 
L 121.97789 150.57792 
L 122.628501 151.90848 
L 123.279111 151.90848 
L 123.929721 147.9168 
L 124.580332 122.63616 
L 125.230942 150.57792 
L 125.881552 153.23904 
L 126.532163 139.93344 
L 127.182773 142.59456 
L 127.833383 147.9168 
L 128.483993 154.5696 
L 129.134604 147.9168 
L 129.785214 146.58624 
L 130.435824 150.57792 
L 131.086435 151.90848 
L 131.737045 154.5696 
L 132.387655 151.90848 
L 133.038266 153.23904 
L 133.688876 150.57792 
L 134.339486 151.90848 
L 134.990097 154.5696 
L 135.640707 153.23904 
L 136.941927 153.23904 
L 137.592538 154.5696 
L 138.243148 154.5696 
L 138.893758 153.23904 
L 139.544369 154.5696 
L 140.194979 146.58624 
L 140.845589 153.23904 
L 141.4962 155.90016 
L 142.79742 155.90016 
L 143.448031 153.23904 
L 144.749251 155.90016 
L 145.399862 149.24736 
L 146.701082 157.23072 
L 147.351692 155.90016 
L 148.652913 150.57792 
L 149.303523 155.90016 
L 151.255354 155.90016 
L 151.905965 153.23904 
L 153.207185 155.90016 
L 153.857796 150.57792 
L 154.508406 154.5696 
L 155.159016 151.90848 
L 155.809627 155.90016 
L 156.460237 157.23072 
L 157.110847 153.23904 
L 157.761457 157.23072 
L 159.062678 157.23072 
L 159.713288 151.90848 
L 160.363899 155.90016 
L 161.014509 157.23072 
L 161.665119 157.23072 
L 162.96634 151.90848 
L 163.61695 158.56128 
L 164.267561 157.23072 
L 164.918171 151.90848 
L 165.568781 153.23904 
L 166.219392 155.90016 
L 166.870002 157.23072 
L 167.520612 157.23072 
L 168.171222 151.90848 
L 168.821833 155.90016 
L 169.472443 153.23904 
L 170.123053 157.23072 
L 170.773664 158.56128 
L 171.424274 157.23072 
L 172.074884 154.5696 
L 172.725495 153.23904 
L 174.026715 158.56128 
L 174.677326 158.56128 
L 175.978546 153.23904 
L 176.629156 157.23072 
L 177.279767 157.23072 
L 177.930377 158.56128 
L 179.231598 155.90016 
L 179.882208 157.23072 
L 180.532818 157.23072 
L 181.183429 155.90016 
L 181.834039 155.90016 
L 182.484649 154.5696 
L 183.13526 158.56128 
L 185.087091 158.56128 
L 185.737701 157.23072 
L 187.038921 157.23072 
L 187.689532 158.56128 
L 188.340142 157.23072 
L 188.990752 158.56128 
L 189.641363 153.23904 
L 190.291973 150.57792 
L 190.942583 154.5696 
L 191.593194 157.23072 
L 192.243804 157.23072 
L 192.894414 158.56128 
L 193.545025 157.23072 
L 196.798076 157.23072 
L 197.448686 158.56128 
L 198.749907 158.56128 
L 199.400517 157.23072 
L 200.051128 157.23072 
L 200.701738 158.56128 
L 202.002959 158.56128 
L 202.653569 157.23072 
L 203.304179 157.23072 
L 203.95479 158.56128 
L 204.6054 157.23072 
L 205.25601 158.56128 
L 205.906621 158.56128 
L 206.557231 155.90016 
L 207.207841 155.90016 
L 207.858451 158.56128 
L 208.509062 158.56128 
L 209.159672 157.23072 
L 209.810282 158.56128 
L 210.460893 157.23072 
L 211.111503 158.56128 
L 211.762113 157.23072 
L 212.412724 157.23072 
L 213.063334 155.90016 
L 213.713944 155.90016 
L 214.364555 157.23072 
L 216.316385 157.23072 
L 216.966996 155.90016 
L 217.617606 155.90016 
L 218.268216 157.23072 
L 218.918827 157.23072 
L 219.569437 158.56128 
L 220.220047 157.23072 
L 220.870658 157.23072 
L 221.521268 158.56128 
L 222.171878 157.23072 
L 222.822489 158.56128 
L 223.473099 158.56128 
L 224.77432 155.90016 
L 225.42493 158.56128 
L 226.72615 158.56128 
L 227.376761 157.23072 
L 228.027371 157.23072 
L 228.677981 155.90016 
L 229.328592 155.90016 
L 229.979202 158.56128 
L 232.581643 158.56128 
L 233.882864 155.90016 
L 235.184085 158.56128 
L 235.834695 158.56128 
L 236.485305 157.23072 
L 237.135915 154.5696 
L 237.786526 155.90016 
L 238.437136 158.56128 
L 241.039577 158.56128 
L 241.690188 157.23072 
L 242.340798 158.56128 
L 242.991408 158.56128 
L 244.292629 155.90016 
L 244.943239 158.56128 
L 246.89507 158.56128 
L 247.54568 157.23072 
L 249.497511 157.23072 
L 250.148122 158.56128 
L 250.798732 158.56128 
L 251.449342 157.23072 
L 252.099953 157.23072 
L 252.750563 158.56128 
L 254.702394 158.56128 
L 255.353004 157.23072 
L 256.003615 158.56128 
L 257.955445 158.56128 
L 258.606056 154.5696 
L 259.256666 153.23904 
L 259.907276 157.23072 
L 260.557887 155.90016 
L 261.208497 155.90016 
L 262.509718 158.56128 
L 263.810938 158.56128 
L 264.461549 155.90016 
L 265.762769 158.56128 
L 267.7146 158.56128 
L 268.36521 157.23072 
L 269.015821 157.23072 
L 269.666431 158.56128 
L 272.919483 158.56128 
L 273.570093 155.90016 
L 274.871314 158.56128 
L 275.521924 158.56128 
L 276.172534 157.23072 
L 276.823144 157.23072 
L 277.473755 158.56128 
L 278.124365 158.56128 
L 278.774975 157.23072 
L 279.425586 158.56128 
L 282.028027 158.56128 
L 283.329248 155.90016 
L 283.979858 158.56128 
L 284.630468 157.23072 
L 285.281079 158.56128 
L 286.582299 158.56128 
L 287.232909 157.23072 
L 287.88352 157.23072 
L 288.53413 158.56128 
L 289.18474 155.90016 
L 289.835351 157.23072 
L 290.485961 157.23072 
L 291.136571 158.56128 
L 293.088402 158.56128 
L 293.739013 155.90016 
L 294.389623 158.56128 
L 295.040233 157.23072 
L 295.690844 158.56128 
L 296.992064 158.56128 
L 297.642674 157.23072 
L 298.293285 157.23072 
L 298.943895 158.56128 
L 299.594505 157.23072 
L 300.245116 157.23072 
L 300.895726 158.56128 
L 301.546336 157.23072 
L 302.196947 158.56128 
L 314.558543 158.56128 
L 315.209153 157.23072 
L 315.859763 158.56128 
L 318.462204 158.56128 
L 319.112815 157.23072 
L 319.763425 158.56128 
L 323.016477 158.56128 
L 323.667087 157.23072 
L 324.317697 158.56128 
L 324.968308 157.23072 
L 325.618918 158.56128 
L 326.269528 158.56128 
L 326.920138 157.23072 
L 327.570749 157.23072 
L 328.221359 158.56128 
L 336.028683 158.56128 
L 336.679293 155.90016 
L 337.329903 158.56128 
L 341.884176 158.56128 
L 342.534786 157.23072 
L 343.185396 158.56128 
L 347.089058 158.56128 
L 347.739668 157.23072 
L 348.390279 158.56128 
L 366.607367 158.56128 
L 367.257978 157.23072 
L 367.908588 158.56128 
L 382.872625 158.56128 
L 383.523236 155.90016 
L 384.173846 158.56128 
L 391.330559 158.56128 
L 391.98117 157.23072 
L 392.63178 158.56128 
L 395.884831 158.56128 
L 396.535442 157.23072 
L 397.186052 158.56128 
L 398.487273 158.56128 
L 398.487273 158.56128 
" style="fill:none;stroke:#1f77b4;stroke-linecap:square;stroke-width:1.5;"/>
   </g>
   <g id="line2d_32">
    <path clip-path="url(#pd7aaa510fd)" d="M 79.586194 -1 
L 79.68822 4.21632 
L 80.989441 20.18304 
L 81.640051 32.15808 
L 82.290661 38.81088 
L 82.941272 48.1248 
L 83.591882 52.11648 
L 84.242492 52.11648 
L 84.893103 26.83584 
L 85.543713 53.44704 
L 86.844934 61.4304 
L 87.495544 62.76096 
L 88.146154 60.09984 
L 88.796764 60.09984 
L 89.447375 64.09152 
L 90.097985 76.06656 
L 91.399206 92.03328 
L 92.049816 86.71104 
L 92.700426 102.67776 
L 93.351037 113.32224 
L 94.001647 104.00832 
L 94.652257 117.31392 
L 95.302868 122.63616 
L 95.953478 117.31392 
L 96.604088 130.61952 
L 97.254698 130.61952 
L 97.905309 127.9584 
L 98.555919 129.28896 
L 99.206529 135.94176 
L 99.85714 137.27232 
L 100.50775 130.61952 
L 101.15836 135.94176 
L 101.808971 134.6112 
L 102.459581 137.27232 
L 103.760802 131.95008 
L 104.411412 134.6112 
L 105.062022 138.60288 
L 105.712633 134.6112 
L 106.363243 135.94176 
L 107.013853 138.60288 
L 107.664463 142.59456 
L 108.315074 138.60288 
L 108.965684 137.27232 
L 109.616294 143.92512 
L 110.266905 146.58624 
L 110.917515 147.9168 
L 111.568125 129.28896 
L 112.218736 150.57792 
L 112.869346 146.58624 
L 113.519956 149.24736 
L 114.170567 150.57792 
L 115.471787 147.9168 
L 116.122398 150.57792 
L 116.773008 151.90848 
L 118.074228 151.90848 
L 118.724839 126.62784 
L 119.375449 150.57792 
L 120.026059 150.57792 
L 120.67667 149.24736 
L 121.32728 150.57792 
L 121.97789 153.23904 
L 122.628501 151.90848 
L 123.279111 149.24736 
L 123.929721 127.9584 
L 124.580332 147.9168 
L 125.230942 153.23904 
L 125.881552 150.57792 
L 126.532163 141.264 
L 127.182773 149.24736 
L 127.833383 153.23904 
L 128.483993 154.5696 
L 129.134604 146.58624 
L 129.785214 149.24736 
L 131.086435 151.90848 
L 131.737045 150.57792 
L 132.387655 153.23904 
L 133.038266 151.90848 
L 133.688876 153.23904 
L 134.339486 153.23904 
L 134.990097 151.90848 
L 135.640707 151.90848 
L 136.291317 153.23904 
L 137.592538 150.57792 
L 138.243148 147.9168 
L 138.893758 153.23904 
L 139.544369 147.9168 
L 140.194979 145.25568 
L 140.845589 151.90848 
L 141.4962 153.23904 
L 142.79742 153.23904 
L 143.448031 150.57792 
L 144.098641 154.5696 
L 144.749251 139.93344 
L 145.399862 153.23904 
L 146.050472 154.5696 
L 147.351692 154.5696 
L 148.002303 151.90848 
L 149.303523 154.5696 
L 149.954134 151.90848 
L 150.604744 151.90848 
L 151.255354 153.23904 
L 153.207185 153.23904 
L 153.857796 151.90848 
L 154.508406 153.23904 
L 155.159016 153.23904 
L 155.809627 154.5696 
L 156.460237 151.90848 
L 157.761457 154.5696 
L 159.062678 151.90848 
L 160.363899 154.5696 
L 161.014509 154.5696 
L 162.31573 151.90848 
L 162.96634 154.5696 
L 163.61695 154.5696 
L 164.918171 151.90848 
L 165.568781 149.24736 
L 166.219392 153.23904 
L 166.870002 151.90848 
L 167.520612 153.23904 
L 168.171222 150.57792 
L 168.821833 153.23904 
L 169.472443 151.90848 
L 170.123053 154.5696 
L 170.773664 153.23904 
L 171.424274 147.9168 
L 172.074884 153.23904 
L 172.725495 154.5696 
L 173.376105 153.23904 
L 174.026715 154.5696 
L 174.677326 154.5696 
L 175.327936 147.9168 
L 175.978546 154.5696 
L 179.882208 154.5696 
L 180.532818 153.23904 
L 181.183429 154.5696 
L 181.834039 153.23904 
L 182.484649 154.5696 
L 185.737701 154.5696 
L 186.388311 150.57792 
L 187.038921 154.5696 
L 188.990752 154.5696 
L 189.641363 146.58624 
L 190.291973 151.90848 
L 190.942583 154.5696 
L 193.545025 154.5696 
L 194.195635 153.23904 
L 194.846245 153.23904 
L 195.496856 154.5696 
L 200.051128 154.5696 
L 200.701738 155.90016 
L 201.352348 154.5696 
L 203.304179 154.5696 
L 203.95479 153.23904 
L 204.6054 154.5696 
L 205.25601 153.23904 
L 205.906621 154.5696 
L 206.557231 153.23904 
L 207.207841 154.5696 
L 207.858451 154.5696 
L 208.509062 155.90016 
L 209.159672 154.5696 
L 209.810282 155.90016 
L 210.460893 154.5696 
L 211.111503 155.90016 
L 211.762113 154.5696 
L 218.268216 154.5696 
L 218.918827 155.90016 
L 219.569437 155.90016 
L 220.220047 154.5696 
L 220.870658 155.90016 
L 221.521268 155.90016 
L 222.171878 154.5696 
L 222.822489 155.90016 
L 223.473099 155.90016 
L 224.123709 154.5696 
L 224.77432 151.90848 
L 225.42493 154.5696 
L 226.07554 154.5696 
L 226.72615 155.90016 
L 228.027371 155.90016 
L 228.677981 154.5696 
L 229.328592 155.90016 
L 229.979202 154.5696 
L 230.629812 155.90016 
L 231.280423 154.5696 
L 231.931033 155.90016 
L 232.581643 154.5696 
L 233.882864 154.5696 
L 234.533474 155.90016 
L 235.834695 155.90016 
L 236.485305 153.23904 
L 237.135915 154.5696 
L 237.786526 154.5696 
L 238.437136 155.90016 
L 239.087746 155.90016 
L 239.738357 154.5696 
L 240.388967 155.90016 
L 241.039577 154.5696 
L 241.690188 155.90016 
L 242.340798 154.5696 
L 242.991408 154.5696 
L 243.642019 153.23904 
L 244.943239 155.90016 
L 246.89507 155.90016 
L 247.54568 153.23904 
L 248.846901 155.90016 
L 249.497511 154.5696 
L 250.148122 155.90016 
L 250.798732 155.90016 
L 251.449342 154.5696 
L 252.099953 154.5696 
L 252.750563 155.90016 
L 253.401173 154.5696 
L 254.051784 155.90016 
L 254.702394 154.5696 
L 257.955445 154.5696 
L 259.256666 151.90848 
L 259.907276 154.5696 
L 267.06399 154.5696 
L 267.7146 155.90016 
L 268.36521 154.5696 
L 269.015821 155.90016 
L 270.317041 155.90016 
L 270.967652 154.5696 
L 271.618262 154.5696 
L 272.268872 155.90016 
L 272.919483 155.90016 
L 273.570093 154.5696 
L 274.220703 154.5696 
L 274.871314 155.90016 
L 275.521924 155.90016 
L 276.172534 154.5696 
L 280.076196 154.5696 
L 280.726806 155.90016 
L 281.377417 154.5696 
L 282.028027 155.90016 
L 282.678637 154.5696 
L 283.329248 154.5696 
L 283.979858 153.23904 
L 284.630468 154.5696 
L 290.485961 154.5696 
L 291.136571 155.90016 
L 291.787182 154.5696 
L 292.437792 154.5696 
L 293.088402 149.24736 
L 293.739013 154.5696 
L 294.389623 151.90848 
L 295.040233 154.5696 
L 296.992064 154.5696 
L 297.642674 153.23904 
L 298.293285 154.5696 
L 301.546336 154.5696 
L 302.196947 153.23904 
L 302.847557 154.5696 
L 304.799388 154.5696 
L 305.449998 153.23904 
L 306.100608 154.5696 
L 306.751219 153.23904 
L 307.401829 154.5696 
L 308.70305 154.5696 
L 309.35366 153.23904 
L 310.00427 153.23904 
L 310.654881 154.5696 
L 313.907932 154.5696 
L 314.558543 153.23904 
L 315.209153 154.5696 
L 316.510373 154.5696 
L 317.160984 151.90848 
L 317.811594 154.5696 
L 318.462204 154.5696 
L 319.112815 153.23904 
L 319.763425 154.5696 
L 321.715256 154.5696 
L 322.365866 153.23904 
L 323.016477 154.5696 
L 323.667087 154.5696 
L 324.317697 153.23904 
L 325.618918 153.23904 
L 326.269528 151.90848 
L 326.920138 153.23904 
L 327.570749 151.90848 
L 328.221359 154.5696 
L 328.871969 149.24736 
L 329.52258 154.5696 
L 330.17319 153.23904 
L 331.474411 153.23904 
L 332.125021 154.5696 
L 333.426242 151.90848 
L 334.076852 154.5696 
L 334.727462 151.90848 
L 335.378073 151.90848 
L 336.028683 154.5696 
L 336.679293 154.5696 
L 337.329903 150.57792 
L 337.980514 153.23904 
L 339.281734 153.23904 
L 339.932345 154.5696 
L 340.582955 153.23904 
L 341.884176 155.90016 
L 342.534786 154.5696 
L 343.185396 155.90016 
L 343.836007 153.23904 
L 344.486617 151.90848 
L 345.137227 153.23904 
L 345.787837 151.90848 
L 346.438448 154.5696 
L 347.089058 153.23904 
L 347.739668 153.23904 
L 348.390279 151.90848 
L 349.040889 153.23904 
L 351.64333 153.23904 
L 352.293941 151.90848 
L 352.944551 151.90848 
L 353.595161 154.5696 
L 354.245772 151.90848 
L 355.546992 149.24736 
L 356.197602 154.5696 
L 356.848213 150.57792 
L 357.498823 151.90848 
L 358.149433 150.57792 
L 358.800044 147.9168 
L 359.450654 151.90848 
L 360.101264 153.23904 
L 360.751875 151.90848 
L 361.402485 153.23904 
L 362.053095 151.90848 
L 362.703706 151.90848 
L 363.354316 153.23904 
L 364.004926 155.90016 
L 364.655537 154.5696 
L 365.306147 151.90848 
L 367.257978 151.90848 
L 368.559198 154.5696 
L 369.860419 151.90848 
L 371.16164 151.90848 
L 371.81225 153.23904 
L 372.46286 153.23904 
L 373.113471 151.90848 
L 374.414691 151.90848 
L 375.065302 153.23904 
L 375.715912 151.90848 
L 377.017132 154.5696 
L 378.318353 151.90848 
L 378.968963 153.23904 
L 379.619574 151.90848 
L 380.270184 151.90848 
L 380.920794 153.23904 
L 381.571405 153.23904 
L 382.222015 151.90848 
L 382.872625 151.90848 
L 383.523236 150.57792 
L 384.173846 151.90848 
L 384.824456 150.57792 
L 385.475066 153.23904 
L 386.125677 153.23904 
L 386.776287 151.90848 
L 388.077508 151.90848 
L 388.728118 155.90016 
L 389.378728 151.90848 
L 390.029339 151.90848 
L 390.679949 150.57792 
L 391.330559 155.90016 
L 391.98117 151.90848 
L 392.63178 153.23904 
L 393.28239 151.90848 
L 393.933001 146.58624 
L 394.583611 151.90848 
L 395.234221 153.23904 
L 396.535442 150.57792 
L 397.186052 151.90848 
L 397.836662 151.90848 
L 398.487273 150.57792 
L 398.487273 150.57792 
" style="fill:none;stroke:#ff7f0e;stroke-linecap:square;stroke-width:1.5;"/>
   </g>
   <g id="patch_3">
    <path d="M 57.6 307.584 
L 57.6 41.472 
" style="fill:none;stroke:#000000;stroke-linecap:square;stroke-linejoin:miter;stroke-width:0.8;"/>
   </g>
   <g id="patch_4">
    <path d="M 414.72 307.584 
L 414.72 41.472 
" style="fill:none;stroke:#000000;stroke-linecap:square;stroke-linejoin:miter;stroke-width:0.8;"/>
   </g>
   <g id="patch_5">
    <path d="M 57.6 307.584 
L 414.72 307.584 
" style="fill:none;stroke:#000000;stroke-linecap:square;stroke-linejoin:miter;stroke-width:0.8;"/>
   </g>
   <g id="patch_6">
    <path d="M 57.6 41.472 
L 414.72 41.472 
" style="fill:none;stroke:#000000;stroke-linecap:square;stroke-linejoin:miter;stroke-width:0.8;"/>
   </g>
   <g id="legend_1">
    <g id="patch_7">
     <path d="M 350.279375 78.82825 
L 407.72 78.82825 
Q 409.72 78.82825 409.72 76.82825 
L 409.72 48.472 
Q 409.72 46.472 407.72 46.472 
L 350.279375 46.472 
Q 348.279375 46.472 348.279375 48.472 
L 348.279375 76.82825 
Q 348.279375 78.82825 350.279375 78.82825 
z
" style="fill:#ffffff;opacity:0.8;stroke:#cccccc;stroke-linejoin:miter;"/>
    </g>
    <g id="line2d_33">
     <path d="M 352.279375 54.570437 
L 372.279375 54.570437 
" style="fill:none;stroke:#1f77b4;stroke-linecap:square;stroke-width:1.5;"/>
    </g>
    <g id="line2d_34"/>
    <g id="text_18">
     <!-- Train -->
     <defs>
      <path d="M -0.296875 72.90625 
L 61.375 72.90625 
L 61.375 64.59375 
L 35.5 64.59375 
L 35.5 0 
L 25.59375 0 
L 25.59375 64.59375 
L -0.296875 64.59375 
z
" id="DejaVuSans-84"/>
      <path d="M 34.28125 27.484375 
Q 23.390625 27.484375 19.1875 25 
Q 14.984375 22.515625 14.984375 16.5 
Q 14.984375 11.71875 18.140625 8.90625 
Q 21.296875 6.109375 26.703125 6.109375 
Q 34.1875 6.109375 38.703125 11.40625 
Q 43.21875 16.703125 43.21875 25.484375 
L 43.21875 27.484375 
z
M 52.203125 31.203125 
L 52.203125 0 
L 43.21875 0 
L 43.21875 8.296875 
Q 40.140625 3.328125 35.546875 0.953125 
Q 30.953125 -1.421875 24.3125 -1.421875 
Q 15.921875 -1.421875 10.953125 3.296875 
Q 6 8.015625 6 15.921875 
Q 6 25.140625 12.171875 29.828125 
Q 18.359375 34.515625 30.609375 34.515625 
L 43.21875 34.515625 
L 43.21875 35.40625 
Q 43.21875 41.609375 39.140625 45 
Q 35.0625 48.390625 27.6875 48.390625 
Q 23 48.390625 18.546875 47.265625 
Q 14.109375 46.140625 10.015625 43.890625 
L 10.015625 52.203125 
Q 14.9375 54.109375 19.578125 55.046875 
Q 24.21875 56 28.609375 56 
Q 40.484375 56 46.34375 49.84375 
Q 52.203125 43.703125 52.203125 31.203125 
z
" id="DejaVuSans-97"/>
      <path d="M 54.890625 33.015625 
L 54.890625 0 
L 45.90625 0 
L 45.90625 32.71875 
Q 45.90625 40.484375 42.875 44.328125 
Q 39.84375 48.1875 33.796875 48.1875 
Q 26.515625 48.1875 22.3125 43.546875 
Q 18.109375 38.921875 18.109375 30.90625 
L 18.109375 0 
L 9.078125 0 
L 9.078125 54.6875 
L 18.109375 54.6875 
L 18.109375 46.1875 
Q 21.34375 51.125 25.703125 53.5625 
Q 30.078125 56 35.796875 56 
Q 45.21875 56 50.046875 50.171875 
Q 54.890625 44.34375 54.890625 33.015625 
z
" id="DejaVuSans-110"/>
     </defs>
     <g transform="translate(380.279375 58.070437)scale(0.1 -0.1)">
      <use xlink:href="#DejaVuSans-84"/>
      <use x="60.865234" xlink:href="#DejaVuSans-114"/>
      <use x="101.978516" xlink:href="#DejaVuSans-97"/>
      <use x="163.257812" xlink:href="#DejaVuSans-105"/>
      <use x="191.041016" xlink:href="#DejaVuSans-110"/>
     </g>
    </g>
    <g id="line2d_35">
     <path d="M 352.279375 69.248562 
L 372.279375 69.248562 
" style="fill:none;stroke:#ff7f0e;stroke-linecap:square;stroke-width:1.5;"/>
    </g>
    <g id="line2d_36"/>
    <g id="text_19">
     <!-- Valid -->
     <defs>
      <path d="M 28.609375 0 
L 0.78125 72.90625 
L 11.078125 72.90625 
L 34.1875 11.53125 
L 57.328125 72.90625 
L 67.578125 72.90625 
L 39.796875 0 
z
" id="DejaVuSans-86"/>
      <path d="M 45.40625 46.390625 
L 45.40625 75.984375 
L 54.390625 75.984375 
L 54.390625 0 
L 45.40625 0 
L 45.40625 8.203125 
Q 42.578125 3.328125 38.25 0.953125 
Q 33.9375 -1.421875 27.875 -1.421875 
Q 17.96875 -1.421875 11.734375 6.484375 
Q 5.515625 14.40625 5.515625 27.296875 
Q 5.515625 40.1875 11.734375 48.09375 
Q 17.96875 56 27.875 56 
Q 33.9375 56 38.25 53.625 
Q 42.578125 51.265625 45.40625 46.390625 
z
M 14.796875 27.296875 
Q 14.796875 17.390625 18.875 11.75 
Q 22.953125 6.109375 30.078125 6.109375 
Q 37.203125 6.109375 41.296875 11.75 
Q 45.40625 17.390625 45.40625 27.296875 
Q 45.40625 37.203125 41.296875 42.84375 
Q 37.203125 48.484375 30.078125 48.484375 
Q 22.953125 48.484375 18.875 42.84375 
Q 14.796875 37.203125 14.796875 27.296875 
z
" id="DejaVuSans-100"/>
     </defs>
     <g transform="translate(380.279375 72.748562)scale(0.1 -0.1)">
      <use xlink:href="#DejaVuSans-86"/>
      <use x="68.298828" xlink:href="#DejaVuSans-97"/>
      <use x="129.578125" xlink:href="#DejaVuSans-108"/>
      <use x="157.361328" xlink:href="#DejaVuSans-105"/>
      <use x="185.144531" xlink:href="#DejaVuSans-100"/>
     </g>
    </g>
   </g>
  </g>
 </g>
 <defs>
  <clipPath id="pd7aaa510fd">
   <rect height="266.112" width="357.12" x="57.6" y="41.472"/>
  </clipPath>
 </defs>
</svg>
