<?xml version="1.0" encoding="utf-8" standalone="no"?>
<!DOCTYPE svg PUBLIC "-//W3C//DTD SVG 1.1//EN"
  "http://www.w3.org/Graphics/SVG/1.1/DTD/svg11.dtd">
<!-- Created with matplotlib (https://matplotlib.org/) -->
<svg height="345.6pt" version="1.1" viewBox="0 0 460.8 345.6" width="460.8pt" xmlns="http://www.w3.org/2000/svg" xmlns:xlink="http://www.w3.org/1999/xlink">
 <defs>
  <style type="text/css">
*{stroke-linecap:butt;stroke-linejoin:round;}
  </style>
 </defs>
 <g id="figure_1">
  <g id="patch_1">
   <path d="M 0 345.6 
L 460.8 345.6 
L 460.8 0 
L 0 0 
z
" style="fill:#ffffff;"/>
  </g>
  <g id="axes_1">
   <g id="patch_2">
    <path d="M 57.6 307.584 
L 414.72 307.584 
L 414.72 41.472 
L 57.6 41.472 
z
" style="fill:#ffffff;"/>
   </g>
   <g id="matplotlib.axis_1">
    <g id="xtick_1">
     <g id="line2d_1">
      <path clip-path="url(#p9905cb776a)" d="M 73.182117 307.584 
L 73.182117 41.472 
" style="fill:none;stroke:#b0b0b0;stroke-linecap:square;stroke-width:0.8;"/>
     </g>
     <g id="line2d_2">
      <defs>
       <path d="M 0 0 
L 0 3.5 
" id="m6dc6a0db0a" style="stroke:#000000;stroke-width:0.8;"/>
      </defs>
      <g>
       <use style="stroke:#000000;stroke-width:0.8;" x="73.182117" xlink:href="#m6dc6a0db0a" y="307.584"/>
      </g>
     </g>
     <g id="text_1">
      <!-- 0 -->
      <defs>
       <path d="M 31.78125 66.40625 
Q 24.171875 66.40625 20.328125 58.90625 
Q 16.5 51.421875 16.5 36.375 
Q 16.5 21.390625 20.328125 13.890625 
Q 24.171875 6.390625 31.78125 6.390625 
Q 39.453125 6.390625 43.28125 13.890625 
Q 47.125 21.390625 47.125 36.375 
Q 47.125 51.421875 43.28125 58.90625 
Q 39.453125 66.40625 31.78125 66.40625 
z
M 31.78125 74.21875 
Q 44.046875 74.21875 50.515625 64.515625 
Q 56.984375 54.828125 56.984375 36.375 
Q 56.984375 17.96875 50.515625 8.265625 
Q 44.046875 -1.421875 31.78125 -1.421875 
Q 19.53125 -1.421875 13.0625 8.265625 
Q 6.59375 17.96875 6.59375 36.375 
Q 6.59375 54.828125 13.0625 64.515625 
Q 19.53125 74.21875 31.78125 74.21875 
z
" id="DejaVuSans-48"/>
      </defs>
      <g transform="translate(70.000867 322.182437)scale(0.1 -0.1)">
       <use xlink:href="#DejaVuSans-48"/>
      </g>
     </g>
    </g>
    <g id="xtick_2">
     <g id="line2d_3">
      <path clip-path="url(#p9905cb776a)" d="M 138.243148 307.584 
L 138.243148 41.472 
" style="fill:none;stroke:#b0b0b0;stroke-linecap:square;stroke-width:0.8;"/>
     </g>
     <g id="line2d_4">
      <g>
       <use style="stroke:#000000;stroke-width:0.8;" x="138.243148" xlink:href="#m6dc6a0db0a" y="307.584"/>
      </g>
     </g>
     <g id="text_2">
      <!-- 100 -->
      <defs>
       <path d="M 12.40625 8.296875 
L 28.515625 8.296875 
L 28.515625 63.921875 
L 10.984375 60.40625 
L 10.984375 69.390625 
L 28.421875 72.90625 
L 38.28125 72.90625 
L 38.28125 8.296875 
L 54.390625 8.296875 
L 54.390625 0 
L 12.40625 0 
z
" id="DejaVuSans-49"/>
      </defs>
      <g transform="translate(128.699398 322.182437)scale(0.1 -0.1)">
       <use xlink:href="#DejaVuSans-49"/>
       <use x="63.623047" xlink:href="#DejaVuSans-48"/>
       <use x="127.246094" xlink:href="#DejaVuSans-48"/>
      </g>
     </g>
    </g>
    <g id="xtick_3">
     <g id="line2d_5">
      <path clip-path="url(#p9905cb776a)" d="M 203.304179 307.584 
L 203.304179 41.472 
" style="fill:none;stroke:#b0b0b0;stroke-linecap:square;stroke-width:0.8;"/>
     </g>
     <g id="line2d_6">
      <g>
       <use style="stroke:#000000;stroke-width:0.8;" x="203.304179" xlink:href="#m6dc6a0db0a" y="307.584"/>
      </g>
     </g>
     <g id="text_3">
      <!-- 200 -->
      <defs>
       <path d="M 19.1875 8.296875 
L 53.609375 8.296875 
L 53.609375 0 
L 7.328125 0 
L 7.328125 8.296875 
Q 12.9375 14.109375 22.625 23.890625 
Q 32.328125 33.6875 34.8125 36.53125 
Q 39.546875 41.84375 41.421875 45.53125 
Q 43.3125 49.21875 43.3125 52.78125 
Q 43.3125 58.59375 39.234375 62.25 
Q 35.15625 65.921875 28.609375 65.921875 
Q 23.96875 65.921875 18.8125 64.3125 
Q 13.671875 62.703125 7.8125 59.421875 
L 7.8125 69.390625 
Q 13.765625 71.78125 18.9375 73 
Q 24.125 74.21875 28.421875 74.21875 
Q 39.75 74.21875 46.484375 68.546875 
Q 53.21875 62.890625 53.21875 53.421875 
Q 53.21875 48.921875 51.53125 44.890625 
Q 49.859375 40.875 45.40625 35.40625 
Q 44.1875 33.984375 37.640625 27.21875 
Q 31.109375 20.453125 19.1875 8.296875 
z
" id="DejaVuSans-50"/>
      </defs>
      <g transform="translate(193.760429 322.182437)scale(0.1 -0.1)">
       <use xlink:href="#DejaVuSans-50"/>
       <use x="63.623047" xlink:href="#DejaVuSans-48"/>
       <use x="127.246094" xlink:href="#DejaVuSans-48"/>
      </g>
     </g>
    </g>
    <g id="xtick_4">
     <g id="line2d_7">
      <path clip-path="url(#p9905cb776a)" d="M 268.36521 307.584 
L 268.36521 41.472 
" style="fill:none;stroke:#b0b0b0;stroke-linecap:square;stroke-width:0.8;"/>
     </g>
     <g id="line2d_8">
      <g>
       <use style="stroke:#000000;stroke-width:0.8;" x="268.36521" xlink:href="#m6dc6a0db0a" y="307.584"/>
      </g>
     </g>
     <g id="text_4">
      <!-- 300 -->
      <defs>
       <path d="M 40.578125 39.3125 
Q 47.65625 37.796875 51.625 33 
Q 55.609375 28.21875 55.609375 21.1875 
Q 55.609375 10.40625 48.1875 4.484375 
Q 40.765625 -1.421875 27.09375 -1.421875 
Q 22.515625 -1.421875 17.65625 -0.515625 
Q 12.796875 0.390625 7.625 2.203125 
L 7.625 11.71875 
Q 11.71875 9.328125 16.59375 8.109375 
Q 21.484375 6.890625 26.8125 6.890625 
Q 36.078125 6.890625 40.9375 10.546875 
Q 45.796875 14.203125 45.796875 21.1875 
Q 45.796875 27.640625 41.28125 31.265625 
Q 36.765625 34.90625 28.71875 34.90625 
L 20.21875 34.90625 
L 20.21875 43.015625 
L 29.109375 43.015625 
Q 36.375 43.015625 40.234375 45.921875 
Q 44.09375 48.828125 44.09375 54.296875 
Q 44.09375 59.90625 40.109375 62.90625 
Q 36.140625 65.921875 28.71875 65.921875 
Q 24.65625 65.921875 20.015625 65.03125 
Q 15.375 64.15625 9.8125 62.3125 
L 9.8125 71.09375 
Q 15.4375 72.65625 20.34375 73.4375 
Q 25.25 74.21875 29.59375 74.21875 
Q 40.828125 74.21875 47.359375 69.109375 
Q 53.90625 64.015625 53.90625 55.328125 
Q 53.90625 49.265625 50.4375 45.09375 
Q 46.96875 40.921875 40.578125 39.3125 
z
" id="DejaVuSans-51"/>
      </defs>
      <g transform="translate(258.82146 322.182437)scale(0.1 -0.1)">
       <use xlink:href="#DejaVuSans-51"/>
       <use x="63.623047" xlink:href="#DejaVuSans-48"/>
       <use x="127.246094" xlink:href="#DejaVuSans-48"/>
      </g>
     </g>
    </g>
    <g id="xtick_5">
     <g id="line2d_9">
      <path clip-path="url(#p9905cb776a)" d="M 333.426242 307.584 
L 333.426242 41.472 
" style="fill:none;stroke:#b0b0b0;stroke-linecap:square;stroke-width:0.8;"/>
     </g>
     <g id="line2d_10">
      <g>
       <use style="stroke:#000000;stroke-width:0.8;" x="333.426242" xlink:href="#m6dc6a0db0a" y="307.584"/>
      </g>
     </g>
     <g id="text_5">
      <!-- 400 -->
      <defs>
       <path d="M 37.796875 64.3125 
L 12.890625 25.390625 
L 37.796875 25.390625 
z
M 35.203125 72.90625 
L 47.609375 72.90625 
L 47.609375 25.390625 
L 58.015625 25.390625 
L 58.015625 17.1875 
L 47.609375 17.1875 
L 47.609375 0 
L 37.796875 0 
L 37.796875 17.1875 
L 4.890625 17.1875 
L 4.890625 26.703125 
z
" id="DejaVuSans-52"/>
      </defs>
      <g transform="translate(323.882492 322.182437)scale(0.1 -0.1)">
       <use xlink:href="#DejaVuSans-52"/>
       <use x="63.623047" xlink:href="#DejaVuSans-48"/>
       <use x="127.246094" xlink:href="#DejaVuSans-48"/>
      </g>
     </g>
    </g>
    <g id="xtick_6">
     <g id="line2d_11">
      <path clip-path="url(#p9905cb776a)" d="M 398.487273 307.584 
L 398.487273 41.472 
" style="fill:none;stroke:#b0b0b0;stroke-linecap:square;stroke-width:0.8;"/>
     </g>
     <g id="line2d_12">
      <g>
       <use style="stroke:#000000;stroke-width:0.8;" x="398.487273" xlink:href="#m6dc6a0db0a" y="307.584"/>
      </g>
     </g>
     <g id="text_6">
      <!-- 500 -->
      <defs>
       <path d="M 10.796875 72.90625 
L 49.515625 72.90625 
L 49.515625 64.59375 
L 19.828125 64.59375 
L 19.828125 46.734375 
Q 21.96875 47.46875 24.109375 47.828125 
Q 26.265625 48.1875 28.421875 48.1875 
Q 40.625 48.1875 47.75 41.5 
Q 54.890625 34.8125 54.890625 23.390625 
Q 54.890625 11.625 47.5625 5.09375 
Q 40.234375 -1.421875 26.90625 -1.421875 
Q 22.3125 -1.421875 17.546875 -0.640625 
Q 12.796875 0.140625 7.71875 1.703125 
L 7.71875 11.625 
Q 12.109375 9.234375 16.796875 8.0625 
Q 21.484375 6.890625 26.703125 6.890625 
Q 35.15625 6.890625 40.078125 11.328125 
Q 45.015625 15.765625 45.015625 23.390625 
Q 45.015625 31 40.078125 35.4375 
Q 35.15625 39.890625 26.703125 39.890625 
Q 22.75 39.890625 18.8125 39.015625 
Q 14.890625 38.140625 10.796875 36.28125 
z
" id="DejaVuSans-53"/>
      </defs>
      <g transform="translate(388.943523 322.182437)scale(0.1 -0.1)">
       <use xlink:href="#DejaVuSans-53"/>
       <use x="63.623047" xlink:href="#DejaVuSans-48"/>
       <use x="127.246094" xlink:href="#DejaVuSans-48"/>
      </g>
     </g>
    </g>
    <g id="text_7">
     <!-- Epoch -->
     <defs>
      <path d="M 9.8125 72.90625 
L 55.90625 72.90625 
L 55.90625 64.59375 
L 19.671875 64.59375 
L 19.671875 43.015625 
L 54.390625 43.015625 
L 54.390625 34.71875 
L 19.671875 34.71875 
L 19.671875 8.296875 
L 56.78125 8.296875 
L 56.78125 0 
L 9.8125 0 
z
" id="DejaVuSans-69"/>
      <path d="M 18.109375 8.203125 
L 18.109375 -20.796875 
L 9.078125 -20.796875 
L 9.078125 54.6875 
L 18.109375 54.6875 
L 18.109375 46.390625 
Q 20.953125 51.265625 25.265625 53.625 
Q 29.59375 56 35.59375 56 
Q 45.5625 56 51.78125 48.09375 
Q 58.015625 40.1875 58.015625 27.296875 
Q 58.015625 14.40625 51.78125 6.484375 
Q 45.5625 -1.421875 35.59375 -1.421875 
Q 29.59375 -1.421875 25.265625 0.953125 
Q 20.953125 3.328125 18.109375 8.203125 
z
M 48.6875 27.296875 
Q 48.6875 37.203125 44.609375 42.84375 
Q 40.53125 48.484375 33.40625 48.484375 
Q 26.265625 48.484375 22.1875 42.84375 
Q 18.109375 37.203125 18.109375 27.296875 
Q 18.109375 17.390625 22.1875 11.75 
Q 26.265625 6.109375 33.40625 6.109375 
Q 40.53125 6.109375 44.609375 11.75 
Q 48.6875 17.390625 48.6875 27.296875 
z
" id="DejaVuSans-112"/>
      <path d="M 30.609375 48.390625 
Q 23.390625 48.390625 19.1875 42.75 
Q 14.984375 37.109375 14.984375 27.296875 
Q 14.984375 17.484375 19.15625 11.84375 
Q 23.34375 6.203125 30.609375 6.203125 
Q 37.796875 6.203125 41.984375 11.859375 
Q 46.1875 17.53125 46.1875 27.296875 
Q 46.1875 37.015625 41.984375 42.703125 
Q 37.796875 48.390625 30.609375 48.390625 
z
M 30.609375 56 
Q 42.328125 56 49.015625 48.375 
Q 55.71875 40.765625 55.71875 27.296875 
Q 55.71875 13.875 49.015625 6.21875 
Q 42.328125 -1.421875 30.609375 -1.421875 
Q 18.84375 -1.421875 12.171875 6.21875 
Q 5.515625 13.875 5.515625 27.296875 
Q 5.515625 40.765625 12.171875 48.375 
Q 18.84375 56 30.609375 56 
z
" id="DejaVuSans-111"/>
      <path d="M 48.78125 52.59375 
L 48.78125 44.1875 
Q 44.96875 46.296875 41.140625 47.34375 
Q 37.3125 48.390625 33.40625 48.390625 
Q 24.65625 48.390625 19.8125 42.84375 
Q 14.984375 37.3125 14.984375 27.296875 
Q 14.984375 17.28125 19.8125 11.734375 
Q 24.65625 6.203125 33.40625 6.203125 
Q 37.3125 6.203125 41.140625 7.25 
Q 44.96875 8.296875 48.78125 10.40625 
L 48.78125 2.09375 
Q 45.015625 0.34375 40.984375 -0.53125 
Q 36.96875 -1.421875 32.421875 -1.421875 
Q 20.0625 -1.421875 12.78125 6.34375 
Q 5.515625 14.109375 5.515625 27.296875 
Q 5.515625 40.671875 12.859375 48.328125 
Q 20.21875 56 33.015625 56 
Q 37.15625 56 41.109375 55.140625 
Q 45.0625 54.296875 48.78125 52.59375 
z
" id="DejaVuSans-99"/>
      <path d="M 54.890625 33.015625 
L 54.890625 0 
L 45.90625 0 
L 45.90625 32.71875 
Q 45.90625 40.484375 42.875 44.328125 
Q 39.84375 48.1875 33.796875 48.1875 
Q 26.515625 48.1875 22.3125 43.546875 
Q 18.109375 38.921875 18.109375 30.90625 
L 18.109375 0 
L 9.078125 0 
L 9.078125 75.984375 
L 18.109375 75.984375 
L 18.109375 46.1875 
Q 21.34375 51.125 25.703125 53.5625 
Q 30.078125 56 35.796875 56 
Q 45.21875 56 50.046875 50.171875 
Q 54.890625 44.34375 54.890625 33.015625 
z
" id="DejaVuSans-104"/>
     </defs>
     <g transform="translate(220.849063 335.860562)scale(0.1 -0.1)">
      <use xlink:href="#DejaVuSans-69"/>
      <use x="63.183594" xlink:href="#DejaVuSans-112"/>
      <use x="126.660156" xlink:href="#DejaVuSans-111"/>
      <use x="187.841797" xlink:href="#DejaVuSans-99"/>
      <use x="242.822266" xlink:href="#DejaVuSans-104"/>
     </g>
    </g>
   </g>
   <g id="matplotlib.axis_2">
    <g id="ytick_1">
     <g id="line2d_13">
      <path clip-path="url(#p9905cb776a)" d="M 57.6 307.584 
L 414.72 307.584 
" style="fill:none;stroke:#b0b0b0;stroke-linecap:square;stroke-width:0.8;"/>
     </g>
     <g id="line2d_14">
      <defs>
       <path d="M 0 0 
L -3.5 0 
" id="m3dc5f9c6da" style="stroke:#000000;stroke-width:0.8;"/>
      </defs>
      <g>
       <use style="stroke:#000000;stroke-width:0.8;" x="57.6" xlink:href="#m3dc5f9c6da" y="307.584"/>
      </g>
     </g>
     <g id="text_8">
      <!-- 0.0 -->
      <defs>
       <path d="M 10.6875 12.40625 
L 21 12.40625 
L 21 0 
L 10.6875 0 
z
" id="DejaVuSans-46"/>
      </defs>
      <g transform="translate(34.696875 311.383219)scale(0.1 -0.1)">
       <use xlink:href="#DejaVuSans-48"/>
       <use x="63.623047" xlink:href="#DejaVuSans-46"/>
       <use x="95.410156" xlink:href="#DejaVuSans-48"/>
      </g>
     </g>
    </g>
    <g id="ytick_2">
     <g id="line2d_15">
      <path clip-path="url(#p9905cb776a)" d="M 57.6 274.32 
L 414.72 274.32 
" style="fill:none;stroke:#b0b0b0;stroke-linecap:square;stroke-width:0.8;"/>
     </g>
     <g id="line2d_16">
      <g>
       <use style="stroke:#000000;stroke-width:0.8;" x="57.6" xlink:href="#m3dc5f9c6da" y="274.32"/>
      </g>
     </g>
     <g id="text_9">
      <!-- 0.5 -->
      <g transform="translate(34.696875 278.119219)scale(0.1 -0.1)">
       <use xlink:href="#DejaVuSans-48"/>
       <use x="63.623047" xlink:href="#DejaVuSans-46"/>
       <use x="95.410156" xlink:href="#DejaVuSans-53"/>
      </g>
     </g>
    </g>
    <g id="ytick_3">
     <g id="line2d_17">
      <path clip-path="url(#p9905cb776a)" d="M 57.6 241.056 
L 414.72 241.056 
" style="fill:none;stroke:#b0b0b0;stroke-linecap:square;stroke-width:0.8;"/>
     </g>
     <g id="line2d_18">
      <g>
       <use style="stroke:#000000;stroke-width:0.8;" x="57.6" xlink:href="#m3dc5f9c6da" y="241.056"/>
      </g>
     </g>
     <g id="text_10">
      <!-- 1.0 -->
      <g transform="translate(34.696875 244.855219)scale(0.1 -0.1)">
       <use xlink:href="#DejaVuSans-49"/>
       <use x="63.623047" xlink:href="#DejaVuSans-46"/>
       <use x="95.410156" xlink:href="#DejaVuSans-48"/>
      </g>
     </g>
    </g>
    <g id="ytick_4">
     <g id="line2d_19">
      <path clip-path="url(#p9905cb776a)" d="M 57.6 207.792 
L 414.72 207.792 
" style="fill:none;stroke:#b0b0b0;stroke-linecap:square;stroke-width:0.8;"/>
     </g>
     <g id="line2d_20">
      <g>
       <use style="stroke:#000000;stroke-width:0.8;" x="57.6" xlink:href="#m3dc5f9c6da" y="207.792"/>
      </g>
     </g>
     <g id="text_11">
      <!-- 1.5 -->
      <g transform="translate(34.696875 211.591219)scale(0.1 -0.1)">
       <use xlink:href="#DejaVuSans-49"/>
       <use x="63.623047" xlink:href="#DejaVuSans-46"/>
       <use x="95.410156" xlink:href="#DejaVuSans-53"/>
      </g>
     </g>
    </g>
    <g id="ytick_5">
     <g id="line2d_21">
      <path clip-path="url(#p9905cb776a)" d="M 57.6 174.528 
L 414.72 174.528 
" style="fill:none;stroke:#b0b0b0;stroke-linecap:square;stroke-width:0.8;"/>
     </g>
     <g id="line2d_22">
      <g>
       <use style="stroke:#000000;stroke-width:0.8;" x="57.6" xlink:href="#m3dc5f9c6da" y="174.528"/>
      </g>
     </g>
     <g id="text_12">
      <!-- 2.0 -->
      <g transform="translate(34.696875 178.327219)scale(0.1 -0.1)">
       <use xlink:href="#DejaVuSans-50"/>
       <use x="63.623047" xlink:href="#DejaVuSans-46"/>
       <use x="95.410156" xlink:href="#DejaVuSans-48"/>
      </g>
     </g>
    </g>
    <g id="ytick_6">
     <g id="line2d_23">
      <path clip-path="url(#p9905cb776a)" d="M 57.6 141.264 
L 414.72 141.264 
" style="fill:none;stroke:#b0b0b0;stroke-linecap:square;stroke-width:0.8;"/>
     </g>
     <g id="line2d_24">
      <g>
       <use style="stroke:#000000;stroke-width:0.8;" x="57.6" xlink:href="#m3dc5f9c6da" y="141.264"/>
      </g>
     </g>
     <g id="text_13">
      <!-- 2.5 -->
      <g transform="translate(34.696875 145.063219)scale(0.1 -0.1)">
       <use xlink:href="#DejaVuSans-50"/>
       <use x="63.623047" xlink:href="#DejaVuSans-46"/>
       <use x="95.410156" xlink:href="#DejaVuSans-53"/>
      </g>
     </g>
    </g>
    <g id="ytick_7">
     <g id="line2d_25">
      <path clip-path="url(#p9905cb776a)" d="M 57.6 108 
L 414.72 108 
" style="fill:none;stroke:#b0b0b0;stroke-linecap:square;stroke-width:0.8;"/>
     </g>
     <g id="line2d_26">
      <g>
       <use style="stroke:#000000;stroke-width:0.8;" x="57.6" xlink:href="#m3dc5f9c6da" y="108"/>
      </g>
     </g>
     <g id="text_14">
      <!-- 3.0 -->
      <g transform="translate(34.696875 111.799219)scale(0.1 -0.1)">
       <use xlink:href="#DejaVuSans-51"/>
       <use x="63.623047" xlink:href="#DejaVuSans-46"/>
       <use x="95.410156" xlink:href="#DejaVuSans-48"/>
      </g>
     </g>
    </g>
    <g id="ytick_8">
     <g id="line2d_27">
      <path clip-path="url(#p9905cb776a)" d="M 57.6 74.736 
L 414.72 74.736 
" style="fill:none;stroke:#b0b0b0;stroke-linecap:square;stroke-width:0.8;"/>
     </g>
     <g id="line2d_28">
      <g>
       <use style="stroke:#000000;stroke-width:0.8;" x="57.6" xlink:href="#m3dc5f9c6da" y="74.736"/>
      </g>
     </g>
     <g id="text_15">
      <!-- 3.5 -->
      <g transform="translate(34.696875 78.535219)scale(0.1 -0.1)">
       <use xlink:href="#DejaVuSans-51"/>
       <use x="63.623047" xlink:href="#DejaVuSans-46"/>
       <use x="95.410156" xlink:href="#DejaVuSans-53"/>
      </g>
     </g>
    </g>
    <g id="ytick_9">
     <g id="line2d_29">
      <path clip-path="url(#p9905cb776a)" d="M 57.6 41.472 
L 414.72 41.472 
" style="fill:none;stroke:#b0b0b0;stroke-linecap:square;stroke-width:0.8;"/>
     </g>
     <g id="line2d_30">
      <g>
       <use style="stroke:#000000;stroke-width:0.8;" x="57.6" xlink:href="#m3dc5f9c6da" y="41.472"/>
      </g>
     </g>
     <g id="text_16">
      <!-- 4.0 -->
      <g transform="translate(34.696875 45.271219)scale(0.1 -0.1)">
       <use xlink:href="#DejaVuSans-52"/>
       <use x="63.623047" xlink:href="#DejaVuSans-46"/>
       <use x="95.410156" xlink:href="#DejaVuSans-48"/>
      </g>
     </g>
    </g>
    <g id="text_17">
     <!-- Perplexity -->
     <defs>
      <path d="M 19.671875 64.796875 
L 19.671875 37.40625 
L 32.078125 37.40625 
Q 38.96875 37.40625 42.71875 40.96875 
Q 46.484375 44.53125 46.484375 51.125 
Q 46.484375 57.671875 42.71875 61.234375 
Q 38.96875 64.796875 32.078125 64.796875 
z
M 9.8125 72.90625 
L 32.078125 72.90625 
Q 44.34375 72.90625 50.609375 67.359375 
Q 56.890625 61.8125 56.890625 51.125 
Q 56.890625 40.328125 50.609375 34.8125 
Q 44.34375 29.296875 32.078125 29.296875 
L 19.671875 29.296875 
L 19.671875 0 
L 9.8125 0 
z
" id="DejaVuSans-80"/>
      <path d="M 56.203125 29.59375 
L 56.203125 25.203125 
L 14.890625 25.203125 
Q 15.484375 15.921875 20.484375 11.0625 
Q 25.484375 6.203125 34.421875 6.203125 
Q 39.59375 6.203125 44.453125 7.46875 
Q 49.3125 8.734375 54.109375 11.28125 
L 54.109375 2.78125 
Q 49.265625 0.734375 44.1875 -0.34375 
Q 39.109375 -1.421875 33.890625 -1.421875 
Q 20.796875 -1.421875 13.15625 6.1875 
Q 5.515625 13.8125 5.515625 26.8125 
Q 5.515625 40.234375 12.765625 48.109375 
Q 20.015625 56 32.328125 56 
Q 43.359375 56 49.78125 48.890625 
Q 56.203125 41.796875 56.203125 29.59375 
z
M 47.21875 32.234375 
Q 47.125 39.59375 43.09375 43.984375 
Q 39.0625 48.390625 32.421875 48.390625 
Q 24.90625 48.390625 20.390625 44.140625 
Q 15.875 39.890625 15.1875 32.171875 
z
" id="DejaVuSans-101"/>
      <path d="M 41.109375 46.296875 
Q 39.59375 47.171875 37.8125 47.578125 
Q 36.03125 48 33.890625 48 
Q 26.265625 48 22.1875 43.046875 
Q 18.109375 38.09375 18.109375 28.8125 
L 18.109375 0 
L 9.078125 0 
L 9.078125 54.6875 
L 18.109375 54.6875 
L 18.109375 46.1875 
Q 20.953125 51.171875 25.484375 53.578125 
Q 30.03125 56 36.53125 56 
Q 37.453125 56 38.578125 55.875 
Q 39.703125 55.765625 41.0625 55.515625 
z
" id="DejaVuSans-114"/>
      <path d="M 9.421875 75.984375 
L 18.40625 75.984375 
L 18.40625 0 
L 9.421875 0 
z
" id="DejaVuSans-108"/>
      <path d="M 54.890625 54.6875 
L 35.109375 28.078125 
L 55.90625 0 
L 45.3125 0 
L 29.390625 21.484375 
L 13.484375 0 
L 2.875 0 
L 24.125 28.609375 
L 4.6875 54.6875 
L 15.28125 54.6875 
L 29.78125 35.203125 
L 44.28125 54.6875 
z
" id="DejaVuSans-120"/>
      <path d="M 9.421875 54.6875 
L 18.40625 54.6875 
L 18.40625 0 
L 9.421875 0 
z
M 9.421875 75.984375 
L 18.40625 75.984375 
L 18.40625 64.59375 
L 9.421875 64.59375 
z
" id="DejaVuSans-105"/>
      <path d="M 18.3125 70.21875 
L 18.3125 54.6875 
L 36.8125 54.6875 
L 36.8125 47.703125 
L 18.3125 47.703125 
L 18.3125 18.015625 
Q 18.3125 11.328125 20.140625 9.421875 
Q 21.96875 7.515625 27.59375 7.515625 
L 36.8125 7.515625 
L 36.8125 0 
L 27.59375 0 
Q 17.1875 0 13.234375 3.875 
Q 9.28125 7.765625 9.28125 18.015625 
L 9.28125 47.703125 
L 2.6875 47.703125 
L 2.6875 54.6875 
L 9.28125 54.6875 
L 9.28125 70.21875 
z
" id="DejaVuSans-116"/>
      <path d="M 32.171875 -5.078125 
Q 28.375 -14.84375 24.75 -17.8125 
Q 21.140625 -20.796875 15.09375 -20.796875 
L 7.90625 -20.796875 
L 7.90625 -13.28125 
L 13.1875 -13.28125 
Q 16.890625 -13.28125 18.9375 -11.515625 
Q 21 -9.765625 23.484375 -3.21875 
L 25.09375 0.875 
L 2.984375 54.6875 
L 12.5 54.6875 
L 29.59375 11.921875 
L 46.6875 54.6875 
L 56.203125 54.6875 
z
" id="DejaVuSans-121"/>
     </defs>
     <g transform="translate(28.617187 199.579563)rotate(-90)scale(0.1 -0.1)">
      <use xlink:href="#DejaVuSans-80"/>
      <use x="60.255859" xlink:href="#DejaVuSans-101"/>
      <use x="121.779297" xlink:href="#DejaVuSans-114"/>
      <use x="162.892578" xlink:href="#DejaVuSans-112"/>
      <use x="226.369141" xlink:href="#DejaVuSans-108"/>
      <use x="254.152344" xlink:href="#DejaVuSans-101"/>
      <use x="315.660156" xlink:href="#DejaVuSans-120"/>
      <use x="374.839844" xlink:href="#DejaVuSans-105"/>
      <use x="402.623047" xlink:href="#DejaVuSans-116"/>
      <use x="441.832031" xlink:href="#DejaVuSans-121"/>
     </g>
    </g>
   </g>
   <g id="line2d_31">
    <path clip-path="url(#p9905cb776a)" d="M 97.713089 -1 
L 97.905309 1.5552 
L 98.555919 4.8816 
L 99.206529 20.84832 
L 100.50775 43.46784 
L 105.712633 108 
L 107.013853 115.98336 
L 107.664463 127.29312 
L 108.965684 139.93344 
L 109.616294 143.25984 
L 110.266905 148.58208 
L 110.917515 152.57376 
L 111.568125 159.22656 
L 112.869346 164.5488 
L 113.519956 170.53632 
L 114.170567 173.86272 
L 114.821177 175.85856 
L 115.471787 182.51136 
L 116.122398 184.5072 
L 116.773008 187.8336 
L 118.724839 195.81696 
L 119.375449 197.8128 
L 120.026059 196.48224 
L 120.67667 194.4864 
L 121.32728 203.13504 
L 121.97789 205.79616 
L 122.628501 207.792 
L 123.279111 209.12256 
L 124.580332 213.11424 
L 125.230942 214.4448 
L 125.881552 213.11424 
L 126.532163 214.4448 
L 127.182773 213.77952 
L 127.833383 217.7712 
L 128.483993 218.43648 
L 129.134604 219.76704 
L 129.785214 220.43232 
L 130.435824 220.43232 
L 131.086435 221.76288 
L 131.737045 222.42816 
L 132.387655 223.75872 
L 133.038266 223.09344 
L 133.688876 223.09344 
L 134.339486 221.0976 
L 134.990097 223.75872 
L 135.640707 225.75456 
L 136.291317 225.08928 
L 136.941927 226.41984 
L 137.592538 223.09344 
L 138.243148 223.75872 
L 138.893758 226.41984 
L 139.544369 227.08512 
L 140.194979 227.08512 
L 140.845589 227.7504 
L 142.14681 227.7504 
L 142.79742 226.41984 
L 143.448031 227.08512 
L 144.098641 227.08512 
L 144.749251 223.09344 
L 145.399862 226.41984 
L 146.050472 227.7504 
L 147.351692 229.08096 
L 148.002303 229.08096 
L 148.652913 228.41568 
L 149.303523 229.08096 
L 151.255354 229.08096 
L 151.905965 225.75456 
L 152.556575 225.75456 
L 153.207185 229.08096 
L 153.857796 229.08096 
L 154.508406 229.74624 
L 155.159016 229.08096 
L 155.809627 226.41984 
L 156.460237 229.08096 
L 157.110847 230.41152 
L 157.761457 229.74624 
L 158.412068 229.74624 
L 159.062678 228.41568 
L 160.363899 228.41568 
L 161.014509 229.08096 
L 161.665119 230.41152 
L 163.61695 230.41152 
L 164.267561 229.74624 
L 165.568781 229.74624 
L 166.219392 230.41152 
L 166.870002 229.74624 
L 168.171222 229.74624 
L 168.821833 230.41152 
L 169.472443 229.74624 
L 170.123053 230.41152 
L 171.424274 229.08096 
L 172.074884 230.41152 
L 175.327936 230.41152 
L 175.978546 229.74624 
L 176.629156 230.41152 
L 177.279767 230.41152 
L 177.930377 231.0768 
L 178.580987 231.0768 
L 179.231598 230.41152 
L 181.183429 230.41152 
L 181.834039 231.0768 
L 182.484649 231.0768 
L 183.13526 230.41152 
L 184.43648 230.41152 
L 185.087091 231.0768 
L 186.388311 231.0768 
L 187.038921 230.41152 
L 187.689532 230.41152 
L 188.340142 231.0768 
L 188.990752 230.41152 
L 189.641363 231.0768 
L 190.291973 231.0768 
L 191.593194 229.74624 
L 192.894414 231.0768 
L 194.195635 231.0768 
L 194.846245 231.74208 
L 195.496856 231.0768 
L 200.051128 231.0768 
L 200.701738 230.41152 
L 202.002959 231.74208 
L 202.653569 231.0768 
L 203.304179 231.74208 
L 211.762113 231.74208 
L 212.412724 231.0768 
L 213.063334 231.74208 
L 213.713944 231.74208 
L 214.364555 230.41152 
L 215.015165 231.0768 
L 215.665775 231.0768 
L 216.316385 231.74208 
L 216.966996 231.74208 
L 217.617606 232.40736 
L 219.569437 232.40736 
L 220.220047 231.74208 
L 223.473099 231.74208 
L 224.123709 232.40736 
L 224.77432 231.74208 
L 225.42493 232.40736 
L 226.07554 232.40736 
L 226.72615 231.74208 
L 227.376761 231.74208 
L 228.027371 232.40736 
L 228.677981 232.40736 
L 229.328592 231.74208 
L 229.979202 232.40736 
L 230.629812 232.40736 
L 231.280423 231.74208 
L 232.581643 231.74208 
L 233.232254 232.40736 
L 233.882864 231.74208 
L 235.184085 231.74208 
L 235.834695 232.40736 
L 237.786526 232.40736 
L 238.437136 231.74208 
L 239.087746 232.40736 
L 255.353004 232.40736 
L 256.003615 231.74208 
L 256.654225 232.40736 
L 279.425586 232.40736 
L 280.076196 233.07264 
L 280.726806 232.40736 
L 291.136571 232.40736 
L 291.787182 233.07264 
L 292.437792 232.40736 
L 296.341454 232.40736 
L 296.992064 233.07264 
L 297.642674 233.07264 
L 298.293285 232.40736 
L 300.245116 232.40736 
L 300.895726 233.07264 
L 301.546336 232.40736 
L 304.148778 232.40736 
L 304.799388 233.07264 
L 307.401829 233.07264 
L 308.052439 232.40736 
L 310.00427 232.40736 
L 310.654881 233.07264 
L 311.956101 233.07264 
L 312.606712 232.40736 
L 313.257322 233.07264 
L 313.907932 232.40736 
L 314.558543 232.40736 
L 315.209153 233.07264 
L 316.510373 233.07264 
L 317.160984 232.40736 
L 317.811594 232.40736 
L 318.462204 233.07264 
L 321.715256 233.07264 
L 322.365866 232.40736 
L 323.016477 232.40736 
L 323.667087 233.07264 
L 330.8238 233.07264 
L 331.474411 232.40736 
L 332.125021 233.07264 
L 334.076852 233.07264 
L 334.727462 232.40736 
L 335.378073 232.40736 
L 336.028683 233.07264 
L 341.233565 233.07264 
L 341.884176 232.40736 
L 342.534786 233.07264 
L 344.486617 233.07264 
L 345.137227 232.40736 
L 345.787837 233.07264 
L 356.197602 233.07264 
L 356.848213 232.40736 
L 357.498823 233.07264 
L 363.354316 233.07264 
L 364.004926 232.40736 
L 364.655537 233.07264 
L 385.475066 233.07264 
L 386.125677 232.40736 
L 386.776287 233.07264 
L 398.487273 233.07264 
L 398.487273 233.07264 
" style="fill:none;stroke:#1f77b4;stroke-linecap:square;stroke-width:1.5;"/>
   </g>
   <g id="line2d_32">
    <path clip-path="url(#p9905cb776a)" d="M 100.239261 -1 
L 100.50775 4.21632 
L 101.15836 1.5552 
L 101.808971 8.87328 
L 102.459581 24.17472 
L 103.110191 26.17056 
L 103.760802 29.49696 
L 104.411412 31.4928 
L 105.062022 40.14144 
L 105.712633 37.48032 
L 106.363243 42.13728 
L 107.013853 49.45536 
L 107.664463 52.78176 
L 108.315074 61.4304 
L 108.965684 61.4304 
L 109.616294 60.76512 
L 110.266905 66.75264 
L 110.917515 69.41376 
L 111.568125 74.736 
L 112.218736 69.41376 
L 112.869346 80.72352 
L 113.519956 81.3888 
L 114.170567 80.72352 
L 114.821177 84.04992 
L 116.122398 85.38048 
L 116.773008 89.37216 
L 117.423618 84.7152 
L 118.074228 88.70688 
L 118.724839 83.38464 
L 119.375449 92.03328 
L 120.026059 82.05408 
L 120.67667 94.02912 
L 121.32728 92.03328 
L 121.97789 94.6944 
L 122.628501 88.0416 
L 123.279111 96.02496 
L 123.929721 94.02912 
L 124.580332 94.6944 
L 125.230942 90.70272 
L 125.881552 90.70272 
L 126.532163 84.04992 
L 127.182773 95.35968 
L 127.833383 93.36384 
L 128.483993 92.03328 
L 129.134604 94.6944 
L 129.785214 92.69856 
L 130.435824 95.35968 
L 131.086435 93.36384 
L 131.737045 92.03328 
L 132.387655 88.70688 
L 133.038266 90.03744 
L 133.688876 90.03744 
L 134.339486 95.35968 
L 134.990097 91.368 
L 135.640707 92.03328 
L 136.291317 88.0416 
L 136.941927 90.70272 
L 137.592538 90.70272 
L 138.243148 95.35968 
L 138.893758 82.05408 
L 139.544369 92.03328 
L 140.845589 89.37216 
L 141.4962 94.02912 
L 142.14681 92.69856 
L 142.79742 79.39296 
L 143.448031 93.36384 
L 144.098641 69.41376 
L 144.749251 93.36384 
L 145.399862 92.69856 
L 146.050472 88.0416 
L 146.701082 90.70272 
L 147.351692 90.70272 
L 148.002303 100.68192 
L 148.652913 92.69856 
L 149.303523 88.0416 
L 149.954134 93.36384 
L 150.604744 90.03744 
L 151.255354 93.36384 
L 151.905965 87.37632 
L 152.556575 95.35968 
L 153.207185 90.70272 
L 153.857796 96.02496 
L 155.159016 90.70272 
L 155.809627 90.70272 
L 156.460237 96.02496 
L 157.110847 91.368 
L 157.761457 91.368 
L 158.412068 95.35968 
L 159.062678 81.3888 
L 159.713288 82.05408 
L 160.363899 88.70688 
L 161.014509 92.03328 
L 161.665119 88.70688 
L 162.31573 93.36384 
L 162.96634 88.0416 
L 163.61695 91.368 
L 164.267561 93.36384 
L 164.918171 90.70272 
L 165.568781 86.04576 
L 166.219392 89.37216 
L 166.870002 84.04992 
L 167.520612 90.03744 
L 168.171222 98.68608 
L 168.821833 84.04992 
L 169.472443 92.69856 
L 170.123053 88.0416 
L 170.773664 92.03328 
L 171.424274 93.36384 
L 172.074884 99.35136 
L 172.725495 86.71104 
L 173.376105 96.69024 
L 174.026715 94.02912 
L 174.677326 96.02496 
L 175.327936 96.02496 
L 175.978546 94.02912 
L 176.629156 85.38048 
L 177.279767 84.7152 
L 177.930377 92.03328 
L 178.580987 94.6944 
L 179.231598 98.0208 
L 179.882208 92.03328 
L 180.532818 84.04992 
L 181.183429 96.69024 
L 181.834039 96.02496 
L 182.484649 97.35552 
L 183.13526 87.37632 
L 183.78587 98.68608 
L 184.43648 90.03744 
L 185.087091 86.04576 
L 185.737701 93.36384 
L 186.388311 92.03328 
L 187.038921 77.39712 
L 187.689532 96.02496 
L 188.340142 96.02496 
L 188.990752 94.6944 
L 189.641363 82.71936 
L 190.291973 86.71104 
L 190.942583 94.6944 
L 191.593194 94.6944 
L 192.243804 91.368 
L 192.894414 84.04992 
L 193.545025 91.368 
L 194.195635 87.37632 
L 194.846245 89.37216 
L 195.496856 92.69856 
L 196.147466 86.71104 
L 196.798076 86.71104 
L 197.448686 82.05408 
L 198.099297 90.70272 
L 198.749907 94.02912 
L 199.400517 84.04992 
L 200.051128 80.05824 
L 200.701738 92.03328 
L 202.002959 82.05408 
L 202.653569 86.04576 
L 203.304179 82.05408 
L 203.95479 85.38048 
L 204.6054 81.3888 
L 205.25601 83.38464 
L 205.906621 92.03328 
L 206.557231 86.04576 
L 207.858451 90.03744 
L 208.509062 89.37216 
L 209.159672 87.37632 
L 209.810282 88.0416 
L 210.460893 87.37632 
L 211.111503 90.70272 
L 211.762113 83.38464 
L 212.412724 88.0416 
L 213.063334 86.04576 
L 213.713944 82.71936 
L 214.364555 83.38464 
L 215.015165 85.38048 
L 215.665775 76.73184 
L 216.316385 86.04576 
L 216.966996 88.0416 
L 217.617606 80.05824 
L 218.268216 83.38464 
L 218.918827 80.05824 
L 219.569437 86.71104 
L 220.220047 83.38464 
L 220.870658 76.06656 
L 221.521268 82.05408 
L 222.171878 72.74016 
L 222.822489 80.72352 
L 223.473099 84.04992 
L 224.123709 82.05408 
L 224.77432 87.37632 
L 225.42493 77.39712 
L 226.07554 82.71936 
L 227.376761 82.71936 
L 228.027371 86.04576 
L 228.677981 77.39712 
L 229.328592 83.38464 
L 229.979202 84.7152 
L 230.629812 80.72352 
L 231.280423 80.05824 
L 231.931033 87.37632 
L 232.581643 86.04576 
L 233.232254 85.38048 
L 233.882864 80.05824 
L 234.533474 76.73184 
L 235.184085 83.38464 
L 235.834695 76.06656 
L 236.485305 86.04576 
L 237.135915 80.05824 
L 237.786526 75.40128 
L 238.437136 74.07072 
L 239.087746 80.05824 
L 239.738357 78.0624 
L 240.388967 82.05408 
L 241.039577 87.37632 
L 241.690188 77.39712 
L 242.340798 77.39712 
L 242.991408 82.05408 
L 243.642019 84.04992 
L 244.292629 87.37632 
L 244.943239 84.7152 
L 245.59385 78.0624 
L 246.24446 82.05408 
L 246.89507 74.736 
L 247.54568 75.40128 
L 248.196291 84.04992 
L 248.846901 78.0624 
L 249.497511 77.39712 
L 250.148122 87.37632 
L 250.798732 88.70688 
L 251.449342 92.03328 
L 252.099953 90.70272 
L 253.401173 79.39296 
L 254.051784 76.73184 
L 254.702394 84.04992 
L 255.353004 76.06656 
L 256.003615 80.05824 
L 256.654225 71.4096 
L 257.304835 77.39712 
L 257.955445 77.39712 
L 258.606056 81.3888 
L 259.256666 71.4096 
L 259.907276 78.0624 
L 260.557887 76.06656 
L 261.208497 74.736 
L 261.859107 76.73184 
L 263.160328 84.04992 
L 263.810938 84.04992 
L 264.461549 86.71104 
L 265.112159 81.3888 
L 265.762769 86.71104 
L 266.413379 86.71104 
L 267.06399 77.39712 
L 267.7146 70.07904 
L 268.36521 80.05824 
L 269.666431 74.736 
L 270.317041 86.04576 
L 270.967652 82.05408 
L 271.618262 80.05824 
L 272.268872 84.04992 
L 272.919483 78.72768 
L 273.570093 76.06656 
L 274.220703 76.73184 
L 274.871314 69.41376 
L 275.521924 78.0624 
L 276.172534 80.05824 
L 276.823144 81.3888 
L 277.473755 74.07072 
L 278.124365 76.73184 
L 278.774975 78.0624 
L 279.425586 70.74432 
L 280.076196 78.0624 
L 280.726806 78.72768 
L 281.377417 74.736 
L 282.028027 67.41792 
L 282.678637 72.74016 
L 283.329248 72.07488 
L 283.979858 77.39712 
L 284.630468 77.39712 
L 285.281079 76.06656 
L 285.931689 79.39296 
L 286.582299 80.72352 
L 287.88352 71.4096 
L 288.53413 73.40544 
L 289.18474 82.71936 
L 289.835351 71.4096 
L 290.485961 66.08736 
L 291.136571 75.40128 
L 291.787182 59.43456 
L 292.437792 76.06656 
L 293.088402 75.40128 
L 293.739013 80.72352 
L 294.389623 64.09152 
L 295.040233 66.75264 
L 295.690844 68.0832 
L 296.341454 73.40544 
L 296.992064 63.42624 
L 297.642674 71.4096 
L 298.293285 69.41376 
L 298.943895 70.74432 
L 299.594505 74.07072 
L 300.245116 70.74432 
L 300.895726 80.72352 
L 301.546336 84.7152 
L 302.196947 74.07072 
L 302.847557 74.07072 
L 303.498167 69.41376 
L 304.148778 70.07904 
L 304.799388 73.40544 
L 305.449998 72.74016 
L 306.100608 76.06656 
L 306.751219 73.40544 
L 307.401829 66.75264 
L 308.052439 76.06656 
L 308.70305 78.0624 
L 309.35366 65.42208 
L 310.00427 65.42208 
L 310.654881 76.73184 
L 311.305491 75.40128 
L 311.956101 77.39712 
L 312.606712 72.74016 
L 313.257322 64.09152 
L 313.907932 70.74432 
L 315.209153 85.38048 
L 315.859763 75.40128 
L 316.510373 74.07072 
L 317.160984 78.0624 
L 317.811594 75.40128 
L 318.462204 80.05824 
L 319.112815 82.71936 
L 319.763425 82.71936 
L 320.414035 81.3888 
L 321.064646 77.39712 
L 321.715256 64.09152 
L 322.365866 66.08736 
L 323.016477 79.39296 
L 323.667087 76.06656 
L 324.317697 75.40128 
L 324.968308 79.39296 
L 325.618918 84.7152 
L 326.269528 81.3888 
L 326.920138 78.72768 
L 327.570749 82.05408 
L 328.221359 80.72352 
L 328.871969 77.39712 
L 329.52258 82.05408 
L 330.17319 79.39296 
L 330.8238 70.74432 
L 331.474411 78.72768 
L 332.125021 72.07488 
L 332.775631 80.72352 
L 333.426242 78.0624 
L 334.076852 71.4096 
L 334.727462 76.06656 
L 335.378073 73.40544 
L 336.028683 72.74016 
L 336.679293 73.40544 
L 337.329903 72.74016 
L 339.281734 74.736 
L 339.932345 70.07904 
L 341.233565 72.74016 
L 341.884176 71.4096 
L 342.534786 69.41376 
L 343.185396 68.74848 
L 343.836007 69.41376 
L 344.486617 73.40544 
L 345.137227 70.07904 
L 345.787837 65.42208 
L 346.438448 71.4096 
L 347.089058 74.07072 
L 347.739668 68.74848 
L 348.390279 72.74016 
L 349.040889 66.08736 
L 349.691499 64.7568 
L 350.34211 71.4096 
L 350.99272 76.06656 
L 351.64333 75.40128 
L 352.293941 72.07488 
L 352.944551 74.736 
L 354.245772 67.41792 
L 354.896382 69.41376 
L 355.546992 75.40128 
L 356.197602 72.74016 
L 356.848213 69.41376 
L 357.498823 68.0832 
L 358.149433 65.42208 
L 358.800044 67.41792 
L 360.101264 76.06656 
L 360.751875 69.41376 
L 361.402485 74.736 
L 362.053095 68.0832 
L 362.703706 70.07904 
L 363.354316 68.74848 
L 364.004926 71.4096 
L 364.655537 76.06656 
L 365.306147 78.72768 
L 365.956757 80.05824 
L 366.607367 67.41792 
L 367.257978 78.0624 
L 368.559198 68.74848 
L 369.209809 77.39712 
L 369.860419 76.06656 
L 370.511029 66.75264 
L 371.16164 72.74016 
L 371.81225 66.08736 
L 372.46286 75.40128 
L 373.113471 64.7568 
L 373.764081 69.41376 
L 374.414691 70.07904 
L 375.065302 71.4096 
L 375.715912 66.75264 
L 376.366522 60.09984 
L 377.017132 73.40544 
L 377.667743 67.41792 
L 378.968963 64.7568 
L 379.619574 56.77344 
L 380.270184 55.44288 
L 380.920794 59.43456 
L 381.571405 58.76928 
L 382.222015 66.75264 
L 382.872625 63.42624 
L 383.523236 58.104 
L 384.173846 60.76512 
L 384.824456 62.76096 
L 385.475066 50.78592 
L 386.125677 67.41792 
L 386.776287 70.74432 
L 387.426897 63.42624 
L 388.077508 60.09984 
L 388.728118 52.78176 
L 389.378728 55.44288 
L 390.029339 60.76512 
L 390.679949 61.4304 
L 391.330559 65.42208 
L 391.98117 68.0832 
L 392.63178 64.09152 
L 393.28239 54.7776 
L 393.933001 66.08736 
L 394.583611 69.41376 
L 395.234221 69.41376 
L 395.884831 74.07072 
L 396.535442 72.74016 
L 397.836662 56.77344 
L 398.487273 66.08736 
L 398.487273 66.08736 
" style="fill:none;stroke:#ff7f0e;stroke-linecap:square;stroke-width:1.5;"/>
   </g>
   <g id="patch_3">
    <path d="M 57.6 307.584 
L 57.6 41.472 
" style="fill:none;stroke:#000000;stroke-linecap:square;stroke-linejoin:miter;stroke-width:0.8;"/>
   </g>
   <g id="patch_4">
    <path d="M 414.72 307.584 
L 414.72 41.472 
" style="fill:none;stroke:#000000;stroke-linecap:square;stroke-linejoin:miter;stroke-width:0.8;"/>
   </g>
   <g id="patch_5">
    <path d="M 57.6 307.584 
L 414.72 307.584 
" style="fill:none;stroke:#000000;stroke-linecap:square;stroke-linejoin:miter;stroke-width:0.8;"/>
   </g>
   <g id="patch_6">
    <path d="M 57.6 41.472 
L 414.72 41.472 
" style="fill:none;stroke:#000000;stroke-linecap:square;stroke-linejoin:miter;stroke-width:0.8;"/>
   </g>
   <g id="legend_1">
    <g id="patch_7">
     <path d="M 64.6 302.584 
L 122.040625 302.584 
Q 124.040625 302.584 124.040625 300.584 
L 124.040625 272.22775 
Q 124.040625 270.22775 122.040625 270.22775 
L 64.6 270.22775 
Q 62.6 270.22775 62.6 272.22775 
L 62.6 300.584 
Q 62.6 302.584 64.6 302.584 
z
" style="fill:#ffffff;opacity:0.8;stroke:#cccccc;stroke-linejoin:miter;"/>
    </g>
    <g id="line2d_33">
     <path d="M 66.6 278.326187 
L 86.6 278.326187 
" style="fill:none;stroke:#1f77b4;stroke-linecap:square;stroke-width:1.5;"/>
    </g>
    <g id="line2d_34"/>
    <g id="text_18">
     <!-- Train -->
     <defs>
      <path d="M -0.296875 72.90625 
L 61.375 72.90625 
L 61.375 64.59375 
L 35.5 64.59375 
L 35.5 0 
L 25.59375 0 
L 25.59375 64.59375 
L -0.296875 64.59375 
z
" id="DejaVuSans-84"/>
      <path d="M 34.28125 27.484375 
Q 23.390625 27.484375 19.1875 25 
Q 14.984375 22.515625 14.984375 16.5 
Q 14.984375 11.71875 18.140625 8.90625 
Q 21.296875 6.109375 26.703125 6.109375 
Q 34.1875 6.109375 38.703125 11.40625 
Q 43.21875 16.703125 43.21875 25.484375 
L 43.21875 27.484375 
z
M 52.203125 31.203125 
L 52.203125 0 
L 43.21875 0 
L 43.21875 8.296875 
Q 40.140625 3.328125 35.546875 0.953125 
Q 30.953125 -1.421875 24.3125 -1.421875 
Q 15.921875 -1.421875 10.953125 3.296875 
Q 6 8.015625 6 15.921875 
Q 6 25.140625 12.171875 29.828125 
Q 18.359375 34.515625 30.609375 34.515625 
L 43.21875 34.515625 
L 43.21875 35.40625 
Q 43.21875 41.609375 39.140625 45 
Q 35.0625 48.390625 27.6875 48.390625 
Q 23 48.390625 18.546875 47.265625 
Q 14.109375 46.140625 10.015625 43.890625 
L 10.015625 52.203125 
Q 14.9375 54.109375 19.578125 55.046875 
Q 24.21875 56 28.609375 56 
Q 40.484375 56 46.34375 49.84375 
Q 52.203125 43.703125 52.203125 31.203125 
z
" id="DejaVuSans-97"/>
      <path d="M 54.890625 33.015625 
L 54.890625 0 
L 45.90625 0 
L 45.90625 32.71875 
Q 45.90625 40.484375 42.875 44.328125 
Q 39.84375 48.1875 33.796875 48.1875 
Q 26.515625 48.1875 22.3125 43.546875 
Q 18.109375 38.921875 18.109375 30.90625 
L 18.109375 0 
L 9.078125 0 
L 9.078125 54.6875 
L 18.109375 54.6875 
L 18.109375 46.1875 
Q 21.34375 51.125 25.703125 53.5625 
Q 30.078125 56 35.796875 56 
Q 45.21875 56 50.046875 50.171875 
Q 54.890625 44.34375 54.890625 33.015625 
z
" id="DejaVuSans-110"/>
     </defs>
     <g transform="translate(94.6 281.826187)scale(0.1 -0.1)">
      <use xlink:href="#DejaVuSans-84"/>
      <use x="60.865234" xlink:href="#DejaVuSans-114"/>
      <use x="101.978516" xlink:href="#DejaVuSans-97"/>
      <use x="163.257812" xlink:href="#DejaVuSans-105"/>
      <use x="191.041016" xlink:href="#DejaVuSans-110"/>
     </g>
    </g>
    <g id="line2d_35">
     <path d="M 66.6 293.004312 
L 86.6 293.004312 
" style="fill:none;stroke:#ff7f0e;stroke-linecap:square;stroke-width:1.5;"/>
    </g>
    <g id="line2d_36"/>
    <g id="text_19">
     <!-- Valid -->
     <defs>
      <path d="M 28.609375 0 
L 0.78125 72.90625 
L 11.078125 72.90625 
L 34.1875 11.53125 
L 57.328125 72.90625 
L 67.578125 72.90625 
L 39.796875 0 
z
" id="DejaVuSans-86"/>
      <path d="M 45.40625 46.390625 
L 45.40625 75.984375 
L 54.390625 75.984375 
L 54.390625 0 
L 45.40625 0 
L 45.40625 8.203125 
Q 42.578125 3.328125 38.25 0.953125 
Q 33.9375 -1.421875 27.875 -1.421875 
Q 17.96875 -1.421875 11.734375 6.484375 
Q 5.515625 14.40625 5.515625 27.296875 
Q 5.515625 40.1875 11.734375 48.09375 
Q 17.96875 56 27.875 56 
Q 33.9375 56 38.25 53.625 
Q 42.578125 51.265625 45.40625 46.390625 
z
M 14.796875 27.296875 
Q 14.796875 17.390625 18.875 11.75 
Q 22.953125 6.109375 30.078125 6.109375 
Q 37.203125 6.109375 41.296875 11.75 
Q 45.40625 17.390625 45.40625 27.296875 
Q 45.40625 37.203125 41.296875 42.84375 
Q 37.203125 48.484375 30.078125 48.484375 
Q 22.953125 48.484375 18.875 42.84375 
Q 14.796875 37.203125 14.796875 27.296875 
z
" id="DejaVuSans-100"/>
     </defs>
     <g transform="translate(94.6 296.504312)scale(0.1 -0.1)">
      <use xlink:href="#DejaVuSans-86"/>
      <use x="68.298828" xlink:href="#DejaVuSans-97"/>
      <use x="129.578125" xlink:href="#DejaVuSans-108"/>
      <use x="157.361328" xlink:href="#DejaVuSans-105"/>
      <use x="185.144531" xlink:href="#DejaVuSans-100"/>
     </g>
    </g>
   </g>
  </g>
 </g>
 <defs>
  <clipPath id="p9905cb776a">
   <rect height="266.112" width="357.12" x="57.6" y="41.472"/>
  </clipPath>
 </defs>
</svg>
