<?xml version="1.0" encoding="utf-8" standalone="no"?>
<!DOCTYPE svg PUBLIC "-//W3C//DTD SVG 1.1//EN"
  "http://www.w3.org/Graphics/SVG/1.1/DTD/svg11.dtd">
<!-- Created with matplotlib (https://matplotlib.org/) -->
<svg height="345.6pt" version="1.1" viewBox="0 0 460.8 345.6" width="460.8pt" xmlns="http://www.w3.org/2000/svg" xmlns:xlink="http://www.w3.org/1999/xlink">
 <defs>
  <style type="text/css">
*{stroke-linecap:butt;stroke-linejoin:round;}
  </style>
 </defs>
 <g id="figure_1">
  <g id="patch_1">
   <path d="M 0 345.6 
L 460.8 345.6 
L 460.8 0 
L 0 0 
z
" style="fill:#ffffff;"/>
  </g>
  <g id="axes_1">
   <g id="patch_2">
    <path d="M 57.6 307.584 
L 414.72 307.584 
L 414.72 41.472 
L 57.6 41.472 
z
" style="fill:#ffffff;"/>
   </g>
   <g id="matplotlib.axis_1">
    <g id="xtick_1">
     <g id="line2d_1">
      <path clip-path="url(#p8607161db5)" d="M 73.182117 307.584 
L 73.182117 41.472 
" style="fill:none;stroke:#b0b0b0;stroke-linecap:square;stroke-width:0.8;"/>
     </g>
     <g id="line2d_2">
      <defs>
       <path d="M 0 0 
L 0 3.5 
" id="m8b5155f985" style="stroke:#000000;stroke-width:0.8;"/>
      </defs>
      <g>
       <use style="stroke:#000000;stroke-width:0.8;" x="73.182117" xlink:href="#m8b5155f985" y="307.584"/>
      </g>
     </g>
     <g id="text_1">
      <!-- 0 -->
      <defs>
       <path d="M 31.78125 66.40625 
Q 24.171875 66.40625 20.328125 58.90625 
Q 16.5 51.421875 16.5 36.375 
Q 16.5 21.390625 20.328125 13.890625 
Q 24.171875 6.390625 31.78125 6.390625 
Q 39.453125 6.390625 43.28125 13.890625 
Q 47.125 21.390625 47.125 36.375 
Q 47.125 51.421875 43.28125 58.90625 
Q 39.453125 66.40625 31.78125 66.40625 
z
M 31.78125 74.21875 
Q 44.046875 74.21875 50.515625 64.515625 
Q 56.984375 54.828125 56.984375 36.375 
Q 56.984375 17.96875 50.515625 8.265625 
Q 44.046875 -1.421875 31.78125 -1.421875 
Q 19.53125 -1.421875 13.0625 8.265625 
Q 6.59375 17.96875 6.59375 36.375 
Q 6.59375 54.828125 13.0625 64.515625 
Q 19.53125 74.21875 31.78125 74.21875 
z
" id="DejaVuSans-48"/>
      </defs>
      <g transform="translate(70.000867 322.182437)scale(0.1 -0.1)">
       <use xlink:href="#DejaVuSans-48"/>
      </g>
     </g>
    </g>
    <g id="xtick_2">
     <g id="line2d_3">
      <path clip-path="url(#p8607161db5)" d="M 138.243148 307.584 
L 138.243148 41.472 
" style="fill:none;stroke:#b0b0b0;stroke-linecap:square;stroke-width:0.8;"/>
     </g>
     <g id="line2d_4">
      <g>
       <use style="stroke:#000000;stroke-width:0.8;" x="138.243148" xlink:href="#m8b5155f985" y="307.584"/>
      </g>
     </g>
     <g id="text_2">
      <!-- 100 -->
      <defs>
       <path d="M 12.40625 8.296875 
L 28.515625 8.296875 
L 28.515625 63.921875 
L 10.984375 60.40625 
L 10.984375 69.390625 
L 28.421875 72.90625 
L 38.28125 72.90625 
L 38.28125 8.296875 
L 54.390625 8.296875 
L 54.390625 0 
L 12.40625 0 
z
" id="DejaVuSans-49"/>
      </defs>
      <g transform="translate(128.699398 322.182437)scale(0.1 -0.1)">
       <use xlink:href="#DejaVuSans-49"/>
       <use x="63.623047" xlink:href="#DejaVuSans-48"/>
       <use x="127.246094" xlink:href="#DejaVuSans-48"/>
      </g>
     </g>
    </g>
    <g id="xtick_3">
     <g id="line2d_5">
      <path clip-path="url(#p8607161db5)" d="M 203.304179 307.584 
L 203.304179 41.472 
" style="fill:none;stroke:#b0b0b0;stroke-linecap:square;stroke-width:0.8;"/>
     </g>
     <g id="line2d_6">
      <g>
       <use style="stroke:#000000;stroke-width:0.8;" x="203.304179" xlink:href="#m8b5155f985" y="307.584"/>
      </g>
     </g>
     <g id="text_3">
      <!-- 200 -->
      <defs>
       <path d="M 19.1875 8.296875 
L 53.609375 8.296875 
L 53.609375 0 
L 7.328125 0 
L 7.328125 8.296875 
Q 12.9375 14.109375 22.625 23.890625 
Q 32.328125 33.6875 34.8125 36.53125 
Q 39.546875 41.84375 41.421875 45.53125 
Q 43.3125 49.21875 43.3125 52.78125 
Q 43.3125 58.59375 39.234375 62.25 
Q 35.15625 65.921875 28.609375 65.921875 
Q 23.96875 65.921875 18.8125 64.3125 
Q 13.671875 62.703125 7.8125 59.421875 
L 7.8125 69.390625 
Q 13.765625 71.78125 18.9375 73 
Q 24.125 74.21875 28.421875 74.21875 
Q 39.75 74.21875 46.484375 68.546875 
Q 53.21875 62.890625 53.21875 53.421875 
Q 53.21875 48.921875 51.53125 44.890625 
Q 49.859375 40.875 45.40625 35.40625 
Q 44.1875 33.984375 37.640625 27.21875 
Q 31.109375 20.453125 19.1875 8.296875 
z
" id="DejaVuSans-50"/>
      </defs>
      <g transform="translate(193.760429 322.182437)scale(0.1 -0.1)">
       <use xlink:href="#DejaVuSans-50"/>
       <use x="63.623047" xlink:href="#DejaVuSans-48"/>
       <use x="127.246094" xlink:href="#DejaVuSans-48"/>
      </g>
     </g>
    </g>
    <g id="xtick_4">
     <g id="line2d_7">
      <path clip-path="url(#p8607161db5)" d="M 268.36521 307.584 
L 268.36521 41.472 
" style="fill:none;stroke:#b0b0b0;stroke-linecap:square;stroke-width:0.8;"/>
     </g>
     <g id="line2d_8">
      <g>
       <use style="stroke:#000000;stroke-width:0.8;" x="268.36521" xlink:href="#m8b5155f985" y="307.584"/>
      </g>
     </g>
     <g id="text_4">
      <!-- 300 -->
      <defs>
       <path d="M 40.578125 39.3125 
Q 47.65625 37.796875 51.625 33 
Q 55.609375 28.21875 55.609375 21.1875 
Q 55.609375 10.40625 48.1875 4.484375 
Q 40.765625 -1.421875 27.09375 -1.421875 
Q 22.515625 -1.421875 17.65625 -0.515625 
Q 12.796875 0.390625 7.625 2.203125 
L 7.625 11.71875 
Q 11.71875 9.328125 16.59375 8.109375 
Q 21.484375 6.890625 26.8125 6.890625 
Q 36.078125 6.890625 40.9375 10.546875 
Q 45.796875 14.203125 45.796875 21.1875 
Q 45.796875 27.640625 41.28125 31.265625 
Q 36.765625 34.90625 28.71875 34.90625 
L 20.21875 34.90625 
L 20.21875 43.015625 
L 29.109375 43.015625 
Q 36.375 43.015625 40.234375 45.921875 
Q 44.09375 48.828125 44.09375 54.296875 
Q 44.09375 59.90625 40.109375 62.90625 
Q 36.140625 65.921875 28.71875 65.921875 
Q 24.65625 65.921875 20.015625 65.03125 
Q 15.375 64.15625 9.8125 62.3125 
L 9.8125 71.09375 
Q 15.4375 72.65625 20.34375 73.4375 
Q 25.25 74.21875 29.59375 74.21875 
Q 40.828125 74.21875 47.359375 69.109375 
Q 53.90625 64.015625 53.90625 55.328125 
Q 53.90625 49.265625 50.4375 45.09375 
Q 46.96875 40.921875 40.578125 39.3125 
z
" id="DejaVuSans-51"/>
      </defs>
      <g transform="translate(258.82146 322.182437)scale(0.1 -0.1)">
       <use xlink:href="#DejaVuSans-51"/>
       <use x="63.623047" xlink:href="#DejaVuSans-48"/>
       <use x="127.246094" xlink:href="#DejaVuSans-48"/>
      </g>
     </g>
    </g>
    <g id="xtick_5">
     <g id="line2d_9">
      <path clip-path="url(#p8607161db5)" d="M 333.426242 307.584 
L 333.426242 41.472 
" style="fill:none;stroke:#b0b0b0;stroke-linecap:square;stroke-width:0.8;"/>
     </g>
     <g id="line2d_10">
      <g>
       <use style="stroke:#000000;stroke-width:0.8;" x="333.426242" xlink:href="#m8b5155f985" y="307.584"/>
      </g>
     </g>
     <g id="text_5">
      <!-- 400 -->
      <defs>
       <path d="M 37.796875 64.3125 
L 12.890625 25.390625 
L 37.796875 25.390625 
z
M 35.203125 72.90625 
L 47.609375 72.90625 
L 47.609375 25.390625 
L 58.015625 25.390625 
L 58.015625 17.1875 
L 47.609375 17.1875 
L 47.609375 0 
L 37.796875 0 
L 37.796875 17.1875 
L 4.890625 17.1875 
L 4.890625 26.703125 
z
" id="DejaVuSans-52"/>
      </defs>
      <g transform="translate(323.882492 322.182437)scale(0.1 -0.1)">
       <use xlink:href="#DejaVuSans-52"/>
       <use x="63.623047" xlink:href="#DejaVuSans-48"/>
       <use x="127.246094" xlink:href="#DejaVuSans-48"/>
      </g>
     </g>
    </g>
    <g id="xtick_6">
     <g id="line2d_11">
      <path clip-path="url(#p8607161db5)" d="M 398.487273 307.584 
L 398.487273 41.472 
" style="fill:none;stroke:#b0b0b0;stroke-linecap:square;stroke-width:0.8;"/>
     </g>
     <g id="line2d_12">
      <g>
       <use style="stroke:#000000;stroke-width:0.8;" x="398.487273" xlink:href="#m8b5155f985" y="307.584"/>
      </g>
     </g>
     <g id="text_6">
      <!-- 500 -->
      <defs>
       <path d="M 10.796875 72.90625 
L 49.515625 72.90625 
L 49.515625 64.59375 
L 19.828125 64.59375 
L 19.828125 46.734375 
Q 21.96875 47.46875 24.109375 47.828125 
Q 26.265625 48.1875 28.421875 48.1875 
Q 40.625 48.1875 47.75 41.5 
Q 54.890625 34.8125 54.890625 23.390625 
Q 54.890625 11.625 47.5625 5.09375 
Q 40.234375 -1.421875 26.90625 -1.421875 
Q 22.3125 -1.421875 17.546875 -0.640625 
Q 12.796875 0.140625 7.71875 1.703125 
L 7.71875 11.625 
Q 12.109375 9.234375 16.796875 8.0625 
Q 21.484375 6.890625 26.703125 6.890625 
Q 35.15625 6.890625 40.078125 11.328125 
Q 45.015625 15.765625 45.015625 23.390625 
Q 45.015625 31 40.078125 35.4375 
Q 35.15625 39.890625 26.703125 39.890625 
Q 22.75 39.890625 18.8125 39.015625 
Q 14.890625 38.140625 10.796875 36.28125 
z
" id="DejaVuSans-53"/>
      </defs>
      <g transform="translate(388.943523 322.182437)scale(0.1 -0.1)">
       <use xlink:href="#DejaVuSans-53"/>
       <use x="63.623047" xlink:href="#DejaVuSans-48"/>
       <use x="127.246094" xlink:href="#DejaVuSans-48"/>
      </g>
     </g>
    </g>
    <g id="text_7">
     <!-- Epoch -->
     <defs>
      <path d="M 9.8125 72.90625 
L 55.90625 72.90625 
L 55.90625 64.59375 
L 19.671875 64.59375 
L 19.671875 43.015625 
L 54.390625 43.015625 
L 54.390625 34.71875 
L 19.671875 34.71875 
L 19.671875 8.296875 
L 56.78125 8.296875 
L 56.78125 0 
L 9.8125 0 
z
" id="DejaVuSans-69"/>
      <path d="M 18.109375 8.203125 
L 18.109375 -20.796875 
L 9.078125 -20.796875 
L 9.078125 54.6875 
L 18.109375 54.6875 
L 18.109375 46.390625 
Q 20.953125 51.265625 25.265625 53.625 
Q 29.59375 56 35.59375 56 
Q 45.5625 56 51.78125 48.09375 
Q 58.015625 40.1875 58.015625 27.296875 
Q 58.015625 14.40625 51.78125 6.484375 
Q 45.5625 -1.421875 35.59375 -1.421875 
Q 29.59375 -1.421875 25.265625 0.953125 
Q 20.953125 3.328125 18.109375 8.203125 
z
M 48.6875 27.296875 
Q 48.6875 37.203125 44.609375 42.84375 
Q 40.53125 48.484375 33.40625 48.484375 
Q 26.265625 48.484375 22.1875 42.84375 
Q 18.109375 37.203125 18.109375 27.296875 
Q 18.109375 17.390625 22.1875 11.75 
Q 26.265625 6.109375 33.40625 6.109375 
Q 40.53125 6.109375 44.609375 11.75 
Q 48.6875 17.390625 48.6875 27.296875 
z
" id="DejaVuSans-112"/>
      <path d="M 30.609375 48.390625 
Q 23.390625 48.390625 19.1875 42.75 
Q 14.984375 37.109375 14.984375 27.296875 
Q 14.984375 17.484375 19.15625 11.84375 
Q 23.34375 6.203125 30.609375 6.203125 
Q 37.796875 6.203125 41.984375 11.859375 
Q 46.1875 17.53125 46.1875 27.296875 
Q 46.1875 37.015625 41.984375 42.703125 
Q 37.796875 48.390625 30.609375 48.390625 
z
M 30.609375 56 
Q 42.328125 56 49.015625 48.375 
Q 55.71875 40.765625 55.71875 27.296875 
Q 55.71875 13.875 49.015625 6.21875 
Q 42.328125 -1.421875 30.609375 -1.421875 
Q 18.84375 -1.421875 12.171875 6.21875 
Q 5.515625 13.875 5.515625 27.296875 
Q 5.515625 40.765625 12.171875 48.375 
Q 18.84375 56 30.609375 56 
z
" id="DejaVuSans-111"/>
      <path d="M 48.78125 52.59375 
L 48.78125 44.1875 
Q 44.96875 46.296875 41.140625 47.34375 
Q 37.3125 48.390625 33.40625 48.390625 
Q 24.65625 48.390625 19.8125 42.84375 
Q 14.984375 37.3125 14.984375 27.296875 
Q 14.984375 17.28125 19.8125 11.734375 
Q 24.65625 6.203125 33.40625 6.203125 
Q 37.3125 6.203125 41.140625 7.25 
Q 44.96875 8.296875 48.78125 10.40625 
L 48.78125 2.09375 
Q 45.015625 0.34375 40.984375 -0.53125 
Q 36.96875 -1.421875 32.421875 -1.421875 
Q 20.0625 -1.421875 12.78125 6.34375 
Q 5.515625 14.109375 5.515625 27.296875 
Q 5.515625 40.671875 12.859375 48.328125 
Q 20.21875 56 33.015625 56 
Q 37.15625 56 41.109375 55.140625 
Q 45.0625 54.296875 48.78125 52.59375 
z
" id="DejaVuSans-99"/>
      <path d="M 54.890625 33.015625 
L 54.890625 0 
L 45.90625 0 
L 45.90625 32.71875 
Q 45.90625 40.484375 42.875 44.328125 
Q 39.84375 48.1875 33.796875 48.1875 
Q 26.515625 48.1875 22.3125 43.546875 
Q 18.109375 38.921875 18.109375 30.90625 
L 18.109375 0 
L 9.078125 0 
L 9.078125 75.984375 
L 18.109375 75.984375 
L 18.109375 46.1875 
Q 21.34375 51.125 25.703125 53.5625 
Q 30.078125 56 35.796875 56 
Q 45.21875 56 50.046875 50.171875 
Q 54.890625 44.34375 54.890625 33.015625 
z
" id="DejaVuSans-104"/>
     </defs>
     <g transform="translate(220.849063 335.860562)scale(0.1 -0.1)">
      <use xlink:href="#DejaVuSans-69"/>
      <use x="63.183594" xlink:href="#DejaVuSans-112"/>
      <use x="126.660156" xlink:href="#DejaVuSans-111"/>
      <use x="187.841797" xlink:href="#DejaVuSans-99"/>
      <use x="242.822266" xlink:href="#DejaVuSans-104"/>
     </g>
    </g>
   </g>
   <g id="matplotlib.axis_2">
    <g id="ytick_1">
     <g id="line2d_13">
      <path clip-path="url(#p8607161db5)" d="M 57.6 307.584 
L 414.72 307.584 
" style="fill:none;stroke:#b0b0b0;stroke-linecap:square;stroke-width:0.8;"/>
     </g>
     <g id="line2d_14">
      <defs>
       <path d="M 0 0 
L -3.5 0 
" id="mb7219aec12" style="stroke:#000000;stroke-width:0.8;"/>
      </defs>
      <g>
       <use style="stroke:#000000;stroke-width:0.8;" x="57.6" xlink:href="#mb7219aec12" y="307.584"/>
      </g>
     </g>
     <g id="text_8">
      <!-- 0 -->
      <g transform="translate(44.2375 311.383219)scale(0.1 -0.1)">
       <use xlink:href="#DejaVuSans-48"/>
      </g>
     </g>
    </g>
    <g id="ytick_2">
     <g id="line2d_15">
      <path clip-path="url(#p8607161db5)" d="M 57.6 263.232 
L 414.72 263.232 
" style="fill:none;stroke:#b0b0b0;stroke-linecap:square;stroke-width:0.8;"/>
     </g>
     <g id="line2d_16">
      <g>
       <use style="stroke:#000000;stroke-width:0.8;" x="57.6" xlink:href="#mb7219aec12" y="263.232"/>
      </g>
     </g>
     <g id="text_9">
      <!-- 1 -->
      <g transform="translate(44.2375 267.031219)scale(0.1 -0.1)">
       <use xlink:href="#DejaVuSans-49"/>
      </g>
     </g>
    </g>
    <g id="ytick_3">
     <g id="line2d_17">
      <path clip-path="url(#p8607161db5)" d="M 57.6 218.88 
L 414.72 218.88 
" style="fill:none;stroke:#b0b0b0;stroke-linecap:square;stroke-width:0.8;"/>
     </g>
     <g id="line2d_18">
      <g>
       <use style="stroke:#000000;stroke-width:0.8;" x="57.6" xlink:href="#mb7219aec12" y="218.88"/>
      </g>
     </g>
     <g id="text_10">
      <!-- 2 -->
      <g transform="translate(44.2375 222.679219)scale(0.1 -0.1)">
       <use xlink:href="#DejaVuSans-50"/>
      </g>
     </g>
    </g>
    <g id="ytick_4">
     <g id="line2d_19">
      <path clip-path="url(#p8607161db5)" d="M 57.6 174.528 
L 414.72 174.528 
" style="fill:none;stroke:#b0b0b0;stroke-linecap:square;stroke-width:0.8;"/>
     </g>
     <g id="line2d_20">
      <g>
       <use style="stroke:#000000;stroke-width:0.8;" x="57.6" xlink:href="#mb7219aec12" y="174.528"/>
      </g>
     </g>
     <g id="text_11">
      <!-- 3 -->
      <g transform="translate(44.2375 178.327219)scale(0.1 -0.1)">
       <use xlink:href="#DejaVuSans-51"/>
      </g>
     </g>
    </g>
    <g id="ytick_5">
     <g id="line2d_21">
      <path clip-path="url(#p8607161db5)" d="M 57.6 130.176 
L 414.72 130.176 
" style="fill:none;stroke:#b0b0b0;stroke-linecap:square;stroke-width:0.8;"/>
     </g>
     <g id="line2d_22">
      <g>
       <use style="stroke:#000000;stroke-width:0.8;" x="57.6" xlink:href="#mb7219aec12" y="130.176"/>
      </g>
     </g>
     <g id="text_12">
      <!-- 4 -->
      <g transform="translate(44.2375 133.975219)scale(0.1 -0.1)">
       <use xlink:href="#DejaVuSans-52"/>
      </g>
     </g>
    </g>
    <g id="ytick_6">
     <g id="line2d_23">
      <path clip-path="url(#p8607161db5)" d="M 57.6 85.824 
L 414.72 85.824 
" style="fill:none;stroke:#b0b0b0;stroke-linecap:square;stroke-width:0.8;"/>
     </g>
     <g id="line2d_24">
      <g>
       <use style="stroke:#000000;stroke-width:0.8;" x="57.6" xlink:href="#mb7219aec12" y="85.824"/>
      </g>
     </g>
     <g id="text_13">
      <!-- 5 -->
      <g transform="translate(44.2375 89.623219)scale(0.1 -0.1)">
       <use xlink:href="#DejaVuSans-53"/>
      </g>
     </g>
    </g>
    <g id="ytick_7">
     <g id="line2d_25">
      <path clip-path="url(#p8607161db5)" d="M 57.6 41.472 
L 414.72 41.472 
" style="fill:none;stroke:#b0b0b0;stroke-linecap:square;stroke-width:0.8;"/>
     </g>
     <g id="line2d_26">
      <g>
       <use style="stroke:#000000;stroke-width:0.8;" x="57.6" xlink:href="#mb7219aec12" y="41.472"/>
      </g>
     </g>
     <g id="text_14">
      <!-- 6 -->
      <defs>
       <path d="M 33.015625 40.375 
Q 26.375 40.375 22.484375 35.828125 
Q 18.609375 31.296875 18.609375 23.390625 
Q 18.609375 15.53125 22.484375 10.953125 
Q 26.375 6.390625 33.015625 6.390625 
Q 39.65625 6.390625 43.53125 10.953125 
Q 47.40625 15.53125 47.40625 23.390625 
Q 47.40625 31.296875 43.53125 35.828125 
Q 39.65625 40.375 33.015625 40.375 
z
M 52.59375 71.296875 
L 52.59375 62.3125 
Q 48.875 64.0625 45.09375 64.984375 
Q 41.3125 65.921875 37.59375 65.921875 
Q 27.828125 65.921875 22.671875 59.328125 
Q 17.53125 52.734375 16.796875 39.40625 
Q 19.671875 43.65625 24.015625 45.921875 
Q 28.375 48.1875 33.59375 48.1875 
Q 44.578125 48.1875 50.953125 41.515625 
Q 57.328125 34.859375 57.328125 23.390625 
Q 57.328125 12.15625 50.6875 5.359375 
Q 44.046875 -1.421875 33.015625 -1.421875 
Q 20.359375 -1.421875 13.671875 8.265625 
Q 6.984375 17.96875 6.984375 36.375 
Q 6.984375 53.65625 15.1875 63.9375 
Q 23.390625 74.21875 37.203125 74.21875 
Q 40.921875 74.21875 44.703125 73.484375 
Q 48.484375 72.75 52.59375 71.296875 
z
" id="DejaVuSans-54"/>
      </defs>
      <g transform="translate(44.2375 45.271219)scale(0.1 -0.1)">
       <use xlink:href="#DejaVuSans-54"/>
      </g>
     </g>
    </g>
    <g id="text_15">
     <!-- Perplexity -->
     <defs>
      <path d="M 19.671875 64.796875 
L 19.671875 37.40625 
L 32.078125 37.40625 
Q 38.96875 37.40625 42.71875 40.96875 
Q 46.484375 44.53125 46.484375 51.125 
Q 46.484375 57.671875 42.71875 61.234375 
Q 38.96875 64.796875 32.078125 64.796875 
z
M 9.8125 72.90625 
L 32.078125 72.90625 
Q 44.34375 72.90625 50.609375 67.359375 
Q 56.890625 61.8125 56.890625 51.125 
Q 56.890625 40.328125 50.609375 34.8125 
Q 44.34375 29.296875 32.078125 29.296875 
L 19.671875 29.296875 
L 19.671875 0 
L 9.8125 0 
z
" id="DejaVuSans-80"/>
      <path d="M 56.203125 29.59375 
L 56.203125 25.203125 
L 14.890625 25.203125 
Q 15.484375 15.921875 20.484375 11.0625 
Q 25.484375 6.203125 34.421875 6.203125 
Q 39.59375 6.203125 44.453125 7.46875 
Q 49.3125 8.734375 54.109375 11.28125 
L 54.109375 2.78125 
Q 49.265625 0.734375 44.1875 -0.34375 
Q 39.109375 -1.421875 33.890625 -1.421875 
Q 20.796875 -1.421875 13.15625 6.1875 
Q 5.515625 13.8125 5.515625 26.8125 
Q 5.515625 40.234375 12.765625 48.109375 
Q 20.015625 56 32.328125 56 
Q 43.359375 56 49.78125 48.890625 
Q 56.203125 41.796875 56.203125 29.59375 
z
M 47.21875 32.234375 
Q 47.125 39.59375 43.09375 43.984375 
Q 39.0625 48.390625 32.421875 48.390625 
Q 24.90625 48.390625 20.390625 44.140625 
Q 15.875 39.890625 15.1875 32.171875 
z
" id="DejaVuSans-101"/>
      <path d="M 41.109375 46.296875 
Q 39.59375 47.171875 37.8125 47.578125 
Q 36.03125 48 33.890625 48 
Q 26.265625 48 22.1875 43.046875 
Q 18.109375 38.09375 18.109375 28.8125 
L 18.109375 0 
L 9.078125 0 
L 9.078125 54.6875 
L 18.109375 54.6875 
L 18.109375 46.1875 
Q 20.953125 51.171875 25.484375 53.578125 
Q 30.03125 56 36.53125 56 
Q 37.453125 56 38.578125 55.875 
Q 39.703125 55.765625 41.0625 55.515625 
z
" id="DejaVuSans-114"/>
      <path d="M 9.421875 75.984375 
L 18.40625 75.984375 
L 18.40625 0 
L 9.421875 0 
z
" id="DejaVuSans-108"/>
      <path d="M 54.890625 54.6875 
L 35.109375 28.078125 
L 55.90625 0 
L 45.3125 0 
L 29.390625 21.484375 
L 13.484375 0 
L 2.875 0 
L 24.125 28.609375 
L 4.6875 54.6875 
L 15.28125 54.6875 
L 29.78125 35.203125 
L 44.28125 54.6875 
z
" id="DejaVuSans-120"/>
      <path d="M 9.421875 54.6875 
L 18.40625 54.6875 
L 18.40625 0 
L 9.421875 0 
z
M 9.421875 75.984375 
L 18.40625 75.984375 
L 18.40625 64.59375 
L 9.421875 64.59375 
z
" id="DejaVuSans-105"/>
      <path d="M 18.3125 70.21875 
L 18.3125 54.6875 
L 36.8125 54.6875 
L 36.8125 47.703125 
L 18.3125 47.703125 
L 18.3125 18.015625 
Q 18.3125 11.328125 20.140625 9.421875 
Q 21.96875 7.515625 27.59375 7.515625 
L 36.8125 7.515625 
L 36.8125 0 
L 27.59375 0 
Q 17.1875 0 13.234375 3.875 
Q 9.28125 7.765625 9.28125 18.015625 
L 9.28125 47.703125 
L 2.6875 47.703125 
L 2.6875 54.6875 
L 9.28125 54.6875 
L 9.28125 70.21875 
z
" id="DejaVuSans-116"/>
      <path d="M 32.171875 -5.078125 
Q 28.375 -14.84375 24.75 -17.8125 
Q 21.140625 -20.796875 15.09375 -20.796875 
L 7.90625 -20.796875 
L 7.90625 -13.28125 
L 13.1875 -13.28125 
Q 16.890625 -13.28125 18.9375 -11.515625 
Q 21 -9.765625 23.484375 -3.21875 
L 25.09375 0.875 
L 2.984375 54.6875 
L 12.5 54.6875 
L 29.59375 11.921875 
L 46.6875 54.6875 
L 56.203125 54.6875 
z
" id="DejaVuSans-121"/>
     </defs>
     <g transform="translate(38.157812 199.579563)rotate(-90)scale(0.1 -0.1)">
      <use xlink:href="#DejaVuSans-80"/>
      <use x="60.255859" xlink:href="#DejaVuSans-101"/>
      <use x="121.779297" xlink:href="#DejaVuSans-114"/>
      <use x="162.892578" xlink:href="#DejaVuSans-112"/>
      <use x="226.369141" xlink:href="#DejaVuSans-108"/>
      <use x="254.152344" xlink:href="#DejaVuSans-101"/>
      <use x="315.660156" xlink:href="#DejaVuSans-120"/>
      <use x="374.839844" xlink:href="#DejaVuSans-105"/>
      <use x="402.623047" xlink:href="#DejaVuSans-116"/>
      <use x="441.832031" xlink:href="#DejaVuSans-121"/>
     </g>
    </g>
   </g>
   <g id="line2d_27">
    <path clip-path="url(#p8607161db5)" d="M 87.871021 -1 
L 88.146154 6.87744 
L 88.796764 29.94048 
L 89.447375 42.35904 
L 90.097985 38.81088 
L 90.748595 59.2128 
L 91.399206 75.62304 
L 92.049816 88.48512 
L 92.700426 96.912 
L 93.351037 102.23424 
L 94.001647 103.5648 
L 94.652257 111.99168 
L 95.302868 114.6528 
L 96.604088 131.95008 
L 97.254698 135.05472 
L 97.905309 120.86208 
L 99.206529 151.90848 
L 100.50775 168.31872 
L 101.15836 174.528 
L 101.808971 182.06784 
L 102.459581 188.27712 
L 103.110191 195.81696 
L 103.760802 200.69568 
L 105.712633 220.21056 
L 107.664463 236.17728 
L 108.965684 243.2736 
L 109.616294 244.60416 
L 110.266905 245.4912 
L 110.917515 249.03936 
L 111.568125 251.25696 
L 112.218736 252.58752 
L 112.869346 253.47456 
L 113.519956 254.80512 
L 114.170567 254.80512 
L 114.821177 253.91808 
L 115.471787 254.80512 
L 116.122398 253.91808 
L 116.773008 254.80512 
L 117.423618 256.13568 
L 118.074228 256.5792 
L 120.026059 256.5792 
L 120.67667 255.24864 
L 121.32728 254.3616 
L 121.97789 256.13568 
L 123.279111 257.02272 
L 123.929721 256.5792 
L 124.580332 257.02272 
L 125.230942 256.5792 
L 125.881552 257.02272 
L 127.182773 257.02272 
L 128.483993 256.13568 
L 129.785214 256.13568 
L 130.435824 255.24864 
L 131.086435 256.5792 
L 131.737045 257.46624 
L 133.688876 257.46624 
L 134.339486 257.02272 
L 136.941927 257.02272 
L 137.592538 256.5792 
L 138.893758 257.46624 
L 142.14681 257.46624 
L 143.448031 256.5792 
L 144.749251 256.5792 
L 145.399862 257.46624 
L 146.050472 257.46624 
L 146.701082 257.02272 
L 148.002303 257.02272 
L 148.652913 257.46624 
L 151.905965 257.46624 
L 153.207185 256.5792 
L 154.508406 257.46624 
L 156.460237 257.46624 
L 157.110847 257.02272 
L 157.761457 257.46624 
L 168.821833 257.46624 
L 169.472443 257.02272 
L 170.123053 257.46624 
L 178.580987 257.46624 
L 179.231598 257.90976 
L 180.532818 257.90976 
L 181.183429 257.46624 
L 185.737701 257.46624 
L 186.388311 257.90976 
L 187.038921 257.46624 
L 187.689532 257.90976 
L 188.340142 257.46624 
L 188.990752 257.90976 
L 189.641363 257.46624 
L 193.545025 257.46624 
L 194.195635 257.90976 
L 195.496856 257.90976 
L 196.147466 257.46624 
L 196.798076 257.46624 
L 197.448686 257.90976 
L 200.701738 257.90976 
L 201.352348 257.46624 
L 202.002959 257.90976 
L 233.232254 257.90976 
L 233.882864 257.46624 
L 234.533474 257.90976 
L 236.485305 257.90976 
L 237.135915 258.35328 
L 237.786526 257.90976 
L 238.437136 257.90976 
L 239.087746 258.35328 
L 239.738357 257.90976 
L 252.750563 257.90976 
L 253.401173 258.35328 
L 254.051784 257.90976 
L 254.702394 258.35328 
L 255.353004 257.90976 
L 259.256666 257.90976 
L 259.907276 258.35328 
L 260.557887 257.90976 
L 261.208497 257.90976 
L 261.859107 258.35328 
L 262.509718 257.90976 
L 263.160328 258.35328 
L 263.810938 257.90976 
L 264.461549 258.35328 
L 266.413379 258.35328 
L 267.06399 257.90976 
L 267.7146 258.35328 
L 268.36521 257.90976 
L 270.317041 257.90976 
L 270.967652 258.35328 
L 272.919483 258.35328 
L 273.570093 257.90976 
L 274.871314 257.90976 
L 275.521924 258.35328 
L 279.425586 258.35328 
L 280.076196 257.90976 
L 280.726806 258.35328 
L 284.630468 258.35328 
L 285.281079 257.90976 
L 285.931689 258.35328 
L 287.232909 258.35328 
L 287.88352 257.90976 
L 288.53413 258.35328 
L 289.835351 258.35328 
L 290.485961 257.90976 
L 291.136571 258.35328 
L 292.437792 258.35328 
L 293.088402 257.90976 
L 294.389623 257.90976 
L 295.040233 258.35328 
L 300.895726 258.35328 
L 301.546336 257.90976 
L 302.196947 258.35328 
L 382.222015 258.35328 
L 382.872625 257.90976 
L 383.523236 258.35328 
L 398.487273 258.35328 
L 398.487273 258.35328 
" style="fill:none;stroke:#1f77b4;stroke-linecap:square;stroke-width:1.5;"/>
   </g>
   <g id="line2d_28">
    <path clip-path="url(#p8607161db5)" d="M 91.085079 -1 
L 91.399206 8.208 
L 92.049816 7.32096 
L 92.700426 11.31264 
L 93.351037 3.7728 
L 94.001647 21.07008 
L 94.652257 22.84416 
L 95.302868 26.39232 
L 95.953478 21.5136 
L 97.254698 35.70624 
L 97.905309 15.30432 
L 98.555919 28.1664 
L 99.206529 43.6896 
L 100.50775 39.2544 
L 101.15836 43.6896 
L 101.808971 47.23776 
L 102.459581 54.33408 
L 103.110191 50.3424 
L 103.760802 51.67296 
L 104.411412 58.32576 
L 105.062022 54.33408 
L 105.712633 68.52672 
L 106.363243 56.10816 
L 107.013853 63.20448 
L 107.664463 75.62304 
L 108.315074 68.97024 
L 108.965684 72.96192 
L 109.616294 61.4304 
L 110.266905 70.74432 
L 110.917515 74.736 
L 111.568125 71.63136 
L 112.218736 72.5184 
L 112.869346 77.84064 
L 113.519956 73.40544 
L 114.170567 76.06656 
L 114.821177 71.63136 
L 115.471787 73.84896 
L 116.122398 79.1712 
L 116.773008 77.39712 
L 117.423618 80.05824 
L 118.074228 74.736 
L 118.724839 76.9536 
L 119.375449 81.83232 
L 120.026059 75.62304 
L 120.67667 75.62304 
L 121.32728 74.29248 
L 121.97789 74.736 
L 122.628501 79.61472 
L 123.279111 78.28416 
L 123.929721 78.28416 
L 124.580332 80.50176 
L 125.230942 79.61472 
L 125.881552 80.50176 
L 126.532163 77.84064 
L 127.182773 76.51008 
L 128.483993 71.18784 
L 129.134604 78.72768 
L 129.785214 76.51008 
L 130.435824 83.6064 
L 131.086435 86.71104 
L 133.038266 82.71936 
L 133.688876 79.61472 
L 134.339486 83.6064 
L 134.990097 80.94528 
L 135.640707 82.71936 
L 136.941927 75.17952 
L 137.592538 81.3888 
L 138.243148 85.824 
L 138.893758 80.94528 
L 139.544369 80.94528 
L 140.194979 83.16288 
L 140.845589 80.94528 
L 141.4962 80.05824 
L 142.14681 84.04992 
L 142.79742 80.05824 
L 143.448031 77.39712 
L 144.098641 79.61472 
L 144.749251 80.05824 
L 145.399862 80.05824 
L 146.050472 76.9536 
L 146.701082 80.50176 
L 147.351692 80.94528 
L 148.002303 87.59808 
L 149.303523 80.94528 
L 149.954134 81.83232 
L 150.604744 76.9536 
L 151.255354 77.39712 
L 151.905965 76.06656 
L 152.556575 79.1712 
L 153.207185 80.94528 
L 153.857796 82.27584 
L 154.508406 86.26752 
L 155.809627 83.6064 
L 156.460237 75.17952 
L 157.110847 82.27584 
L 157.761457 83.6064 
L 158.412068 84.04992 
L 159.062678 81.83232 
L 159.713288 83.16288 
L 160.363899 80.50176 
L 161.014509 80.94528 
L 161.665119 78.28416 
L 162.31573 85.824 
L 162.96634 87.15456 
L 163.61695 82.27584 
L 164.267561 81.83232 
L 164.918171 84.93696 
L 165.568781 82.71936 
L 166.219392 82.71936 
L 166.870002 79.61472 
L 167.520612 81.3888 
L 168.171222 84.49344 
L 168.821833 74.736 
L 169.472443 82.27584 
L 170.123053 83.6064 
L 170.773664 83.16288 
L 171.424274 80.94528 
L 172.074884 83.16288 
L 172.725495 81.83232 
L 173.376105 79.1712 
L 174.026715 84.04992 
L 175.327936 77.39712 
L 175.978546 79.61472 
L 176.629156 76.51008 
L 177.279767 84.04992 
L 177.930377 82.71936 
L 178.580987 82.71936 
L 179.231598 80.94528 
L 179.882208 80.05824 
L 180.532818 80.05824 
L 181.183429 82.71936 
L 182.484649 77.39712 
L 183.13526 82.71936 
L 183.78587 83.6064 
L 184.43648 82.71936 
L 185.087091 78.28416 
L 185.737701 82.27584 
L 186.388311 80.50176 
L 187.038921 82.27584 
L 187.689532 79.61472 
L 188.340142 77.84064 
L 188.990752 81.83232 
L 189.641363 80.94528 
L 190.291973 87.15456 
L 191.593194 83.6064 
L 192.243804 83.6064 
L 192.894414 85.38048 
L 193.545025 84.93696 
L 194.195635 81.83232 
L 194.846245 84.49344 
L 195.496856 84.93696 
L 196.147466 82.27584 
L 196.798076 83.6064 
L 197.448686 86.26752 
L 198.749907 87.15456 
L 199.400517 83.6064 
L 200.051128 83.16288 
L 200.701738 83.6064 
L 201.352348 85.38048 
L 202.002959 84.04992 
L 202.653569 83.16288 
L 203.304179 78.72768 
L 203.95479 80.94528 
L 204.6054 87.59808 
L 205.25601 85.824 
L 205.906621 84.93696 
L 206.557231 77.84064 
L 207.207841 80.50176 
L 207.858451 86.71104 
L 208.509062 83.16288 
L 209.159672 86.26752 
L 209.810282 86.71104 
L 210.460893 86.71104 
L 211.111503 83.6064 
L 211.762113 86.26752 
L 212.412724 88.0416 
L 213.063334 87.15456 
L 213.713944 88.48512 
L 214.364555 88.48512 
L 215.015165 89.37216 
L 215.665775 86.26752 
L 216.316385 86.26752 
L 217.617606 80.50176 
L 218.268216 82.27584 
L 218.918827 79.61472 
L 219.569437 81.83232 
L 220.220047 83.16288 
L 220.870658 79.1712 
L 221.521268 86.26752 
L 222.171878 80.05824 
L 222.822489 80.05824 
L 223.473099 87.15456 
L 224.123709 84.04992 
L 224.77432 86.26752 
L 225.42493 82.71936 
L 226.07554 83.16288 
L 226.72615 82.71936 
L 227.376761 81.83232 
L 228.027371 81.3888 
L 228.677981 81.3888 
L 229.328592 78.28416 
L 229.979202 81.3888 
L 230.629812 80.50176 
L 231.280423 76.51008 
L 231.931033 80.50176 
L 232.581643 79.1712 
L 233.232254 79.1712 
L 233.882864 73.40544 
L 234.533474 82.27584 
L 235.184085 84.49344 
L 236.485305 87.15456 
L 237.135915 82.27584 
L 237.786526 83.16288 
L 238.437136 83.6064 
L 239.087746 80.94528 
L 239.738357 79.1712 
L 240.388967 85.38048 
L 241.039577 80.94528 
L 241.690188 79.61472 
L 242.340798 85.38048 
L 242.991408 80.50176 
L 243.642019 82.27584 
L 244.292629 80.50176 
L 244.943239 81.3888 
L 245.59385 79.61472 
L 246.89507 77.84064 
L 247.54568 79.1712 
L 248.196291 82.27584 
L 248.846901 78.28416 
L 249.497511 80.05824 
L 250.148122 82.71936 
L 250.798732 77.84064 
L 251.449342 77.39712 
L 252.099953 82.71936 
L 252.750563 83.16288 
L 253.401173 79.1712 
L 254.051784 79.1712 
L 254.702394 78.72768 
L 256.003615 80.50176 
L 256.654225 78.72768 
L 257.955445 72.07488 
L 258.606056 73.40544 
L 259.256666 76.51008 
L 259.907276 76.51008 
L 260.557887 79.1712 
L 261.208497 80.05824 
L 261.859107 77.39712 
L 262.509718 78.28416 
L 263.810938 73.84896 
L 264.461549 73.40544 
L 265.112159 74.736 
L 265.762769 72.07488 
L 266.413379 71.18784 
L 267.06399 73.84896 
L 267.7146 71.63136 
L 268.36521 73.84896 
L 269.015821 75.62304 
L 269.666431 72.5184 
L 270.317041 77.39712 
L 270.967652 76.9536 
L 271.618262 75.62304 
L 272.268872 77.39712 
L 272.919483 75.62304 
L 273.570093 74.736 
L 274.220703 70.3008 
L 274.871314 74.29248 
L 275.521924 73.84896 
L 276.172534 76.06656 
L 276.823144 75.17952 
L 277.473755 77.39712 
L 278.124365 76.9536 
L 278.774975 76.06656 
L 279.425586 74.736 
L 280.076196 76.51008 
L 280.726806 76.51008 
L 281.377417 76.9536 
L 282.028027 76.51008 
L 282.678637 77.39712 
L 283.329248 78.72768 
L 283.979858 77.84064 
L 284.630468 76.06656 
L 285.281079 78.28416 
L 285.931689 76.9536 
L 286.582299 71.63136 
L 287.88352 74.29248 
L 289.18474 74.29248 
L 289.835351 75.17952 
L 290.485961 74.29248 
L 291.136571 74.736 
L 291.787182 72.96192 
L 292.437792 71.63136 
L 293.088402 65.8656 
L 294.389623 74.29248 
L 295.040233 76.06656 
L 295.690844 75.62304 
L 296.341454 72.96192 
L 296.992064 72.07488 
L 297.642674 72.96192 
L 298.293285 71.18784 
L 298.943895 63.648 
L 299.594505 69.41376 
L 300.245116 68.52672 
L 300.895726 64.09152 
L 301.546336 67.19616 
L 302.196947 68.97024 
L 302.847557 72.07488 
L 303.498167 72.5184 
L 304.148778 67.63968 
L 304.799388 67.63968 
L 305.449998 68.52672 
L 306.100608 69.85728 
L 307.401829 66.30912 
L 308.70305 71.63136 
L 309.35366 69.41376 
L 310.00427 66.75264 
L 310.654881 69.41376 
L 311.305491 66.30912 
L 311.956101 67.63968 
L 312.606712 67.63968 
L 313.257322 64.09152 
L 313.907932 69.85728 
L 314.558543 68.0832 
L 315.209153 64.97856 
L 315.859763 68.52672 
L 316.510373 74.736 
L 317.160984 72.5184 
L 317.811594 71.18784 
L 318.462204 72.07488 
L 319.112815 72.5184 
L 319.763425 71.18784 
L 320.414035 72.07488 
L 321.064646 72.07488 
L 321.715256 70.74432 
L 322.365866 67.63968 
L 323.016477 73.84896 
L 324.317697 68.0832 
L 324.968308 71.18784 
L 325.618918 71.18784 
L 326.269528 73.40544 
L 326.920138 71.63136 
L 327.570749 72.96192 
L 328.221359 70.3008 
L 328.871969 73.84896 
L 330.17319 69.41376 
L 330.8238 68.52672 
L 331.474411 72.96192 
L 332.125021 72.5184 
L 332.775631 68.97024 
L 333.426242 71.18784 
L 334.076852 70.74432 
L 334.727462 64.53504 
L 335.378073 72.07488 
L 336.028683 71.18784 
L 336.679293 54.33408 
L 337.329903 67.19616 
L 337.980514 64.97856 
L 338.631124 71.18784 
L 339.281734 68.52672 
L 339.932345 69.85728 
L 340.582955 70.3008 
L 341.233565 68.97024 
L 341.884176 70.74432 
L 342.534786 69.41376 
L 343.185396 68.52672 
L 343.836007 70.3008 
L 344.486617 68.97024 
L 345.137227 69.41376 
L 345.787837 68.97024 
L 346.438448 69.41376 
L 347.089058 68.97024 
L 347.739668 60.98688 
L 348.390279 71.63136 
L 349.040889 69.85728 
L 349.691499 64.97856 
L 350.34211 66.75264 
L 350.99272 65.8656 
L 351.64333 61.4304 
L 352.293941 61.87392 
L 352.944551 64.09152 
L 353.595161 64.97856 
L 354.245772 66.30912 
L 354.896382 64.09152 
L 355.546992 63.648 
L 356.197602 67.19616 
L 356.848213 71.63136 
L 357.498823 67.19616 
L 358.149433 63.648 
L 358.800044 65.8656 
L 359.450654 64.09152 
L 360.101264 64.97856 
L 360.751875 62.76096 
L 362.053095 65.42208 
L 362.703706 64.53504 
L 363.354316 60.98688 
L 364.004926 62.31744 
L 364.655537 64.97856 
L 365.306147 63.648 
L 365.956757 61.4304 
L 366.607367 61.4304 
L 367.257978 62.76096 
L 367.908588 61.4304 
L 368.559198 62.76096 
L 369.209809 63.20448 
L 369.860419 64.53504 
L 370.511029 62.31744 
L 371.16164 64.09152 
L 371.81225 63.20448 
L 372.46286 62.76096 
L 373.113471 63.20448 
L 373.764081 61.87392 
L 374.414691 64.97856 
L 375.065302 63.648 
L 375.715912 62.76096 
L 377.017132 61.87392 
L 377.667743 60.98688 
L 378.318353 59.2128 
L 378.968963 63.648 
L 379.619574 61.4304 
L 380.270184 60.09984 
L 380.920794 57.88224 
L 381.571405 60.98688 
L 382.222015 57.88224 
L 382.872625 57.43872 
L 383.523236 56.55168 
L 384.824456 60.09984 
L 385.475066 59.65632 
L 386.125677 61.4304 
L 386.776287 60.98688 
L 387.426897 61.4304 
L 388.077508 60.09984 
L 388.728118 60.54336 
L 389.378728 60.54336 
L 390.029339 61.87392 
L 390.679949 60.09984 
L 391.330559 60.98688 
L 391.98117 60.98688 
L 392.63178 59.2128 
L 393.28239 56.10816 
L 393.933001 62.31744 
L 394.583611 60.98688 
L 395.234221 49.45536 
L 395.884831 57.88224 
L 396.535442 53.89056 
L 397.186052 58.76928 
L 397.836662 60.54336 
L 398.487273 61.87392 
L 398.487273 61.87392 
" style="fill:none;stroke:#ff7f0e;stroke-linecap:square;stroke-width:1.5;"/>
   </g>
   <g id="patch_3">
    <path d="M 57.6 307.584 
L 57.6 41.472 
" style="fill:none;stroke:#000000;stroke-linecap:square;stroke-linejoin:miter;stroke-width:0.8;"/>
   </g>
   <g id="patch_4">
    <path d="M 414.72 307.584 
L 414.72 41.472 
" style="fill:none;stroke:#000000;stroke-linecap:square;stroke-linejoin:miter;stroke-width:0.8;"/>
   </g>
   <g id="patch_5">
    <path d="M 57.6 307.584 
L 414.72 307.584 
" style="fill:none;stroke:#000000;stroke-linecap:square;stroke-linejoin:miter;stroke-width:0.8;"/>
   </g>
   <g id="patch_6">
    <path d="M 57.6 41.472 
L 414.72 41.472 
" style="fill:none;stroke:#000000;stroke-linecap:square;stroke-linejoin:miter;stroke-width:0.8;"/>
   </g>
   <g id="legend_1">
    <g id="patch_7">
     <path d="M 64.6 302.584 
L 122.040625 302.584 
Q 124.040625 302.584 124.040625 300.584 
L 124.040625 272.22775 
Q 124.040625 270.22775 122.040625 270.22775 
L 64.6 270.22775 
Q 62.6 270.22775 62.6 272.22775 
L 62.6 300.584 
Q 62.6 302.584 64.6 302.584 
z
" style="fill:#ffffff;opacity:0.8;stroke:#cccccc;stroke-linejoin:miter;"/>
    </g>
    <g id="line2d_29">
     <path d="M 66.6 278.326187 
L 86.6 278.326187 
" style="fill:none;stroke:#1f77b4;stroke-linecap:square;stroke-width:1.5;"/>
    </g>
    <g id="line2d_30"/>
    <g id="text_16">
     <!-- Train -->
     <defs>
      <path d="M -0.296875 72.90625 
L 61.375 72.90625 
L 61.375 64.59375 
L 35.5 64.59375 
L 35.5 0 
L 25.59375 0 
L 25.59375 64.59375 
L -0.296875 64.59375 
z
" id="DejaVuSans-84"/>
      <path d="M 34.28125 27.484375 
Q 23.390625 27.484375 19.1875 25 
Q 14.984375 22.515625 14.984375 16.5 
Q 14.984375 11.71875 18.140625 8.90625 
Q 21.296875 6.109375 26.703125 6.109375 
Q 34.1875 6.109375 38.703125 11.40625 
Q 43.21875 16.703125 43.21875 25.484375 
L 43.21875 27.484375 
z
M 52.203125 31.203125 
L 52.203125 0 
L 43.21875 0 
L 43.21875 8.296875 
Q 40.140625 3.328125 35.546875 0.953125 
Q 30.953125 -1.421875 24.3125 -1.421875 
Q 15.921875 -1.421875 10.953125 3.296875 
Q 6 8.015625 6 15.921875 
Q 6 25.140625 12.171875 29.828125 
Q 18.359375 34.515625 30.609375 34.515625 
L 43.21875 34.515625 
L 43.21875 35.40625 
Q 43.21875 41.609375 39.140625 45 
Q 35.0625 48.390625 27.6875 48.390625 
Q 23 48.390625 18.546875 47.265625 
Q 14.109375 46.140625 10.015625 43.890625 
L 10.015625 52.203125 
Q 14.9375 54.109375 19.578125 55.046875 
Q 24.21875 56 28.609375 56 
Q 40.484375 56 46.34375 49.84375 
Q 52.203125 43.703125 52.203125 31.203125 
z
" id="DejaVuSans-97"/>
      <path d="M 54.890625 33.015625 
L 54.890625 0 
L 45.90625 0 
L 45.90625 32.71875 
Q 45.90625 40.484375 42.875 44.328125 
Q 39.84375 48.1875 33.796875 48.1875 
Q 26.515625 48.1875 22.3125 43.546875 
Q 18.109375 38.921875 18.109375 30.90625 
L 18.109375 0 
L 9.078125 0 
L 9.078125 54.6875 
L 18.109375 54.6875 
L 18.109375 46.1875 
Q 21.34375 51.125 25.703125 53.5625 
Q 30.078125 56 35.796875 56 
Q 45.21875 56 50.046875 50.171875 
Q 54.890625 44.34375 54.890625 33.015625 
z
" id="DejaVuSans-110"/>
     </defs>
     <g transform="translate(94.6 281.826187)scale(0.1 -0.1)">
      <use xlink:href="#DejaVuSans-84"/>
      <use x="60.865234" xlink:href="#DejaVuSans-114"/>
      <use x="101.978516" xlink:href="#DejaVuSans-97"/>
      <use x="163.257812" xlink:href="#DejaVuSans-105"/>
      <use x="191.041016" xlink:href="#DejaVuSans-110"/>
     </g>
    </g>
    <g id="line2d_31">
     <path d="M 66.6 293.004312 
L 86.6 293.004312 
" style="fill:none;stroke:#ff7f0e;stroke-linecap:square;stroke-width:1.5;"/>
    </g>
    <g id="line2d_32"/>
    <g id="text_17">
     <!-- Valid -->
     <defs>
      <path d="M 28.609375 0 
L 0.78125 72.90625 
L 11.078125 72.90625 
L 34.1875 11.53125 
L 57.328125 72.90625 
L 67.578125 72.90625 
L 39.796875 0 
z
" id="DejaVuSans-86"/>
      <path d="M 45.40625 46.390625 
L 45.40625 75.984375 
L 54.390625 75.984375 
L 54.390625 0 
L 45.40625 0 
L 45.40625 8.203125 
Q 42.578125 3.328125 38.25 0.953125 
Q 33.9375 -1.421875 27.875 -1.421875 
Q 17.96875 -1.421875 11.734375 6.484375 
Q 5.515625 14.40625 5.515625 27.296875 
Q 5.515625 40.1875 11.734375 48.09375 
Q 17.96875 56 27.875 56 
Q 33.9375 56 38.25 53.625 
Q 42.578125 51.265625 45.40625 46.390625 
z
M 14.796875 27.296875 
Q 14.796875 17.390625 18.875 11.75 
Q 22.953125 6.109375 30.078125 6.109375 
Q 37.203125 6.109375 41.296875 11.75 
Q 45.40625 17.390625 45.40625 27.296875 
Q 45.40625 37.203125 41.296875 42.84375 
Q 37.203125 48.484375 30.078125 48.484375 
Q 22.953125 48.484375 18.875 42.84375 
Q 14.796875 37.203125 14.796875 27.296875 
z
" id="DejaVuSans-100"/>
     </defs>
     <g transform="translate(94.6 296.504312)scale(0.1 -0.1)">
      <use xlink:href="#DejaVuSans-86"/>
      <use x="68.298828" xlink:href="#DejaVuSans-97"/>
      <use x="129.578125" xlink:href="#DejaVuSans-108"/>
      <use x="157.361328" xlink:href="#DejaVuSans-105"/>
      <use x="185.144531" xlink:href="#DejaVuSans-100"/>
     </g>
    </g>
   </g>
  </g>
 </g>
 <defs>
  <clipPath id="p8607161db5">
   <rect height="266.112" width="357.12" x="57.6" y="41.472"/>
  </clipPath>
 </defs>
</svg>
