<?xml version="1.0" encoding="utf-8" standalone="no"?>
<!DOCTYPE svg PUBLIC "-//W3C//DTD SVG 1.1//EN"
  "http://www.w3.org/Graphics/SVG/1.1/DTD/svg11.dtd">
<!-- Created with matplotlib (https://matplotlib.org/) -->
<svg height="345.6pt" version="1.1" viewBox="0 0 460.8 345.6" width="460.8pt" xmlns="http://www.w3.org/2000/svg" xmlns:xlink="http://www.w3.org/1999/xlink">
 <defs>
  <style type="text/css">
*{stroke-linecap:butt;stroke-linejoin:round;}
  </style>
 </defs>
 <g id="figure_1">
  <g id="patch_1">
   <path d="M 0 345.6 
L 460.8 345.6 
L 460.8 0 
L 0 0 
z
" style="fill:#ffffff;"/>
  </g>
  <g id="axes_1">
   <g id="patch_2">
    <path d="M 57.6 307.584 
L 414.72 307.584 
L 414.72 41.472 
L 57.6 41.472 
z
" style="fill:#ffffff;"/>
   </g>
   <g id="matplotlib.axis_1">
    <g id="xtick_1">
     <g id="line2d_1">
      <path clip-path="url(#pc98976dccb)" d="M 73.182117 307.584 
L 73.182117 41.472 
" style="fill:none;stroke:#b0b0b0;stroke-linecap:square;stroke-width:0.8;"/>
     </g>
     <g id="line2d_2">
      <defs>
       <path d="M 0 0 
L 0 3.5 
" id="mec1eec208a" style="stroke:#000000;stroke-width:0.8;"/>
      </defs>
      <g>
       <use style="stroke:#000000;stroke-width:0.8;" x="73.182117" xlink:href="#mec1eec208a" y="307.584"/>
      </g>
     </g>
     <g id="text_1">
      <!-- 0 -->
      <defs>
       <path d="M 31.78125 66.40625 
Q 24.171875 66.40625 20.328125 58.90625 
Q 16.5 51.421875 16.5 36.375 
Q 16.5 21.390625 20.328125 13.890625 
Q 24.171875 6.390625 31.78125 6.390625 
Q 39.453125 6.390625 43.28125 13.890625 
Q 47.125 21.390625 47.125 36.375 
Q 47.125 51.421875 43.28125 58.90625 
Q 39.453125 66.40625 31.78125 66.40625 
z
M 31.78125 74.21875 
Q 44.046875 74.21875 50.515625 64.515625 
Q 56.984375 54.828125 56.984375 36.375 
Q 56.984375 17.96875 50.515625 8.265625 
Q 44.046875 -1.421875 31.78125 -1.421875 
Q 19.53125 -1.421875 13.0625 8.265625 
Q 6.59375 17.96875 6.59375 36.375 
Q 6.59375 54.828125 13.0625 64.515625 
Q 19.53125 74.21875 31.78125 74.21875 
z
" id="DejaVuSans-48"/>
      </defs>
      <g transform="translate(70.000867 322.182437)scale(0.1 -0.1)">
       <use xlink:href="#DejaVuSans-48"/>
      </g>
     </g>
    </g>
    <g id="xtick_2">
     <g id="line2d_3">
      <path clip-path="url(#pc98976dccb)" d="M 138.243148 307.584 
L 138.243148 41.472 
" style="fill:none;stroke:#b0b0b0;stroke-linecap:square;stroke-width:0.8;"/>
     </g>
     <g id="line2d_4">
      <g>
       <use style="stroke:#000000;stroke-width:0.8;" x="138.243148" xlink:href="#mec1eec208a" y="307.584"/>
      </g>
     </g>
     <g id="text_2">
      <!-- 100 -->
      <defs>
       <path d="M 12.40625 8.296875 
L 28.515625 8.296875 
L 28.515625 63.921875 
L 10.984375 60.40625 
L 10.984375 69.390625 
L 28.421875 72.90625 
L 38.28125 72.90625 
L 38.28125 8.296875 
L 54.390625 8.296875 
L 54.390625 0 
L 12.40625 0 
z
" id="DejaVuSans-49"/>
      </defs>
      <g transform="translate(128.699398 322.182437)scale(0.1 -0.1)">
       <use xlink:href="#DejaVuSans-49"/>
       <use x="63.623047" xlink:href="#DejaVuSans-48"/>
       <use x="127.246094" xlink:href="#DejaVuSans-48"/>
      </g>
     </g>
    </g>
    <g id="xtick_3">
     <g id="line2d_5">
      <path clip-path="url(#pc98976dccb)" d="M 203.304179 307.584 
L 203.304179 41.472 
" style="fill:none;stroke:#b0b0b0;stroke-linecap:square;stroke-width:0.8;"/>
     </g>
     <g id="line2d_6">
      <g>
       <use style="stroke:#000000;stroke-width:0.8;" x="203.304179" xlink:href="#mec1eec208a" y="307.584"/>
      </g>
     </g>
     <g id="text_3">
      <!-- 200 -->
      <defs>
       <path d="M 19.1875 8.296875 
L 53.609375 8.296875 
L 53.609375 0 
L 7.328125 0 
L 7.328125 8.296875 
Q 12.9375 14.109375 22.625 23.890625 
Q 32.328125 33.6875 34.8125 36.53125 
Q 39.546875 41.84375 41.421875 45.53125 
Q 43.3125 49.21875 43.3125 52.78125 
Q 43.3125 58.59375 39.234375 62.25 
Q 35.15625 65.921875 28.609375 65.921875 
Q 23.96875 65.921875 18.8125 64.3125 
Q 13.671875 62.703125 7.8125 59.421875 
L 7.8125 69.390625 
Q 13.765625 71.78125 18.9375 73 
Q 24.125 74.21875 28.421875 74.21875 
Q 39.75 74.21875 46.484375 68.546875 
Q 53.21875 62.890625 53.21875 53.421875 
Q 53.21875 48.921875 51.53125 44.890625 
Q 49.859375 40.875 45.40625 35.40625 
Q 44.1875 33.984375 37.640625 27.21875 
Q 31.109375 20.453125 19.1875 8.296875 
z
" id="DejaVuSans-50"/>
      </defs>
      <g transform="translate(193.760429 322.182437)scale(0.1 -0.1)">
       <use xlink:href="#DejaVuSans-50"/>
       <use x="63.623047" xlink:href="#DejaVuSans-48"/>
       <use x="127.246094" xlink:href="#DejaVuSans-48"/>
      </g>
     </g>
    </g>
    <g id="xtick_4">
     <g id="line2d_7">
      <path clip-path="url(#pc98976dccb)" d="M 268.36521 307.584 
L 268.36521 41.472 
" style="fill:none;stroke:#b0b0b0;stroke-linecap:square;stroke-width:0.8;"/>
     </g>
     <g id="line2d_8">
      <g>
       <use style="stroke:#000000;stroke-width:0.8;" x="268.36521" xlink:href="#mec1eec208a" y="307.584"/>
      </g>
     </g>
     <g id="text_4">
      <!-- 300 -->
      <defs>
       <path d="M 40.578125 39.3125 
Q 47.65625 37.796875 51.625 33 
Q 55.609375 28.21875 55.609375 21.1875 
Q 55.609375 10.40625 48.1875 4.484375 
Q 40.765625 -1.421875 27.09375 -1.421875 
Q 22.515625 -1.421875 17.65625 -0.515625 
Q 12.796875 0.390625 7.625 2.203125 
L 7.625 11.71875 
Q 11.71875 9.328125 16.59375 8.109375 
Q 21.484375 6.890625 26.8125 6.890625 
Q 36.078125 6.890625 40.9375 10.546875 
Q 45.796875 14.203125 45.796875 21.1875 
Q 45.796875 27.640625 41.28125 31.265625 
Q 36.765625 34.90625 28.71875 34.90625 
L 20.21875 34.90625 
L 20.21875 43.015625 
L 29.109375 43.015625 
Q 36.375 43.015625 40.234375 45.921875 
Q 44.09375 48.828125 44.09375 54.296875 
Q 44.09375 59.90625 40.109375 62.90625 
Q 36.140625 65.921875 28.71875 65.921875 
Q 24.65625 65.921875 20.015625 65.03125 
Q 15.375 64.15625 9.8125 62.3125 
L 9.8125 71.09375 
Q 15.4375 72.65625 20.34375 73.4375 
Q 25.25 74.21875 29.59375 74.21875 
Q 40.828125 74.21875 47.359375 69.109375 
Q 53.90625 64.015625 53.90625 55.328125 
Q 53.90625 49.265625 50.4375 45.09375 
Q 46.96875 40.921875 40.578125 39.3125 
z
" id="DejaVuSans-51"/>
      </defs>
      <g transform="translate(258.82146 322.182437)scale(0.1 -0.1)">
       <use xlink:href="#DejaVuSans-51"/>
       <use x="63.623047" xlink:href="#DejaVuSans-48"/>
       <use x="127.246094" xlink:href="#DejaVuSans-48"/>
      </g>
     </g>
    </g>
    <g id="xtick_5">
     <g id="line2d_9">
      <path clip-path="url(#pc98976dccb)" d="M 333.426242 307.584 
L 333.426242 41.472 
" style="fill:none;stroke:#b0b0b0;stroke-linecap:square;stroke-width:0.8;"/>
     </g>
     <g id="line2d_10">
      <g>
       <use style="stroke:#000000;stroke-width:0.8;" x="333.426242" xlink:href="#mec1eec208a" y="307.584"/>
      </g>
     </g>
     <g id="text_5">
      <!-- 400 -->
      <defs>
       <path d="M 37.796875 64.3125 
L 12.890625 25.390625 
L 37.796875 25.390625 
z
M 35.203125 72.90625 
L 47.609375 72.90625 
L 47.609375 25.390625 
L 58.015625 25.390625 
L 58.015625 17.1875 
L 47.609375 17.1875 
L 47.609375 0 
L 37.796875 0 
L 37.796875 17.1875 
L 4.890625 17.1875 
L 4.890625 26.703125 
z
" id="DejaVuSans-52"/>
      </defs>
      <g transform="translate(323.882492 322.182437)scale(0.1 -0.1)">
       <use xlink:href="#DejaVuSans-52"/>
       <use x="63.623047" xlink:href="#DejaVuSans-48"/>
       <use x="127.246094" xlink:href="#DejaVuSans-48"/>
      </g>
     </g>
    </g>
    <g id="xtick_6">
     <g id="line2d_11">
      <path clip-path="url(#pc98976dccb)" d="M 398.487273 307.584 
L 398.487273 41.472 
" style="fill:none;stroke:#b0b0b0;stroke-linecap:square;stroke-width:0.8;"/>
     </g>
     <g id="line2d_12">
      <g>
       <use style="stroke:#000000;stroke-width:0.8;" x="398.487273" xlink:href="#mec1eec208a" y="307.584"/>
      </g>
     </g>
     <g id="text_6">
      <!-- 500 -->
      <defs>
       <path d="M 10.796875 72.90625 
L 49.515625 72.90625 
L 49.515625 64.59375 
L 19.828125 64.59375 
L 19.828125 46.734375 
Q 21.96875 47.46875 24.109375 47.828125 
Q 26.265625 48.1875 28.421875 48.1875 
Q 40.625 48.1875 47.75 41.5 
Q 54.890625 34.8125 54.890625 23.390625 
Q 54.890625 11.625 47.5625 5.09375 
Q 40.234375 -1.421875 26.90625 -1.421875 
Q 22.3125 -1.421875 17.546875 -0.640625 
Q 12.796875 0.140625 7.71875 1.703125 
L 7.71875 11.625 
Q 12.109375 9.234375 16.796875 8.0625 
Q 21.484375 6.890625 26.703125 6.890625 
Q 35.15625 6.890625 40.078125 11.328125 
Q 45.015625 15.765625 45.015625 23.390625 
Q 45.015625 31 40.078125 35.4375 
Q 35.15625 39.890625 26.703125 39.890625 
Q 22.75 39.890625 18.8125 39.015625 
Q 14.890625 38.140625 10.796875 36.28125 
z
" id="DejaVuSans-53"/>
      </defs>
      <g transform="translate(388.943523 322.182437)scale(0.1 -0.1)">
       <use xlink:href="#DejaVuSans-53"/>
       <use x="63.623047" xlink:href="#DejaVuSans-48"/>
       <use x="127.246094" xlink:href="#DejaVuSans-48"/>
      </g>
     </g>
    </g>
    <g id="text_7">
     <!-- Epoch -->
     <defs>
      <path d="M 9.8125 72.90625 
L 55.90625 72.90625 
L 55.90625 64.59375 
L 19.671875 64.59375 
L 19.671875 43.015625 
L 54.390625 43.015625 
L 54.390625 34.71875 
L 19.671875 34.71875 
L 19.671875 8.296875 
L 56.78125 8.296875 
L 56.78125 0 
L 9.8125 0 
z
" id="DejaVuSans-69"/>
      <path d="M 18.109375 8.203125 
L 18.109375 -20.796875 
L 9.078125 -20.796875 
L 9.078125 54.6875 
L 18.109375 54.6875 
L 18.109375 46.390625 
Q 20.953125 51.265625 25.265625 53.625 
Q 29.59375 56 35.59375 56 
Q 45.5625 56 51.78125 48.09375 
Q 58.015625 40.1875 58.015625 27.296875 
Q 58.015625 14.40625 51.78125 6.484375 
Q 45.5625 -1.421875 35.59375 -1.421875 
Q 29.59375 -1.421875 25.265625 0.953125 
Q 20.953125 3.328125 18.109375 8.203125 
z
M 48.6875 27.296875 
Q 48.6875 37.203125 44.609375 42.84375 
Q 40.53125 48.484375 33.40625 48.484375 
Q 26.265625 48.484375 22.1875 42.84375 
Q 18.109375 37.203125 18.109375 27.296875 
Q 18.109375 17.390625 22.1875 11.75 
Q 26.265625 6.109375 33.40625 6.109375 
Q 40.53125 6.109375 44.609375 11.75 
Q 48.6875 17.390625 48.6875 27.296875 
z
" id="DejaVuSans-112"/>
      <path d="M 30.609375 48.390625 
Q 23.390625 48.390625 19.1875 42.75 
Q 14.984375 37.109375 14.984375 27.296875 
Q 14.984375 17.484375 19.15625 11.84375 
Q 23.34375 6.203125 30.609375 6.203125 
Q 37.796875 6.203125 41.984375 11.859375 
Q 46.1875 17.53125 46.1875 27.296875 
Q 46.1875 37.015625 41.984375 42.703125 
Q 37.796875 48.390625 30.609375 48.390625 
z
M 30.609375 56 
Q 42.328125 56 49.015625 48.375 
Q 55.71875 40.765625 55.71875 27.296875 
Q 55.71875 13.875 49.015625 6.21875 
Q 42.328125 -1.421875 30.609375 -1.421875 
Q 18.84375 -1.421875 12.171875 6.21875 
Q 5.515625 13.875 5.515625 27.296875 
Q 5.515625 40.765625 12.171875 48.375 
Q 18.84375 56 30.609375 56 
z
" id="DejaVuSans-111"/>
      <path d="M 48.78125 52.59375 
L 48.78125 44.1875 
Q 44.96875 46.296875 41.140625 47.34375 
Q 37.3125 48.390625 33.40625 48.390625 
Q 24.65625 48.390625 19.8125 42.84375 
Q 14.984375 37.3125 14.984375 27.296875 
Q 14.984375 17.28125 19.8125 11.734375 
Q 24.65625 6.203125 33.40625 6.203125 
Q 37.3125 6.203125 41.140625 7.25 
Q 44.96875 8.296875 48.78125 10.40625 
L 48.78125 2.09375 
Q 45.015625 0.34375 40.984375 -0.53125 
Q 36.96875 -1.421875 32.421875 -1.421875 
Q 20.0625 -1.421875 12.78125 6.34375 
Q 5.515625 14.109375 5.515625 27.296875 
Q 5.515625 40.671875 12.859375 48.328125 
Q 20.21875 56 33.015625 56 
Q 37.15625 56 41.109375 55.140625 
Q 45.0625 54.296875 48.78125 52.59375 
z
" id="DejaVuSans-99"/>
      <path d="M 54.890625 33.015625 
L 54.890625 0 
L 45.90625 0 
L 45.90625 32.71875 
Q 45.90625 40.484375 42.875 44.328125 
Q 39.84375 48.1875 33.796875 48.1875 
Q 26.515625 48.1875 22.3125 43.546875 
Q 18.109375 38.921875 18.109375 30.90625 
L 18.109375 0 
L 9.078125 0 
L 9.078125 75.984375 
L 18.109375 75.984375 
L 18.109375 46.1875 
Q 21.34375 51.125 25.703125 53.5625 
Q 30.078125 56 35.796875 56 
Q 45.21875 56 50.046875 50.171875 
Q 54.890625 44.34375 54.890625 33.015625 
z
" id="DejaVuSans-104"/>
     </defs>
     <g transform="translate(220.849063 335.860562)scale(0.1 -0.1)">
      <use xlink:href="#DejaVuSans-69"/>
      <use x="63.183594" xlink:href="#DejaVuSans-112"/>
      <use x="126.660156" xlink:href="#DejaVuSans-111"/>
      <use x="187.841797" xlink:href="#DejaVuSans-99"/>
      <use x="242.822266" xlink:href="#DejaVuSans-104"/>
     </g>
    </g>
   </g>
   <g id="matplotlib.axis_2">
    <g id="ytick_1">
     <g id="line2d_13">
      <path clip-path="url(#pc98976dccb)" d="M 57.6 307.584 
L 414.72 307.584 
" style="fill:none;stroke:#b0b0b0;stroke-linecap:square;stroke-width:0.8;"/>
     </g>
     <g id="line2d_14">
      <defs>
       <path d="M 0 0 
L -3.5 0 
" id="ma5c7f67cc3" style="stroke:#000000;stroke-width:0.8;"/>
      </defs>
      <g>
       <use style="stroke:#000000;stroke-width:0.8;" x="57.6" xlink:href="#ma5c7f67cc3" y="307.584"/>
      </g>
     </g>
     <g id="text_8">
      <!-- 0.00 -->
      <defs>
       <path d="M 10.6875 12.40625 
L 21 12.40625 
L 21 0 
L 10.6875 0 
z
" id="DejaVuSans-46"/>
      </defs>
      <g transform="translate(28.334375 311.383219)scale(0.1 -0.1)">
       <use xlink:href="#DejaVuSans-48"/>
       <use x="63.623047" xlink:href="#DejaVuSans-46"/>
       <use x="95.410156" xlink:href="#DejaVuSans-48"/>
       <use x="159.033203" xlink:href="#DejaVuSans-48"/>
      </g>
     </g>
    </g>
    <g id="ytick_2">
     <g id="line2d_15">
      <path clip-path="url(#pc98976dccb)" d="M 57.6 274.32 
L 414.72 274.32 
" style="fill:none;stroke:#b0b0b0;stroke-linecap:square;stroke-width:0.8;"/>
     </g>
     <g id="line2d_16">
      <g>
       <use style="stroke:#000000;stroke-width:0.8;" x="57.6" xlink:href="#ma5c7f67cc3" y="274.32"/>
      </g>
     </g>
     <g id="text_9">
      <!-- 0.25 -->
      <g transform="translate(28.334375 278.119219)scale(0.1 -0.1)">
       <use xlink:href="#DejaVuSans-48"/>
       <use x="63.623047" xlink:href="#DejaVuSans-46"/>
       <use x="95.410156" xlink:href="#DejaVuSans-50"/>
       <use x="159.033203" xlink:href="#DejaVuSans-53"/>
      </g>
     </g>
    </g>
    <g id="ytick_3">
     <g id="line2d_17">
      <path clip-path="url(#pc98976dccb)" d="M 57.6 241.056 
L 414.72 241.056 
" style="fill:none;stroke:#b0b0b0;stroke-linecap:square;stroke-width:0.8;"/>
     </g>
     <g id="line2d_18">
      <g>
       <use style="stroke:#000000;stroke-width:0.8;" x="57.6" xlink:href="#ma5c7f67cc3" y="241.056"/>
      </g>
     </g>
     <g id="text_10">
      <!-- 0.50 -->
      <g transform="translate(28.334375 244.855219)scale(0.1 -0.1)">
       <use xlink:href="#DejaVuSans-48"/>
       <use x="63.623047" xlink:href="#DejaVuSans-46"/>
       <use x="95.410156" xlink:href="#DejaVuSans-53"/>
       <use x="159.033203" xlink:href="#DejaVuSans-48"/>
      </g>
     </g>
    </g>
    <g id="ytick_4">
     <g id="line2d_19">
      <path clip-path="url(#pc98976dccb)" d="M 57.6 207.792 
L 414.72 207.792 
" style="fill:none;stroke:#b0b0b0;stroke-linecap:square;stroke-width:0.8;"/>
     </g>
     <g id="line2d_20">
      <g>
       <use style="stroke:#000000;stroke-width:0.8;" x="57.6" xlink:href="#ma5c7f67cc3" y="207.792"/>
      </g>
     </g>
     <g id="text_11">
      <!-- 0.75 -->
      <defs>
       <path d="M 8.203125 72.90625 
L 55.078125 72.90625 
L 55.078125 68.703125 
L 28.609375 0 
L 18.3125 0 
L 43.21875 64.59375 
L 8.203125 64.59375 
z
" id="DejaVuSans-55"/>
      </defs>
      <g transform="translate(28.334375 211.591219)scale(0.1 -0.1)">
       <use xlink:href="#DejaVuSans-48"/>
       <use x="63.623047" xlink:href="#DejaVuSans-46"/>
       <use x="95.410156" xlink:href="#DejaVuSans-55"/>
       <use x="159.033203" xlink:href="#DejaVuSans-53"/>
      </g>
     </g>
    </g>
    <g id="ytick_5">
     <g id="line2d_21">
      <path clip-path="url(#pc98976dccb)" d="M 57.6 174.528 
L 414.72 174.528 
" style="fill:none;stroke:#b0b0b0;stroke-linecap:square;stroke-width:0.8;"/>
     </g>
     <g id="line2d_22">
      <g>
       <use style="stroke:#000000;stroke-width:0.8;" x="57.6" xlink:href="#ma5c7f67cc3" y="174.528"/>
      </g>
     </g>
     <g id="text_12">
      <!-- 1.00 -->
      <g transform="translate(28.334375 178.327219)scale(0.1 -0.1)">
       <use xlink:href="#DejaVuSans-49"/>
       <use x="63.623047" xlink:href="#DejaVuSans-46"/>
       <use x="95.410156" xlink:href="#DejaVuSans-48"/>
       <use x="159.033203" xlink:href="#DejaVuSans-48"/>
      </g>
     </g>
    </g>
    <g id="ytick_6">
     <g id="line2d_23">
      <path clip-path="url(#pc98976dccb)" d="M 57.6 141.264 
L 414.72 141.264 
" style="fill:none;stroke:#b0b0b0;stroke-linecap:square;stroke-width:0.8;"/>
     </g>
     <g id="line2d_24">
      <g>
       <use style="stroke:#000000;stroke-width:0.8;" x="57.6" xlink:href="#ma5c7f67cc3" y="141.264"/>
      </g>
     </g>
     <g id="text_13">
      <!-- 1.25 -->
      <g transform="translate(28.334375 145.063219)scale(0.1 -0.1)">
       <use xlink:href="#DejaVuSans-49"/>
       <use x="63.623047" xlink:href="#DejaVuSans-46"/>
       <use x="95.410156" xlink:href="#DejaVuSans-50"/>
       <use x="159.033203" xlink:href="#DejaVuSans-53"/>
      </g>
     </g>
    </g>
    <g id="ytick_7">
     <g id="line2d_25">
      <path clip-path="url(#pc98976dccb)" d="M 57.6 108 
L 414.72 108 
" style="fill:none;stroke:#b0b0b0;stroke-linecap:square;stroke-width:0.8;"/>
     </g>
     <g id="line2d_26">
      <g>
       <use style="stroke:#000000;stroke-width:0.8;" x="57.6" xlink:href="#ma5c7f67cc3" y="108"/>
      </g>
     </g>
     <g id="text_14">
      <!-- 1.50 -->
      <g transform="translate(28.334375 111.799219)scale(0.1 -0.1)">
       <use xlink:href="#DejaVuSans-49"/>
       <use x="63.623047" xlink:href="#DejaVuSans-46"/>
       <use x="95.410156" xlink:href="#DejaVuSans-53"/>
       <use x="159.033203" xlink:href="#DejaVuSans-48"/>
      </g>
     </g>
    </g>
    <g id="ytick_8">
     <g id="line2d_27">
      <path clip-path="url(#pc98976dccb)" d="M 57.6 74.736 
L 414.72 74.736 
" style="fill:none;stroke:#b0b0b0;stroke-linecap:square;stroke-width:0.8;"/>
     </g>
     <g id="line2d_28">
      <g>
       <use style="stroke:#000000;stroke-width:0.8;" x="57.6" xlink:href="#ma5c7f67cc3" y="74.736"/>
      </g>
     </g>
     <g id="text_15">
      <!-- 1.75 -->
      <g transform="translate(28.334375 78.535219)scale(0.1 -0.1)">
       <use xlink:href="#DejaVuSans-49"/>
       <use x="63.623047" xlink:href="#DejaVuSans-46"/>
       <use x="95.410156" xlink:href="#DejaVuSans-55"/>
       <use x="159.033203" xlink:href="#DejaVuSans-53"/>
      </g>
     </g>
    </g>
    <g id="ytick_9">
     <g id="line2d_29">
      <path clip-path="url(#pc98976dccb)" d="M 57.6 41.472 
L 414.72 41.472 
" style="fill:none;stroke:#b0b0b0;stroke-linecap:square;stroke-width:0.8;"/>
     </g>
     <g id="line2d_30">
      <g>
       <use style="stroke:#000000;stroke-width:0.8;" x="57.6" xlink:href="#ma5c7f67cc3" y="41.472"/>
      </g>
     </g>
     <g id="text_16">
      <!-- 2.00 -->
      <g transform="translate(28.334375 45.271219)scale(0.1 -0.1)">
       <use xlink:href="#DejaVuSans-50"/>
       <use x="63.623047" xlink:href="#DejaVuSans-46"/>
       <use x="95.410156" xlink:href="#DejaVuSans-48"/>
       <use x="159.033203" xlink:href="#DejaVuSans-48"/>
      </g>
     </g>
    </g>
    <g id="text_17">
     <!-- Perplexity -->
     <defs>
      <path d="M 19.671875 64.796875 
L 19.671875 37.40625 
L 32.078125 37.40625 
Q 38.96875 37.40625 42.71875 40.96875 
Q 46.484375 44.53125 46.484375 51.125 
Q 46.484375 57.671875 42.71875 61.234375 
Q 38.96875 64.796875 32.078125 64.796875 
z
M 9.8125 72.90625 
L 32.078125 72.90625 
Q 44.34375 72.90625 50.609375 67.359375 
Q 56.890625 61.8125 56.890625 51.125 
Q 56.890625 40.328125 50.609375 34.8125 
Q 44.34375 29.296875 32.078125 29.296875 
L 19.671875 29.296875 
L 19.671875 0 
L 9.8125 0 
z
" id="DejaVuSans-80"/>
      <path d="M 56.203125 29.59375 
L 56.203125 25.203125 
L 14.890625 25.203125 
Q 15.484375 15.921875 20.484375 11.0625 
Q 25.484375 6.203125 34.421875 6.203125 
Q 39.59375 6.203125 44.453125 7.46875 
Q 49.3125 8.734375 54.109375 11.28125 
L 54.109375 2.78125 
Q 49.265625 0.734375 44.1875 -0.34375 
Q 39.109375 -1.421875 33.890625 -1.421875 
Q 20.796875 -1.421875 13.15625 6.1875 
Q 5.515625 13.8125 5.515625 26.8125 
Q 5.515625 40.234375 12.765625 48.109375 
Q 20.015625 56 32.328125 56 
Q 43.359375 56 49.78125 48.890625 
Q 56.203125 41.796875 56.203125 29.59375 
z
M 47.21875 32.234375 
Q 47.125 39.59375 43.09375 43.984375 
Q 39.0625 48.390625 32.421875 48.390625 
Q 24.90625 48.390625 20.390625 44.140625 
Q 15.875 39.890625 15.1875 32.171875 
z
" id="DejaVuSans-101"/>
      <path d="M 41.109375 46.296875 
Q 39.59375 47.171875 37.8125 47.578125 
Q 36.03125 48 33.890625 48 
Q 26.265625 48 22.1875 43.046875 
Q 18.109375 38.09375 18.109375 28.8125 
L 18.109375 0 
L 9.078125 0 
L 9.078125 54.6875 
L 18.109375 54.6875 
L 18.109375 46.1875 
Q 20.953125 51.171875 25.484375 53.578125 
Q 30.03125 56 36.53125 56 
Q 37.453125 56 38.578125 55.875 
Q 39.703125 55.765625 41.0625 55.515625 
z
" id="DejaVuSans-114"/>
      <path d="M 9.421875 75.984375 
L 18.40625 75.984375 
L 18.40625 0 
L 9.421875 0 
z
" id="DejaVuSans-108"/>
      <path d="M 54.890625 54.6875 
L 35.109375 28.078125 
L 55.90625 0 
L 45.3125 0 
L 29.390625 21.484375 
L 13.484375 0 
L 2.875 0 
L 24.125 28.609375 
L 4.6875 54.6875 
L 15.28125 54.6875 
L 29.78125 35.203125 
L 44.28125 54.6875 
z
" id="DejaVuSans-120"/>
      <path d="M 9.421875 54.6875 
L 18.40625 54.6875 
L 18.40625 0 
L 9.421875 0 
z
M 9.421875 75.984375 
L 18.40625 75.984375 
L 18.40625 64.59375 
L 9.421875 64.59375 
z
" id="DejaVuSans-105"/>
      <path d="M 18.3125 70.21875 
L 18.3125 54.6875 
L 36.8125 54.6875 
L 36.8125 47.703125 
L 18.3125 47.703125 
L 18.3125 18.015625 
Q 18.3125 11.328125 20.140625 9.421875 
Q 21.96875 7.515625 27.59375 7.515625 
L 36.8125 7.515625 
L 36.8125 0 
L 27.59375 0 
Q 17.1875 0 13.234375 3.875 
Q 9.28125 7.765625 9.28125 18.015625 
L 9.28125 47.703125 
L 2.6875 47.703125 
L 2.6875 54.6875 
L 9.28125 54.6875 
L 9.28125 70.21875 
z
" id="DejaVuSans-116"/>
      <path d="M 32.171875 -5.078125 
Q 28.375 -14.84375 24.75 -17.8125 
Q 21.140625 -20.796875 15.09375 -20.796875 
L 7.90625 -20.796875 
L 7.90625 -13.28125 
L 13.1875 -13.28125 
Q 16.890625 -13.28125 18.9375 -11.515625 
Q 21 -9.765625 23.484375 -3.21875 
L 25.09375 0.875 
L 2.984375 54.6875 
L 12.5 54.6875 
L 29.59375 11.921875 
L 46.6875 54.6875 
L 56.203125 54.6875 
z
" id="DejaVuSans-121"/>
     </defs>
     <g transform="translate(22.254687 199.579563)rotate(-90)scale(0.1 -0.1)">
      <use xlink:href="#DejaVuSans-80"/>
      <use x="60.255859" xlink:href="#DejaVuSans-101"/>
      <use x="121.779297" xlink:href="#DejaVuSans-114"/>
      <use x="162.892578" xlink:href="#DejaVuSans-112"/>
      <use x="226.369141" xlink:href="#DejaVuSans-108"/>
      <use x="254.152344" xlink:href="#DejaVuSans-101"/>
      <use x="315.660156" xlink:href="#DejaVuSans-120"/>
      <use x="374.839844" xlink:href="#DejaVuSans-105"/>
      <use x="402.623047" xlink:href="#DejaVuSans-116"/>
      <use x="441.832031" xlink:href="#DejaVuSans-121"/>
     </g>
    </g>
   </g>
   <g id="line2d_31">
    <path clip-path="url(#pc98976dccb)" d="M 86.015833 -1 
L 86.194323 1.5552 
L 86.844934 6.87744 
L 87.495544 17.52192 
L 88.146154 21.5136 
L 88.796764 26.83584 
L 89.447375 29.49696 
L 90.748595 37.48032 
L 91.399206 34.8192 
L 92.049816 26.83584 
L 92.700426 14.8608 
L 93.351037 44.13312 
L 94.001647 48.1248 
L 94.652257 54.7776 
L 95.302868 57.43872 
L 95.953478 54.7776 
L 96.604088 62.76096 
L 97.254698 58.76928 
L 98.555919 84.04992 
L 99.206529 93.36384 
L 99.85714 85.38048 
L 100.50775 97.35552 
L 101.15836 102.67776 
L 101.808971 106.66944 
L 102.459581 113.32224 
L 103.110191 114.6528 
L 103.760802 113.32224 
L 104.411412 123.96672 
L 105.062022 122.63616 
L 105.712633 114.6528 
L 106.363243 121.3056 
L 107.013853 129.28896 
L 107.664463 133.28064 
L 108.315074 131.95008 
L 108.965684 131.95008 
L 109.616294 97.35552 
L 110.266905 122.63616 
L 110.917515 135.94176 
L 111.568125 137.27232 
L 112.218736 137.27232 
L 112.869346 127.9584 
L 113.519956 125.29728 
L 114.170567 137.27232 
L 116.122398 137.27232 
L 116.773008 133.28064 
L 117.423618 137.27232 
L 118.074228 142.59456 
L 118.724839 145.25568 
L 120.026059 145.25568 
L 120.67667 143.92512 
L 121.32728 145.25568 
L 121.97789 139.93344 
L 122.628501 142.59456 
L 123.279111 141.264 
L 123.929721 147.9168 
L 124.580332 151.90848 
L 125.230942 153.23904 
L 125.881552 153.23904 
L 126.532163 151.90848 
L 127.182773 135.94176 
L 127.833383 146.58624 
L 129.134604 154.5696 
L 129.785214 155.90016 
L 130.435824 153.23904 
L 131.086435 153.23904 
L 131.737045 149.24736 
L 132.387655 142.59456 
L 133.038266 149.24736 
L 133.688876 149.24736 
L 134.339486 154.5696 
L 134.990097 155.90016 
L 135.640707 154.5696 
L 136.291317 154.5696 
L 136.941927 142.59456 
L 137.592538 147.9168 
L 138.243148 154.5696 
L 138.893758 155.90016 
L 139.544369 155.90016 
L 140.194979 153.23904 
L 140.845589 142.59456 
L 141.4962 138.60288 
L 142.14681 147.9168 
L 143.448031 155.90016 
L 144.749251 153.23904 
L 145.399862 155.90016 
L 146.050472 153.23904 
L 147.351692 153.23904 
L 148.002303 155.90016 
L 148.652913 154.5696 
L 149.303523 135.94176 
L 150.604744 149.24736 
L 151.255354 151.90848 
L 151.905965 155.90016 
L 153.857796 155.90016 
L 154.508406 153.23904 
L 155.159016 147.9168 
L 156.460237 139.93344 
L 157.110847 153.23904 
L 157.761457 155.90016 
L 159.062678 155.90016 
L 159.713288 151.90848 
L 160.363899 150.57792 
L 161.014509 151.90848 
L 161.665119 155.90016 
L 162.96634 147.9168 
L 163.61695 153.23904 
L 164.267561 153.23904 
L 164.918171 147.9168 
L 165.568781 153.23904 
L 166.219392 153.23904 
L 166.870002 157.23072 
L 167.520612 157.23072 
L 168.171222 155.90016 
L 168.821833 151.90848 
L 169.472443 155.90016 
L 170.773664 155.90016 
L 171.424274 157.23072 
L 172.074884 157.23072 
L 173.376105 154.5696 
L 174.677326 157.23072 
L 175.978546 157.23072 
L 176.629156 151.90848 
L 177.279767 151.90848 
L 177.930377 150.57792 
L 178.580987 154.5696 
L 179.231598 155.90016 
L 179.882208 154.5696 
L 180.532818 157.23072 
L 181.183429 157.23072 
L 181.834039 154.5696 
L 182.484649 154.5696 
L 183.13526 157.23072 
L 183.78587 150.57792 
L 184.43648 155.90016 
L 185.087091 157.23072 
L 188.340142 157.23072 
L 188.990752 151.90848 
L 189.641363 155.90016 
L 190.291973 154.5696 
L 190.942583 157.23072 
L 191.593194 157.23072 
L 192.243804 151.90848 
L 192.894414 154.5696 
L 193.545025 153.23904 
L 194.195635 157.23072 
L 194.846245 154.5696 
L 195.496856 155.90016 
L 196.147466 154.5696 
L 197.448686 157.23072 
L 198.099297 155.90016 
L 198.749907 155.90016 
L 200.051128 150.57792 
L 200.701738 155.90016 
L 201.352348 157.23072 
L 202.002959 157.23072 
L 202.653569 158.56128 
L 203.304179 157.23072 
L 204.6054 157.23072 
L 205.25601 154.5696 
L 205.906621 157.23072 
L 206.557231 154.5696 
L 207.207841 157.23072 
L 207.858451 157.23072 
L 208.509062 154.5696 
L 210.460893 158.56128 
L 211.762113 158.56128 
L 212.412724 157.23072 
L 213.063334 154.5696 
L 213.713944 147.9168 
L 214.364555 153.23904 
L 215.015165 157.23072 
L 216.966996 157.23072 
L 218.268216 154.5696 
L 218.918827 155.90016 
L 219.569437 155.90016 
L 220.220047 157.23072 
L 220.870658 157.23072 
L 221.521268 155.90016 
L 222.171878 157.23072 
L 223.473099 157.23072 
L 224.123709 155.90016 
L 224.77432 149.24736 
L 225.42493 157.23072 
L 226.72615 157.23072 
L 227.376761 155.90016 
L 228.677981 155.90016 
L 229.328592 154.5696 
L 229.979202 157.23072 
L 230.629812 157.23072 
L 231.280423 154.5696 
L 231.931033 157.23072 
L 233.882864 157.23072 
L 235.834695 153.23904 
L 236.485305 157.23072 
L 237.135915 154.5696 
L 237.786526 155.90016 
L 238.437136 154.5696 
L 239.087746 157.23072 
L 239.738357 158.56128 
L 240.388967 157.23072 
L 244.943239 157.23072 
L 245.59385 158.56128 
L 246.24446 155.90016 
L 246.89507 154.5696 
L 247.54568 158.56128 
L 248.196291 158.56128 
L 248.846901 157.23072 
L 250.148122 157.23072 
L 250.798732 155.90016 
L 251.449342 157.23072 
L 252.750563 157.23072 
L 253.401173 158.56128 
L 254.051784 157.23072 
L 254.702394 158.56128 
L 255.353004 155.90016 
L 256.003615 157.23072 
L 257.955445 157.23072 
L 258.606056 155.90016 
L 259.256666 155.90016 
L 259.907276 157.23072 
L 260.557887 155.90016 
L 261.208497 157.23072 
L 261.859107 157.23072 
L 262.509718 153.23904 
L 263.160328 154.5696 
L 263.810938 153.23904 
L 264.461549 157.23072 
L 265.112159 155.90016 
L 265.762769 155.90016 
L 266.413379 157.23072 
L 267.06399 157.23072 
L 267.7146 155.90016 
L 268.36521 157.23072 
L 269.015821 157.23072 
L 269.666431 158.56128 
L 270.317041 155.90016 
L 270.967652 157.23072 
L 271.618262 157.23072 
L 272.268872 158.56128 
L 272.919483 157.23072 
L 273.570093 158.56128 
L 274.871314 155.90016 
L 275.521924 157.23072 
L 276.172534 157.23072 
L 276.823144 155.90016 
L 277.473755 157.23072 
L 278.774975 157.23072 
L 279.425586 155.90016 
L 280.076196 157.23072 
L 280.726806 157.23072 
L 281.377417 155.90016 
L 283.329248 155.90016 
L 284.630468 150.57792 
L 285.281079 155.90016 
L 285.931689 157.23072 
L 286.582299 155.90016 
L 287.232909 157.23072 
L 288.53413 157.23072 
L 289.18474 155.90016 
L 289.835351 151.90848 
L 290.485961 155.90016 
L 291.787182 158.56128 
L 292.437792 157.23072 
L 293.088402 157.23072 
L 293.739013 158.56128 
L 294.389623 157.23072 
L 295.040233 158.56128 
L 295.690844 157.23072 
L 296.341454 157.23072 
L 296.992064 155.90016 
L 297.642674 155.90016 
L 298.293285 157.23072 
L 300.245116 157.23072 
L 300.895726 155.90016 
L 301.546336 153.23904 
L 302.196947 155.90016 
L 302.847557 157.23072 
L 304.799388 157.23072 
L 305.449998 154.5696 
L 306.100608 157.23072 
L 306.751219 155.90016 
L 308.052439 155.90016 
L 308.70305 154.5696 
L 309.35366 154.5696 
L 310.00427 157.23072 
L 310.654881 158.56128 
L 311.305491 157.23072 
L 311.956101 158.56128 
L 312.606712 157.23072 
L 315.209153 157.23072 
L 315.859763 158.56128 
L 316.510373 157.23072 
L 317.811594 157.23072 
L 318.462204 158.56128 
L 319.763425 158.56128 
L 320.414035 157.23072 
L 321.064646 158.56128 
L 321.715256 157.23072 
L 323.016477 157.23072 
L 323.667087 158.56128 
L 324.317697 157.23072 
L 324.968308 158.56128 
L 325.618918 158.56128 
L 326.269528 154.5696 
L 326.920138 155.90016 
L 327.570749 158.56128 
L 328.871969 158.56128 
L 330.17319 155.90016 
L 330.8238 155.90016 
L 331.474411 157.23072 
L 332.125021 157.23072 
L 332.775631 158.56128 
L 336.679293 158.56128 
L 337.329903 157.23072 
L 344.486617 157.23072 
L 345.137227 158.56128 
L 346.438448 158.56128 
L 347.089058 157.23072 
L 347.739668 147.9168 
L 348.390279 153.23904 
L 349.040889 155.90016 
L 351.64333 155.90016 
L 352.293941 157.23072 
L 352.944551 157.23072 
L 354.245772 154.5696 
L 354.896382 155.90016 
L 355.546992 155.90016 
L 356.197602 154.5696 
L 358.149433 158.56128 
L 362.703706 158.56128 
L 363.354316 155.90016 
L 364.004926 158.56128 
L 364.655537 158.56128 
L 365.306147 155.90016 
L 365.956757 157.23072 
L 366.607367 154.5696 
L 367.257978 158.56128 
L 369.860419 158.56128 
L 370.511029 157.23072 
L 371.16164 157.23072 
L 371.81225 158.56128 
L 373.113471 158.56128 
L 373.764081 157.23072 
L 374.414691 158.56128 
L 375.065302 158.56128 
L 375.715912 157.23072 
L 376.366522 157.23072 
L 377.017132 158.56128 
L 385.475066 158.56128 
L 386.125677 157.23072 
L 386.776287 157.23072 
L 387.426897 158.56128 
L 398.487273 158.56128 
L 398.487273 158.56128 
" style="fill:none;stroke:#1f77b4;stroke-linecap:square;stroke-width:1.5;"/>
   </g>
   <g id="line2d_32">
    <path clip-path="url(#pc98976dccb)" d="M 82.195659 -1 
L 82.290661 2.88576 
L 82.941272 8.208 
L 83.591882 9.53856 
L 84.242492 22.84416 
L 84.893103 32.15808 
L 85.543713 32.15808 
L 86.194323 38.81088 
L 86.844934 46.79424 
L 87.495544 49.45536 
L 88.146154 45.46368 
L 88.796764 54.7776 
L 89.447375 50.78592 
L 90.097985 57.43872 
L 90.748595 61.4304 
L 91.399206 56.10816 
L 92.049816 33.48864 
L 92.700426 53.44704 
L 93.351037 54.7776 
L 94.001647 66.75264 
L 94.652257 65.42208 
L 95.302868 73.40544 
L 96.604088 84.04992 
L 97.254698 86.71104 
L 97.905309 94.6944 
L 98.555919 105.33888 
L 99.206529 110.66112 
L 99.85714 111.99168 
L 101.808971 123.96672 
L 102.459581 119.97504 
L 103.110191 129.28896 
L 103.760802 131.95008 
L 104.411412 131.95008 
L 105.062022 130.61952 
L 105.712633 130.61952 
L 106.363243 135.94176 
L 107.013853 138.60288 
L 107.664463 138.60288 
L 108.315074 137.27232 
L 108.965684 137.27232 
L 109.616294 130.61952 
L 110.266905 139.93344 
L 110.917515 139.93344 
L 111.568125 142.59456 
L 112.218736 142.59456 
L 112.869346 121.3056 
L 113.519956 139.93344 
L 114.170567 142.59456 
L 114.821177 146.58624 
L 116.773008 142.59456 
L 117.423618 143.92512 
L 118.074228 149.24736 
L 118.724839 147.9168 
L 120.67667 147.9168 
L 121.32728 146.58624 
L 121.97789 141.264 
L 122.628501 143.92512 
L 123.279111 149.24736 
L 124.580332 151.90848 
L 125.230942 150.57792 
L 125.881552 150.57792 
L 126.532163 133.28064 
L 127.182773 147.9168 
L 127.833383 149.24736 
L 128.483993 153.23904 
L 129.134604 153.23904 
L 129.785214 151.90848 
L 130.435824 151.90848 
L 131.086435 150.57792 
L 131.737045 150.57792 
L 132.387655 143.92512 
L 133.038266 151.90848 
L 133.688876 147.9168 
L 134.339486 150.57792 
L 134.990097 151.90848 
L 136.291317 149.24736 
L 136.941927 143.92512 
L 137.592538 149.24736 
L 138.243148 151.90848 
L 138.893758 150.57792 
L 140.194979 150.57792 
L 140.845589 146.58624 
L 141.4962 149.24736 
L 142.79742 151.90848 
L 143.448031 151.90848 
L 144.098641 147.9168 
L 144.749251 151.90848 
L 145.399862 147.9168 
L 147.351692 151.90848 
L 148.002303 147.9168 
L 148.652913 150.57792 
L 149.303523 147.9168 
L 149.954134 149.24736 
L 150.604744 146.58624 
L 151.255354 149.24736 
L 151.905965 150.57792 
L 152.556575 150.57792 
L 153.207185 151.90848 
L 153.857796 150.57792 
L 154.508406 146.58624 
L 155.159016 149.24736 
L 155.809627 145.25568 
L 156.460237 149.24736 
L 157.761457 151.90848 
L 159.062678 151.90848 
L 159.713288 149.24736 
L 161.014509 151.90848 
L 161.665119 151.90848 
L 162.31573 147.9168 
L 162.96634 147.9168 
L 163.61695 151.90848 
L 164.267561 149.24736 
L 164.918171 150.57792 
L 165.568781 150.57792 
L 166.219392 151.90848 
L 167.520612 151.90848 
L 168.171222 150.57792 
L 168.821833 150.57792 
L 169.472443 151.90848 
L 170.123053 150.57792 
L 170.773664 151.90848 
L 174.677326 151.90848 
L 175.327936 153.23904 
L 175.978546 151.90848 
L 176.629156 129.28896 
L 177.279767 151.90848 
L 177.930377 151.90848 
L 178.580987 150.57792 
L 179.882208 150.57792 
L 180.532818 151.90848 
L 181.183429 151.90848 
L 181.834039 143.92512 
L 182.484649 151.90848 
L 183.13526 151.90848 
L 183.78587 150.57792 
L 185.087091 153.23904 
L 185.737701 151.90848 
L 186.388311 153.23904 
L 187.038921 151.90848 
L 187.689532 153.23904 
L 188.340142 149.24736 
L 188.990752 151.90848 
L 190.291973 151.90848 
L 190.942583 153.23904 
L 191.593194 151.90848 
L 192.243804 147.9168 
L 192.894414 153.23904 
L 194.195635 153.23904 
L 194.846245 150.57792 
L 195.496856 150.57792 
L 196.147466 151.90848 
L 198.099297 151.90848 
L 198.749907 141.264 
L 199.400517 150.57792 
L 200.051128 150.57792 
L 200.701738 153.23904 
L 201.352348 151.90848 
L 202.002959 153.23904 
L 202.653569 151.90848 
L 203.304179 153.23904 
L 203.95479 153.23904 
L 204.6054 151.90848 
L 207.207841 151.90848 
L 207.858451 153.23904 
L 208.509062 153.23904 
L 209.159672 151.90848 
L 209.810282 153.23904 
L 213.063334 153.23904 
L 213.713944 150.57792 
L 214.364555 151.90848 
L 216.316385 151.90848 
L 216.966996 146.58624 
L 217.617606 151.90848 
L 222.822489 151.90848 
L 223.473099 153.23904 
L 224.123709 150.57792 
L 224.77432 151.90848 
L 229.979202 151.90848 
L 230.629812 146.58624 
L 231.280423 151.90848 
L 231.931033 151.90848 
L 232.581643 153.23904 
L 234.533474 153.23904 
L 235.184085 150.57792 
L 236.485305 153.23904 
L 237.135915 151.90848 
L 239.738357 151.90848 
L 240.388967 153.23904 
L 241.039577 153.23904 
L 241.690188 151.90848 
L 245.59385 151.90848 
L 246.24446 146.58624 
L 246.89507 151.90848 
L 253.401173 151.90848 
L 254.051784 153.23904 
L 254.702394 151.90848 
L 255.353004 153.23904 
L 256.003615 151.90848 
L 256.654225 153.23904 
L 257.304835 151.90848 
L 257.955445 153.23904 
L 258.606056 151.90848 
L 261.859107 151.90848 
L 262.509718 150.57792 
L 263.160328 151.90848 
L 266.413379 151.90848 
L 267.06399 149.24736 
L 267.7146 151.90848 
L 271.618262 151.90848 
L 272.268872 153.23904 
L 273.570093 153.23904 
L 274.220703 151.90848 
L 282.028027 151.90848 
L 282.678637 146.58624 
L 283.329248 151.90848 
L 283.979858 146.58624 
L 284.630468 150.57792 
L 286.582299 150.57792 
L 287.232909 151.90848 
L 299.594505 151.90848 
L 300.245116 153.23904 
L 300.895726 151.90848 
L 302.847557 151.90848 
L 303.498167 150.57792 
L 304.148778 151.90848 
L 304.799388 146.58624 
L 305.449998 150.57792 
L 306.100608 151.90848 
L 306.751219 149.24736 
L 307.401829 151.90848 
L 308.052439 149.24736 
L 308.70305 149.24736 
L 310.00427 151.90848 
L 312.606712 151.90848 
L 313.257322 153.23904 
L 313.907932 151.90848 
L 322.365866 151.90848 
L 323.016477 153.23904 
L 323.667087 151.90848 
L 325.618918 151.90848 
L 326.269528 149.24736 
L 326.920138 151.90848 
L 329.52258 151.90848 
L 330.17319 149.24736 
L 330.8238 151.90848 
L 339.281734 151.90848 
L 339.932345 150.57792 
L 340.582955 150.57792 
L 341.233565 151.90848 
L 346.438448 151.90848 
L 347.089058 147.9168 
L 347.739668 147.9168 
L 348.390279 150.57792 
L 354.896382 150.57792 
L 355.546992 149.24736 
L 356.197602 150.57792 
L 356.848213 150.57792 
L 357.498823 153.23904 
L 359.450654 153.23904 
L 360.101264 151.90848 
L 365.956757 151.90848 
L 366.607367 150.57792 
L 367.257978 151.90848 
L 369.209809 151.90848 
L 369.860419 150.57792 
L 370.511029 151.90848 
L 382.872625 151.90848 
L 383.523236 153.23904 
L 384.173846 151.90848 
L 384.824456 153.23904 
L 385.475066 153.23904 
L 386.125677 151.90848 
L 386.776287 151.90848 
L 387.426897 153.23904 
L 388.077508 151.90848 
L 391.330559 151.90848 
L 391.98117 153.23904 
L 393.28239 153.23904 
L 393.933001 151.90848 
L 394.583611 153.23904 
L 395.234221 151.90848 
L 397.186052 151.90848 
L 397.836662 153.23904 
L 398.487273 153.23904 
L 398.487273 153.23904 
" style="fill:none;stroke:#ff7f0e;stroke-linecap:square;stroke-width:1.5;"/>
   </g>
   <g id="patch_3">
    <path d="M 57.6 307.584 
L 57.6 41.472 
" style="fill:none;stroke:#000000;stroke-linecap:square;stroke-linejoin:miter;stroke-width:0.8;"/>
   </g>
   <g id="patch_4">
    <path d="M 414.72 307.584 
L 414.72 41.472 
" style="fill:none;stroke:#000000;stroke-linecap:square;stroke-linejoin:miter;stroke-width:0.8;"/>
   </g>
   <g id="patch_5">
    <path d="M 57.6 307.584 
L 414.72 307.584 
" style="fill:none;stroke:#000000;stroke-linecap:square;stroke-linejoin:miter;stroke-width:0.8;"/>
   </g>
   <g id="patch_6">
    <path d="M 57.6 41.472 
L 414.72 41.472 
" style="fill:none;stroke:#000000;stroke-linecap:square;stroke-linejoin:miter;stroke-width:0.8;"/>
   </g>
   <g id="legend_1">
    <g id="patch_7">
     <path d="M 350.279375 78.82825 
L 407.72 78.82825 
Q 409.72 78.82825 409.72 76.82825 
L 409.72 48.472 
Q 409.72 46.472 407.72 46.472 
L 350.279375 46.472 
Q 348.279375 46.472 348.279375 48.472 
L 348.279375 76.82825 
Q 348.279375 78.82825 350.279375 78.82825 
z
" style="fill:#ffffff;opacity:0.8;stroke:#cccccc;stroke-linejoin:miter;"/>
    </g>
    <g id="line2d_33">
     <path d="M 352.279375 54.570437 
L 372.279375 54.570437 
" style="fill:none;stroke:#1f77b4;stroke-linecap:square;stroke-width:1.5;"/>
    </g>
    <g id="line2d_34"/>
    <g id="text_18">
     <!-- Train -->
     <defs>
      <path d="M -0.296875 72.90625 
L 61.375 72.90625 
L 61.375 64.59375 
L 35.5 64.59375 
L 35.5 0 
L 25.59375 0 
L 25.59375 64.59375 
L -0.296875 64.59375 
z
" id="DejaVuSans-84"/>
      <path d="M 34.28125 27.484375 
Q 23.390625 27.484375 19.1875 25 
Q 14.984375 22.515625 14.984375 16.5 
Q 14.984375 11.71875 18.140625 8.90625 
Q 21.296875 6.109375 26.703125 6.109375 
Q 34.1875 6.109375 38.703125 11.40625 
Q 43.21875 16.703125 43.21875 25.484375 
L 43.21875 27.484375 
z
M 52.203125 31.203125 
L 52.203125 0 
L 43.21875 0 
L 43.21875 8.296875 
Q 40.140625 3.328125 35.546875 0.953125 
Q 30.953125 -1.421875 24.3125 -1.421875 
Q 15.921875 -1.421875 10.953125 3.296875 
Q 6 8.015625 6 15.921875 
Q 6 25.140625 12.171875 29.828125 
Q 18.359375 34.515625 30.609375 34.515625 
L 43.21875 34.515625 
L 43.21875 35.40625 
Q 43.21875 41.609375 39.140625 45 
Q 35.0625 48.390625 27.6875 48.390625 
Q 23 48.390625 18.546875 47.265625 
Q 14.109375 46.140625 10.015625 43.890625 
L 10.015625 52.203125 
Q 14.9375 54.109375 19.578125 55.046875 
Q 24.21875 56 28.609375 56 
Q 40.484375 56 46.34375 49.84375 
Q 52.203125 43.703125 52.203125 31.203125 
z
" id="DejaVuSans-97"/>
      <path d="M 54.890625 33.015625 
L 54.890625 0 
L 45.90625 0 
L 45.90625 32.71875 
Q 45.90625 40.484375 42.875 44.328125 
Q 39.84375 48.1875 33.796875 48.1875 
Q 26.515625 48.1875 22.3125 43.546875 
Q 18.109375 38.921875 18.109375 30.90625 
L 18.109375 0 
L 9.078125 0 
L 9.078125 54.6875 
L 18.109375 54.6875 
L 18.109375 46.1875 
Q 21.34375 51.125 25.703125 53.5625 
Q 30.078125 56 35.796875 56 
Q 45.21875 56 50.046875 50.171875 
Q 54.890625 44.34375 54.890625 33.015625 
z
" id="DejaVuSans-110"/>
     </defs>
     <g transform="translate(380.279375 58.070437)scale(0.1 -0.1)">
      <use xlink:href="#DejaVuSans-84"/>
      <use x="60.865234" xlink:href="#DejaVuSans-114"/>
      <use x="101.978516" xlink:href="#DejaVuSans-97"/>
      <use x="163.257812" xlink:href="#DejaVuSans-105"/>
      <use x="191.041016" xlink:href="#DejaVuSans-110"/>
     </g>
    </g>
    <g id="line2d_35">
     <path d="M 352.279375 69.248562 
L 372.279375 69.248562 
" style="fill:none;stroke:#ff7f0e;stroke-linecap:square;stroke-width:1.5;"/>
    </g>
    <g id="line2d_36"/>
    <g id="text_19">
     <!-- Valid -->
     <defs>
      <path d="M 28.609375 0 
L 0.78125 72.90625 
L 11.078125 72.90625 
L 34.1875 11.53125 
L 57.328125 72.90625 
L 67.578125 72.90625 
L 39.796875 0 
z
" id="DejaVuSans-86"/>
      <path d="M 45.40625 46.390625 
L 45.40625 75.984375 
L 54.390625 75.984375 
L 54.390625 0 
L 45.40625 0 
L 45.40625 8.203125 
Q 42.578125 3.328125 38.25 0.953125 
Q 33.9375 -1.421875 27.875 -1.421875 
Q 17.96875 -1.421875 11.734375 6.484375 
Q 5.515625 14.40625 5.515625 27.296875 
Q 5.515625 40.1875 11.734375 48.09375 
Q 17.96875 56 27.875 56 
Q 33.9375 56 38.25 53.625 
Q 42.578125 51.265625 45.40625 46.390625 
z
M 14.796875 27.296875 
Q 14.796875 17.390625 18.875 11.75 
Q 22.953125 6.109375 30.078125 6.109375 
Q 37.203125 6.109375 41.296875 11.75 
Q 45.40625 17.390625 45.40625 27.296875 
Q 45.40625 37.203125 41.296875 42.84375 
Q 37.203125 48.484375 30.078125 48.484375 
Q 22.953125 48.484375 18.875 42.84375 
Q 14.796875 37.203125 14.796875 27.296875 
z
" id="DejaVuSans-100"/>
     </defs>
     <g transform="translate(380.279375 72.748562)scale(0.1 -0.1)">
      <use xlink:href="#DejaVuSans-86"/>
      <use x="68.298828" xlink:href="#DejaVuSans-97"/>
      <use x="129.578125" xlink:href="#DejaVuSans-108"/>
      <use x="157.361328" xlink:href="#DejaVuSans-105"/>
      <use x="185.144531" xlink:href="#DejaVuSans-100"/>
     </g>
    </g>
   </g>
  </g>
 </g>
 <defs>
  <clipPath id="pc98976dccb">
   <rect height="266.112" width="357.12" x="57.6" y="41.472"/>
  </clipPath>
 </defs>
</svg>
