<?xml version="1.0" encoding="utf-8" standalone="no"?>
<!DOCTYPE svg PUBLIC "-//W3C//DTD SVG 1.1//EN"
  "http://www.w3.org/Graphics/SVG/1.1/DTD/svg11.dtd">
<!-- Created with matplotlib (https://matplotlib.org/) -->
<svg height="345.6pt" version="1.1" viewBox="0 0 460.8 345.6" width="460.8pt" xmlns="http://www.w3.org/2000/svg" xmlns:xlink="http://www.w3.org/1999/xlink">
 <defs>
  <style type="text/css">
*{stroke-linecap:butt;stroke-linejoin:round;}
  </style>
 </defs>
 <g id="figure_1">
  <g id="patch_1">
   <path d="M 0 345.6 
L 460.8 345.6 
L 460.8 0 
L 0 0 
z
" style="fill:#ffffff;"/>
  </g>
  <g id="axes_1">
   <g id="patch_2">
    <path d="M 57.6 307.584 
L 414.72 307.584 
L 414.72 41.472 
L 57.6 41.472 
z
" style="fill:#ffffff;"/>
   </g>
   <g id="matplotlib.axis_1">
    <g id="xtick_1">
     <g id="line2d_1">
      <path clip-path="url(#p8075410d2b)" d="M 73.182117 307.584 
L 73.182117 41.472 
" style="fill:none;stroke:#b0b0b0;stroke-linecap:square;stroke-width:0.8;"/>
     </g>
     <g id="line2d_2">
      <defs>
       <path d="M 0 0 
L 0 3.5 
" id="m90b2fc598e" style="stroke:#000000;stroke-width:0.8;"/>
      </defs>
      <g>
       <use style="stroke:#000000;stroke-width:0.8;" x="73.182117" xlink:href="#m90b2fc598e" y="307.584"/>
      </g>
     </g>
     <g id="text_1">
      <!-- 0 -->
      <defs>
       <path d="M 31.78125 66.40625 
Q 24.171875 66.40625 20.328125 58.90625 
Q 16.5 51.421875 16.5 36.375 
Q 16.5 21.390625 20.328125 13.890625 
Q 24.171875 6.390625 31.78125 6.390625 
Q 39.453125 6.390625 43.28125 13.890625 
Q 47.125 21.390625 47.125 36.375 
Q 47.125 51.421875 43.28125 58.90625 
Q 39.453125 66.40625 31.78125 66.40625 
z
M 31.78125 74.21875 
Q 44.046875 74.21875 50.515625 64.515625 
Q 56.984375 54.828125 56.984375 36.375 
Q 56.984375 17.96875 50.515625 8.265625 
Q 44.046875 -1.421875 31.78125 -1.421875 
Q 19.53125 -1.421875 13.0625 8.265625 
Q 6.59375 17.96875 6.59375 36.375 
Q 6.59375 54.828125 13.0625 64.515625 
Q 19.53125 74.21875 31.78125 74.21875 
z
" id="DejaVuSans-48"/>
      </defs>
      <g transform="translate(70.000867 322.182437)scale(0.1 -0.1)">
       <use xlink:href="#DejaVuSans-48"/>
      </g>
     </g>
    </g>
    <g id="xtick_2">
     <g id="line2d_3">
      <path clip-path="url(#p8075410d2b)" d="M 138.243148 307.584 
L 138.243148 41.472 
" style="fill:none;stroke:#b0b0b0;stroke-linecap:square;stroke-width:0.8;"/>
     </g>
     <g id="line2d_4">
      <g>
       <use style="stroke:#000000;stroke-width:0.8;" x="138.243148" xlink:href="#m90b2fc598e" y="307.584"/>
      </g>
     </g>
     <g id="text_2">
      <!-- 100 -->
      <defs>
       <path d="M 12.40625 8.296875 
L 28.515625 8.296875 
L 28.515625 63.921875 
L 10.984375 60.40625 
L 10.984375 69.390625 
L 28.421875 72.90625 
L 38.28125 72.90625 
L 38.28125 8.296875 
L 54.390625 8.296875 
L 54.390625 0 
L 12.40625 0 
z
" id="DejaVuSans-49"/>
      </defs>
      <g transform="translate(128.699398 322.182437)scale(0.1 -0.1)">
       <use xlink:href="#DejaVuSans-49"/>
       <use x="63.623047" xlink:href="#DejaVuSans-48"/>
       <use x="127.246094" xlink:href="#DejaVuSans-48"/>
      </g>
     </g>
    </g>
    <g id="xtick_3">
     <g id="line2d_5">
      <path clip-path="url(#p8075410d2b)" d="M 203.304179 307.584 
L 203.304179 41.472 
" style="fill:none;stroke:#b0b0b0;stroke-linecap:square;stroke-width:0.8;"/>
     </g>
     <g id="line2d_6">
      <g>
       <use style="stroke:#000000;stroke-width:0.8;" x="203.304179" xlink:href="#m90b2fc598e" y="307.584"/>
      </g>
     </g>
     <g id="text_3">
      <!-- 200 -->
      <defs>
       <path d="M 19.1875 8.296875 
L 53.609375 8.296875 
L 53.609375 0 
L 7.328125 0 
L 7.328125 8.296875 
Q 12.9375 14.109375 22.625 23.890625 
Q 32.328125 33.6875 34.8125 36.53125 
Q 39.546875 41.84375 41.421875 45.53125 
Q 43.3125 49.21875 43.3125 52.78125 
Q 43.3125 58.59375 39.234375 62.25 
Q 35.15625 65.921875 28.609375 65.921875 
Q 23.96875 65.921875 18.8125 64.3125 
Q 13.671875 62.703125 7.8125 59.421875 
L 7.8125 69.390625 
Q 13.765625 71.78125 18.9375 73 
Q 24.125 74.21875 28.421875 74.21875 
Q 39.75 74.21875 46.484375 68.546875 
Q 53.21875 62.890625 53.21875 53.421875 
Q 53.21875 48.921875 51.53125 44.890625 
Q 49.859375 40.875 45.40625 35.40625 
Q 44.1875 33.984375 37.640625 27.21875 
Q 31.109375 20.453125 19.1875 8.296875 
z
" id="DejaVuSans-50"/>
      </defs>
      <g transform="translate(193.760429 322.182437)scale(0.1 -0.1)">
       <use xlink:href="#DejaVuSans-50"/>
       <use x="63.623047" xlink:href="#DejaVuSans-48"/>
       <use x="127.246094" xlink:href="#DejaVuSans-48"/>
      </g>
     </g>
    </g>
    <g id="xtick_4">
     <g id="line2d_7">
      <path clip-path="url(#p8075410d2b)" d="M 268.36521 307.584 
L 268.36521 41.472 
" style="fill:none;stroke:#b0b0b0;stroke-linecap:square;stroke-width:0.8;"/>
     </g>
     <g id="line2d_8">
      <g>
       <use style="stroke:#000000;stroke-width:0.8;" x="268.36521" xlink:href="#m90b2fc598e" y="307.584"/>
      </g>
     </g>
     <g id="text_4">
      <!-- 300 -->
      <defs>
       <path d="M 40.578125 39.3125 
Q 47.65625 37.796875 51.625 33 
Q 55.609375 28.21875 55.609375 21.1875 
Q 55.609375 10.40625 48.1875 4.484375 
Q 40.765625 -1.421875 27.09375 -1.421875 
Q 22.515625 -1.421875 17.65625 -0.515625 
Q 12.796875 0.390625 7.625 2.203125 
L 7.625 11.71875 
Q 11.71875 9.328125 16.59375 8.109375 
Q 21.484375 6.890625 26.8125 6.890625 
Q 36.078125 6.890625 40.9375 10.546875 
Q 45.796875 14.203125 45.796875 21.1875 
Q 45.796875 27.640625 41.28125 31.265625 
Q 36.765625 34.90625 28.71875 34.90625 
L 20.21875 34.90625 
L 20.21875 43.015625 
L 29.109375 43.015625 
Q 36.375 43.015625 40.234375 45.921875 
Q 44.09375 48.828125 44.09375 54.296875 
Q 44.09375 59.90625 40.109375 62.90625 
Q 36.140625 65.921875 28.71875 65.921875 
Q 24.65625 65.921875 20.015625 65.03125 
Q 15.375 64.15625 9.8125 62.3125 
L 9.8125 71.09375 
Q 15.4375 72.65625 20.34375 73.4375 
Q 25.25 74.21875 29.59375 74.21875 
Q 40.828125 74.21875 47.359375 69.109375 
Q 53.90625 64.015625 53.90625 55.328125 
Q 53.90625 49.265625 50.4375 45.09375 
Q 46.96875 40.921875 40.578125 39.3125 
z
" id="DejaVuSans-51"/>
      </defs>
      <g transform="translate(258.82146 322.182437)scale(0.1 -0.1)">
       <use xlink:href="#DejaVuSans-51"/>
       <use x="63.623047" xlink:href="#DejaVuSans-48"/>
       <use x="127.246094" xlink:href="#DejaVuSans-48"/>
      </g>
     </g>
    </g>
    <g id="xtick_5">
     <g id="line2d_9">
      <path clip-path="url(#p8075410d2b)" d="M 333.426242 307.584 
L 333.426242 41.472 
" style="fill:none;stroke:#b0b0b0;stroke-linecap:square;stroke-width:0.8;"/>
     </g>
     <g id="line2d_10">
      <g>
       <use style="stroke:#000000;stroke-width:0.8;" x="333.426242" xlink:href="#m90b2fc598e" y="307.584"/>
      </g>
     </g>
     <g id="text_5">
      <!-- 400 -->
      <defs>
       <path d="M 37.796875 64.3125 
L 12.890625 25.390625 
L 37.796875 25.390625 
z
M 35.203125 72.90625 
L 47.609375 72.90625 
L 47.609375 25.390625 
L 58.015625 25.390625 
L 58.015625 17.1875 
L 47.609375 17.1875 
L 47.609375 0 
L 37.796875 0 
L 37.796875 17.1875 
L 4.890625 17.1875 
L 4.890625 26.703125 
z
" id="DejaVuSans-52"/>
      </defs>
      <g transform="translate(323.882492 322.182437)scale(0.1 -0.1)">
       <use xlink:href="#DejaVuSans-52"/>
       <use x="63.623047" xlink:href="#DejaVuSans-48"/>
       <use x="127.246094" xlink:href="#DejaVuSans-48"/>
      </g>
     </g>
    </g>
    <g id="xtick_6">
     <g id="line2d_11">
      <path clip-path="url(#p8075410d2b)" d="M 398.487273 307.584 
L 398.487273 41.472 
" style="fill:none;stroke:#b0b0b0;stroke-linecap:square;stroke-width:0.8;"/>
     </g>
     <g id="line2d_12">
      <g>
       <use style="stroke:#000000;stroke-width:0.8;" x="398.487273" xlink:href="#m90b2fc598e" y="307.584"/>
      </g>
     </g>
     <g id="text_6">
      <!-- 500 -->
      <defs>
       <path d="M 10.796875 72.90625 
L 49.515625 72.90625 
L 49.515625 64.59375 
L 19.828125 64.59375 
L 19.828125 46.734375 
Q 21.96875 47.46875 24.109375 47.828125 
Q 26.265625 48.1875 28.421875 48.1875 
Q 40.625 48.1875 47.75 41.5 
Q 54.890625 34.8125 54.890625 23.390625 
Q 54.890625 11.625 47.5625 5.09375 
Q 40.234375 -1.421875 26.90625 -1.421875 
Q 22.3125 -1.421875 17.546875 -0.640625 
Q 12.796875 0.140625 7.71875 1.703125 
L 7.71875 11.625 
Q 12.109375 9.234375 16.796875 8.0625 
Q 21.484375 6.890625 26.703125 6.890625 
Q 35.15625 6.890625 40.078125 11.328125 
Q 45.015625 15.765625 45.015625 23.390625 
Q 45.015625 31 40.078125 35.4375 
Q 35.15625 39.890625 26.703125 39.890625 
Q 22.75 39.890625 18.8125 39.015625 
Q 14.890625 38.140625 10.796875 36.28125 
z
" id="DejaVuSans-53"/>
      </defs>
      <g transform="translate(388.943523 322.182437)scale(0.1 -0.1)">
       <use xlink:href="#DejaVuSans-53"/>
       <use x="63.623047" xlink:href="#DejaVuSans-48"/>
       <use x="127.246094" xlink:href="#DejaVuSans-48"/>
      </g>
     </g>
    </g>
    <g id="text_7">
     <!-- Epoch -->
     <defs>
      <path d="M 9.8125 72.90625 
L 55.90625 72.90625 
L 55.90625 64.59375 
L 19.671875 64.59375 
L 19.671875 43.015625 
L 54.390625 43.015625 
L 54.390625 34.71875 
L 19.671875 34.71875 
L 19.671875 8.296875 
L 56.78125 8.296875 
L 56.78125 0 
L 9.8125 0 
z
" id="DejaVuSans-69"/>
      <path d="M 18.109375 8.203125 
L 18.109375 -20.796875 
L 9.078125 -20.796875 
L 9.078125 54.6875 
L 18.109375 54.6875 
L 18.109375 46.390625 
Q 20.953125 51.265625 25.265625 53.625 
Q 29.59375 56 35.59375 56 
Q 45.5625 56 51.78125 48.09375 
Q 58.015625 40.1875 58.015625 27.296875 
Q 58.015625 14.40625 51.78125 6.484375 
Q 45.5625 -1.421875 35.59375 -1.421875 
Q 29.59375 -1.421875 25.265625 0.953125 
Q 20.953125 3.328125 18.109375 8.203125 
z
M 48.6875 27.296875 
Q 48.6875 37.203125 44.609375 42.84375 
Q 40.53125 48.484375 33.40625 48.484375 
Q 26.265625 48.484375 22.1875 42.84375 
Q 18.109375 37.203125 18.109375 27.296875 
Q 18.109375 17.390625 22.1875 11.75 
Q 26.265625 6.109375 33.40625 6.109375 
Q 40.53125 6.109375 44.609375 11.75 
Q 48.6875 17.390625 48.6875 27.296875 
z
" id="DejaVuSans-112"/>
      <path d="M 30.609375 48.390625 
Q 23.390625 48.390625 19.1875 42.75 
Q 14.984375 37.109375 14.984375 27.296875 
Q 14.984375 17.484375 19.15625 11.84375 
Q 23.34375 6.203125 30.609375 6.203125 
Q 37.796875 6.203125 41.984375 11.859375 
Q 46.1875 17.53125 46.1875 27.296875 
Q 46.1875 37.015625 41.984375 42.703125 
Q 37.796875 48.390625 30.609375 48.390625 
z
M 30.609375 56 
Q 42.328125 56 49.015625 48.375 
Q 55.71875 40.765625 55.71875 27.296875 
Q 55.71875 13.875 49.015625 6.21875 
Q 42.328125 -1.421875 30.609375 -1.421875 
Q 18.84375 -1.421875 12.171875 6.21875 
Q 5.515625 13.875 5.515625 27.296875 
Q 5.515625 40.765625 12.171875 48.375 
Q 18.84375 56 30.609375 56 
z
" id="DejaVuSans-111"/>
      <path d="M 48.78125 52.59375 
L 48.78125 44.1875 
Q 44.96875 46.296875 41.140625 47.34375 
Q 37.3125 48.390625 33.40625 48.390625 
Q 24.65625 48.390625 19.8125 42.84375 
Q 14.984375 37.3125 14.984375 27.296875 
Q 14.984375 17.28125 19.8125 11.734375 
Q 24.65625 6.203125 33.40625 6.203125 
Q 37.3125 6.203125 41.140625 7.25 
Q 44.96875 8.296875 48.78125 10.40625 
L 48.78125 2.09375 
Q 45.015625 0.34375 40.984375 -0.53125 
Q 36.96875 -1.421875 32.421875 -1.421875 
Q 20.0625 -1.421875 12.78125 6.34375 
Q 5.515625 14.109375 5.515625 27.296875 
Q 5.515625 40.671875 12.859375 48.328125 
Q 20.21875 56 33.015625 56 
Q 37.15625 56 41.109375 55.140625 
Q 45.0625 54.296875 48.78125 52.59375 
z
" id="DejaVuSans-99"/>
      <path d="M 54.890625 33.015625 
L 54.890625 0 
L 45.90625 0 
L 45.90625 32.71875 
Q 45.90625 40.484375 42.875 44.328125 
Q 39.84375 48.1875 33.796875 48.1875 
Q 26.515625 48.1875 22.3125 43.546875 
Q 18.109375 38.921875 18.109375 30.90625 
L 18.109375 0 
L 9.078125 0 
L 9.078125 75.984375 
L 18.109375 75.984375 
L 18.109375 46.1875 
Q 21.34375 51.125 25.703125 53.5625 
Q 30.078125 56 35.796875 56 
Q 45.21875 56 50.046875 50.171875 
Q 54.890625 44.34375 54.890625 33.015625 
z
" id="DejaVuSans-104"/>
     </defs>
     <g transform="translate(220.849063 335.860562)scale(0.1 -0.1)">
      <use xlink:href="#DejaVuSans-69"/>
      <use x="63.183594" xlink:href="#DejaVuSans-112"/>
      <use x="126.660156" xlink:href="#DejaVuSans-111"/>
      <use x="187.841797" xlink:href="#DejaVuSans-99"/>
      <use x="242.822266" xlink:href="#DejaVuSans-104"/>
     </g>
    </g>
   </g>
   <g id="matplotlib.axis_2">
    <g id="ytick_1">
     <g id="line2d_13">
      <path clip-path="url(#p8075410d2b)" d="M 57.6 307.584 
L 414.72 307.584 
" style="fill:none;stroke:#b0b0b0;stroke-linecap:square;stroke-width:0.8;"/>
     </g>
     <g id="line2d_14">
      <defs>
       <path d="M 0 0 
L -3.5 0 
" id="m7933ac5ae7" style="stroke:#000000;stroke-width:0.8;"/>
      </defs>
      <g>
       <use style="stroke:#000000;stroke-width:0.8;" x="57.6" xlink:href="#m7933ac5ae7" y="307.584"/>
      </g>
     </g>
     <g id="text_8">
      <!-- 0.0 -->
      <defs>
       <path d="M 10.6875 12.40625 
L 21 12.40625 
L 21 0 
L 10.6875 0 
z
" id="DejaVuSans-46"/>
      </defs>
      <g transform="translate(34.696875 311.383219)scale(0.1 -0.1)">
       <use xlink:href="#DejaVuSans-48"/>
       <use x="63.623047" xlink:href="#DejaVuSans-46"/>
       <use x="95.410156" xlink:href="#DejaVuSans-48"/>
      </g>
     </g>
    </g>
    <g id="ytick_2">
     <g id="line2d_15">
      <path clip-path="url(#p8075410d2b)" d="M 57.6 274.32 
L 414.72 274.32 
" style="fill:none;stroke:#b0b0b0;stroke-linecap:square;stroke-width:0.8;"/>
     </g>
     <g id="line2d_16">
      <g>
       <use style="stroke:#000000;stroke-width:0.8;" x="57.6" xlink:href="#m7933ac5ae7" y="274.32"/>
      </g>
     </g>
     <g id="text_9">
      <!-- 0.5 -->
      <g transform="translate(34.696875 278.119219)scale(0.1 -0.1)">
       <use xlink:href="#DejaVuSans-48"/>
       <use x="63.623047" xlink:href="#DejaVuSans-46"/>
       <use x="95.410156" xlink:href="#DejaVuSans-53"/>
      </g>
     </g>
    </g>
    <g id="ytick_3">
     <g id="line2d_17">
      <path clip-path="url(#p8075410d2b)" d="M 57.6 241.056 
L 414.72 241.056 
" style="fill:none;stroke:#b0b0b0;stroke-linecap:square;stroke-width:0.8;"/>
     </g>
     <g id="line2d_18">
      <g>
       <use style="stroke:#000000;stroke-width:0.8;" x="57.6" xlink:href="#m7933ac5ae7" y="241.056"/>
      </g>
     </g>
     <g id="text_10">
      <!-- 1.0 -->
      <g transform="translate(34.696875 244.855219)scale(0.1 -0.1)">
       <use xlink:href="#DejaVuSans-49"/>
       <use x="63.623047" xlink:href="#DejaVuSans-46"/>
       <use x="95.410156" xlink:href="#DejaVuSans-48"/>
      </g>
     </g>
    </g>
    <g id="ytick_4">
     <g id="line2d_19">
      <path clip-path="url(#p8075410d2b)" d="M 57.6 207.792 
L 414.72 207.792 
" style="fill:none;stroke:#b0b0b0;stroke-linecap:square;stroke-width:0.8;"/>
     </g>
     <g id="line2d_20">
      <g>
       <use style="stroke:#000000;stroke-width:0.8;" x="57.6" xlink:href="#m7933ac5ae7" y="207.792"/>
      </g>
     </g>
     <g id="text_11">
      <!-- 1.5 -->
      <g transform="translate(34.696875 211.591219)scale(0.1 -0.1)">
       <use xlink:href="#DejaVuSans-49"/>
       <use x="63.623047" xlink:href="#DejaVuSans-46"/>
       <use x="95.410156" xlink:href="#DejaVuSans-53"/>
      </g>
     </g>
    </g>
    <g id="ytick_5">
     <g id="line2d_21">
      <path clip-path="url(#p8075410d2b)" d="M 57.6 174.528 
L 414.72 174.528 
" style="fill:none;stroke:#b0b0b0;stroke-linecap:square;stroke-width:0.8;"/>
     </g>
     <g id="line2d_22">
      <g>
       <use style="stroke:#000000;stroke-width:0.8;" x="57.6" xlink:href="#m7933ac5ae7" y="174.528"/>
      </g>
     </g>
     <g id="text_12">
      <!-- 2.0 -->
      <g transform="translate(34.696875 178.327219)scale(0.1 -0.1)">
       <use xlink:href="#DejaVuSans-50"/>
       <use x="63.623047" xlink:href="#DejaVuSans-46"/>
       <use x="95.410156" xlink:href="#DejaVuSans-48"/>
      </g>
     </g>
    </g>
    <g id="ytick_6">
     <g id="line2d_23">
      <path clip-path="url(#p8075410d2b)" d="M 57.6 141.264 
L 414.72 141.264 
" style="fill:none;stroke:#b0b0b0;stroke-linecap:square;stroke-width:0.8;"/>
     </g>
     <g id="line2d_24">
      <g>
       <use style="stroke:#000000;stroke-width:0.8;" x="57.6" xlink:href="#m7933ac5ae7" y="141.264"/>
      </g>
     </g>
     <g id="text_13">
      <!-- 2.5 -->
      <g transform="translate(34.696875 145.063219)scale(0.1 -0.1)">
       <use xlink:href="#DejaVuSans-50"/>
       <use x="63.623047" xlink:href="#DejaVuSans-46"/>
       <use x="95.410156" xlink:href="#DejaVuSans-53"/>
      </g>
     </g>
    </g>
    <g id="ytick_7">
     <g id="line2d_25">
      <path clip-path="url(#p8075410d2b)" d="M 57.6 108 
L 414.72 108 
" style="fill:none;stroke:#b0b0b0;stroke-linecap:square;stroke-width:0.8;"/>
     </g>
     <g id="line2d_26">
      <g>
       <use style="stroke:#000000;stroke-width:0.8;" x="57.6" xlink:href="#m7933ac5ae7" y="108"/>
      </g>
     </g>
     <g id="text_14">
      <!-- 3.0 -->
      <g transform="translate(34.696875 111.799219)scale(0.1 -0.1)">
       <use xlink:href="#DejaVuSans-51"/>
       <use x="63.623047" xlink:href="#DejaVuSans-46"/>
       <use x="95.410156" xlink:href="#DejaVuSans-48"/>
      </g>
     </g>
    </g>
    <g id="ytick_8">
     <g id="line2d_27">
      <path clip-path="url(#p8075410d2b)" d="M 57.6 74.736 
L 414.72 74.736 
" style="fill:none;stroke:#b0b0b0;stroke-linecap:square;stroke-width:0.8;"/>
     </g>
     <g id="line2d_28">
      <g>
       <use style="stroke:#000000;stroke-width:0.8;" x="57.6" xlink:href="#m7933ac5ae7" y="74.736"/>
      </g>
     </g>
     <g id="text_15">
      <!-- 3.5 -->
      <g transform="translate(34.696875 78.535219)scale(0.1 -0.1)">
       <use xlink:href="#DejaVuSans-51"/>
       <use x="63.623047" xlink:href="#DejaVuSans-46"/>
       <use x="95.410156" xlink:href="#DejaVuSans-53"/>
      </g>
     </g>
    </g>
    <g id="ytick_9">
     <g id="line2d_29">
      <path clip-path="url(#p8075410d2b)" d="M 57.6 41.472 
L 414.72 41.472 
" style="fill:none;stroke:#b0b0b0;stroke-linecap:square;stroke-width:0.8;"/>
     </g>
     <g id="line2d_30">
      <g>
       <use style="stroke:#000000;stroke-width:0.8;" x="57.6" xlink:href="#m7933ac5ae7" y="41.472"/>
      </g>
     </g>
     <g id="text_16">
      <!-- 4.0 -->
      <g transform="translate(34.696875 45.271219)scale(0.1 -0.1)">
       <use xlink:href="#DejaVuSans-52"/>
       <use x="63.623047" xlink:href="#DejaVuSans-46"/>
       <use x="95.410156" xlink:href="#DejaVuSans-48"/>
      </g>
     </g>
    </g>
    <g id="text_17">
     <!-- Perplexity -->
     <defs>
      <path d="M 19.671875 64.796875 
L 19.671875 37.40625 
L 32.078125 37.40625 
Q 38.96875 37.40625 42.71875 40.96875 
Q 46.484375 44.53125 46.484375 51.125 
Q 46.484375 57.671875 42.71875 61.234375 
Q 38.96875 64.796875 32.078125 64.796875 
z
M 9.8125 72.90625 
L 32.078125 72.90625 
Q 44.34375 72.90625 50.609375 67.359375 
Q 56.890625 61.8125 56.890625 51.125 
Q 56.890625 40.328125 50.609375 34.8125 
Q 44.34375 29.296875 32.078125 29.296875 
L 19.671875 29.296875 
L 19.671875 0 
L 9.8125 0 
z
" id="DejaVuSans-80"/>
      <path d="M 56.203125 29.59375 
L 56.203125 25.203125 
L 14.890625 25.203125 
Q 15.484375 15.921875 20.484375 11.0625 
Q 25.484375 6.203125 34.421875 6.203125 
Q 39.59375 6.203125 44.453125 7.46875 
Q 49.3125 8.734375 54.109375 11.28125 
L 54.109375 2.78125 
Q 49.265625 0.734375 44.1875 -0.34375 
Q 39.109375 -1.421875 33.890625 -1.421875 
Q 20.796875 -1.421875 13.15625 6.1875 
Q 5.515625 13.8125 5.515625 26.8125 
Q 5.515625 40.234375 12.765625 48.109375 
Q 20.015625 56 32.328125 56 
Q 43.359375 56 49.78125 48.890625 
Q 56.203125 41.796875 56.203125 29.59375 
z
M 47.21875 32.234375 
Q 47.125 39.59375 43.09375 43.984375 
Q 39.0625 48.390625 32.421875 48.390625 
Q 24.90625 48.390625 20.390625 44.140625 
Q 15.875 39.890625 15.1875 32.171875 
z
" id="DejaVuSans-101"/>
      <path d="M 41.109375 46.296875 
Q 39.59375 47.171875 37.8125 47.578125 
Q 36.03125 48 33.890625 48 
Q 26.265625 48 22.1875 43.046875 
Q 18.109375 38.09375 18.109375 28.8125 
L 18.109375 0 
L 9.078125 0 
L 9.078125 54.6875 
L 18.109375 54.6875 
L 18.109375 46.1875 
Q 20.953125 51.171875 25.484375 53.578125 
Q 30.03125 56 36.53125 56 
Q 37.453125 56 38.578125 55.875 
Q 39.703125 55.765625 41.0625 55.515625 
z
" id="DejaVuSans-114"/>
      <path d="M 9.421875 75.984375 
L 18.40625 75.984375 
L 18.40625 0 
L 9.421875 0 
z
" id="DejaVuSans-108"/>
      <path d="M 54.890625 54.6875 
L 35.109375 28.078125 
L 55.90625 0 
L 45.3125 0 
L 29.390625 21.484375 
L 13.484375 0 
L 2.875 0 
L 24.125 28.609375 
L 4.6875 54.6875 
L 15.28125 54.6875 
L 29.78125 35.203125 
L 44.28125 54.6875 
z
" id="DejaVuSans-120"/>
      <path d="M 9.421875 54.6875 
L 18.40625 54.6875 
L 18.40625 0 
L 9.421875 0 
z
M 9.421875 75.984375 
L 18.40625 75.984375 
L 18.40625 64.59375 
L 9.421875 64.59375 
z
" id="DejaVuSans-105"/>
      <path d="M 18.3125 70.21875 
L 18.3125 54.6875 
L 36.8125 54.6875 
L 36.8125 47.703125 
L 18.3125 47.703125 
L 18.3125 18.015625 
Q 18.3125 11.328125 20.140625 9.421875 
Q 21.96875 7.515625 27.59375 7.515625 
L 36.8125 7.515625 
L 36.8125 0 
L 27.59375 0 
Q 17.1875 0 13.234375 3.875 
Q 9.28125 7.765625 9.28125 18.015625 
L 9.28125 47.703125 
L 2.6875 47.703125 
L 2.6875 54.6875 
L 9.28125 54.6875 
L 9.28125 70.21875 
z
" id="DejaVuSans-116"/>
      <path d="M 32.171875 -5.078125 
Q 28.375 -14.84375 24.75 -17.8125 
Q 21.140625 -20.796875 15.09375 -20.796875 
L 7.90625 -20.796875 
L 7.90625 -13.28125 
L 13.1875 -13.28125 
Q 16.890625 -13.28125 18.9375 -11.515625 
Q 21 -9.765625 23.484375 -3.21875 
L 25.09375 0.875 
L 2.984375 54.6875 
L 12.5 54.6875 
L 29.59375 11.921875 
L 46.6875 54.6875 
L 56.203125 54.6875 
z
" id="DejaVuSans-121"/>
     </defs>
     <g transform="translate(28.617187 199.579563)rotate(-90)scale(0.1 -0.1)">
      <use xlink:href="#DejaVuSans-80"/>
      <use x="60.255859" xlink:href="#DejaVuSans-101"/>
      <use x="121.779297" xlink:href="#DejaVuSans-114"/>
      <use x="162.892578" xlink:href="#DejaVuSans-112"/>
      <use x="226.369141" xlink:href="#DejaVuSans-108"/>
      <use x="254.152344" xlink:href="#DejaVuSans-101"/>
      <use x="315.660156" xlink:href="#DejaVuSans-120"/>
      <use x="374.839844" xlink:href="#DejaVuSans-105"/>
      <use x="402.623047" xlink:href="#DejaVuSans-116"/>
      <use x="441.832031" xlink:href="#DejaVuSans-121"/>
     </g>
    </g>
   </g>
   <g id="line2d_31">
    <path clip-path="url(#p8075410d2b)" d="M 84.490787 -1 
L 85.543713 26.83584 
L 88.796764 115.31808 
L 90.097985 144.5904 
L 91.399206 169.20576 
L 92.700426 187.8336 
L 93.351037 195.15168 
L 94.652257 206.46144 
L 95.953478 213.77952 
L 96.604088 215.77536 
L 97.254698 218.43648 
L 100.50775 225.08928 
L 101.15836 225.08928 
L 101.808971 226.41984 
L 102.459581 227.08512 
L 103.110191 227.08512 
L 104.411412 228.41568 
L 105.062022 228.41568 
L 105.712633 229.08096 
L 106.363243 229.08096 
L 107.013853 229.74624 
L 107.664463 229.74624 
L 108.315074 230.41152 
L 110.917515 230.41152 
L 111.568125 231.0768 
L 113.519956 231.0768 
L 114.170567 231.74208 
L 120.67667 231.74208 
L 121.32728 232.40736 
L 121.97789 231.74208 
L 122.628501 232.40736 
L 140.845589 232.40736 
L 141.4962 233.07264 
L 142.14681 232.40736 
L 142.79742 233.07264 
L 143.448031 232.40736 
L 144.098641 233.07264 
L 341.233565 233.07264 
L 341.884176 233.73792 
L 342.534786 233.07264 
L 373.113471 233.07264 
L 373.764081 233.73792 
L 374.414691 233.07264 
L 392.63178 233.07264 
L 393.28239 233.73792 
L 393.933001 233.07264 
L 395.234221 233.07264 
L 395.884831 233.73792 
L 396.535442 233.07264 
L 398.487273 233.07264 
L 398.487273 233.07264 
" style="fill:none;stroke:#1f77b4;stroke-linecap:square;stroke-width:1.5;"/>
   </g>
   <g id="line2d_32">
    <path clip-path="url(#p8075410d2b)" d="M 87.190662 -1 
L 87.495544 5.54688 
L 88.146154 13.53024 
L 90.748595 34.15392 
L 91.399206 33.48864 
L 92.049816 36.14976 
L 92.700426 36.14976 
L 93.351037 41.472 
L 94.001647 43.46784 
L 94.652257 51.4512 
L 95.302868 51.4512 
L 95.953478 60.76512 
L 96.604088 59.43456 
L 97.254698 69.41376 
L 97.905309 68.74848 
L 99.206529 76.06656 
L 99.85714 76.06656 
L 100.50775 76.73184 
L 101.15836 80.05824 
L 101.808971 75.40128 
L 102.459581 84.04992 
L 103.110191 82.71936 
L 103.760802 88.0416 
L 104.411412 82.05408 
L 105.062022 83.38464 
L 105.712633 81.3888 
L 106.363243 88.0416 
L 107.013853 88.70688 
L 107.664463 88.0416 
L 108.315074 86.04576 
L 108.965684 88.70688 
L 109.616294 90.03744 
L 110.266905 89.37216 
L 110.917515 90.70272 
L 111.568125 86.71104 
L 112.218736 88.70688 
L 112.869346 88.70688 
L 113.519956 90.03744 
L 114.170567 87.37632 
L 114.821177 89.37216 
L 115.471787 86.04576 
L 116.122398 91.368 
L 116.773008 90.03744 
L 117.423618 87.37632 
L 118.074228 88.70688 
L 118.724839 88.0416 
L 119.375449 91.368 
L 120.026059 91.368 
L 120.67667 88.0416 
L 121.32728 86.04576 
L 121.97789 88.0416 
L 122.628501 88.0416 
L 123.279111 90.70272 
L 123.929721 89.37216 
L 125.230942 90.70272 
L 125.881552 89.37216 
L 126.532163 90.03744 
L 127.182773 90.03744 
L 127.833383 89.37216 
L 129.134604 89.37216 
L 129.785214 84.7152 
L 130.435824 89.37216 
L 131.086435 88.70688 
L 132.387655 84.7152 
L 133.038266 85.38048 
L 133.688876 84.04992 
L 134.339486 88.70688 
L 134.990097 84.7152 
L 135.640707 84.04992 
L 136.291317 86.71104 
L 136.941927 84.7152 
L 137.592538 86.04576 
L 138.243148 83.38464 
L 138.893758 86.04576 
L 139.544369 86.71104 
L 140.194979 85.38048 
L 140.845589 86.04576 
L 141.4962 84.04992 
L 142.14681 87.37632 
L 142.79742 84.7152 
L 143.448031 88.70688 
L 144.098641 84.7152 
L 144.749251 84.7152 
L 145.399862 87.37632 
L 146.050472 84.7152 
L 146.701082 88.0416 
L 147.351692 83.38464 
L 148.002303 86.04576 
L 148.652913 88.0416 
L 149.303523 86.71104 
L 149.954134 86.04576 
L 150.604744 84.04992 
L 151.905965 85.38048 
L 152.556575 83.38464 
L 153.857796 86.04576 
L 154.508406 84.7152 
L 155.159016 86.04576 
L 155.809627 82.71936 
L 156.460237 84.7152 
L 157.110847 83.38464 
L 157.761457 82.71936 
L 158.412068 84.7152 
L 159.713288 84.7152 
L 160.363899 86.71104 
L 161.014509 86.04576 
L 161.665119 88.0416 
L 162.31573 85.38048 
L 162.96634 86.04576 
L 163.61695 84.04992 
L 164.267561 85.38048 
L 164.918171 84.7152 
L 165.568781 83.38464 
L 166.219392 85.38048 
L 166.870002 83.38464 
L 167.520612 82.05408 
L 168.171222 82.71936 
L 168.821833 82.05408 
L 169.472443 82.71936 
L 170.123053 82.71936 
L 170.773664 83.38464 
L 171.424274 81.3888 
L 172.074884 84.04992 
L 172.725495 82.05408 
L 173.376105 81.3888 
L 174.026715 82.71936 
L 175.327936 82.71936 
L 176.629156 84.04992 
L 177.279767 82.05408 
L 177.930377 84.7152 
L 178.580987 82.71936 
L 180.532818 84.7152 
L 181.834039 83.38464 
L 182.484649 82.05408 
L 183.13526 82.05408 
L 183.78587 80.05824 
L 184.43648 83.38464 
L 185.087091 83.38464 
L 185.737701 82.71936 
L 186.388311 82.71936 
L 187.038921 83.38464 
L 187.689532 82.05408 
L 188.340142 84.7152 
L 188.990752 80.05824 
L 190.291973 84.04992 
L 190.942583 84.04992 
L 191.593194 82.05408 
L 192.243804 82.05408 
L 192.894414 84.04992 
L 193.545025 78.0624 
L 194.846245 86.04576 
L 195.496856 84.04992 
L 196.147466 86.71104 
L 196.798076 85.38048 
L 197.448686 85.38048 
L 198.099297 83.38464 
L 198.749907 83.38464 
L 199.400517 80.72352 
L 200.051128 80.72352 
L 200.701738 81.3888 
L 201.352348 80.72352 
L 202.002959 81.3888 
L 202.653569 84.04992 
L 203.304179 82.05408 
L 203.95479 83.38464 
L 205.25601 80.72352 
L 205.906621 81.3888 
L 206.557231 80.72352 
L 207.207841 80.72352 
L 207.858451 80.05824 
L 209.159672 81.3888 
L 209.810282 81.3888 
L 210.460893 80.05824 
L 211.111503 79.39296 
L 211.762113 79.39296 
L 212.412724 80.05824 
L 213.063334 81.3888 
L 213.713944 82.05408 
L 214.364555 83.38464 
L 215.015165 82.71936 
L 215.665775 83.38464 
L 216.316385 82.71936 
L 216.966996 83.38464 
L 217.617606 82.71936 
L 218.268216 83.38464 
L 220.220047 83.38464 
L 220.870658 84.7152 
L 222.171878 83.38464 
L 223.473099 84.7152 
L 224.123709 82.71936 
L 224.77432 83.38464 
L 225.42493 83.38464 
L 226.07554 82.71936 
L 226.72615 83.38464 
L 227.376761 81.3888 
L 228.027371 82.71936 
L 228.677981 82.71936 
L 229.328592 80.05824 
L 229.979202 82.71936 
L 230.629812 84.04992 
L 231.280423 83.38464 
L 231.931033 84.04992 
L 232.581643 84.04992 
L 233.232254 84.7152 
L 233.882864 84.04992 
L 234.533474 82.71936 
L 235.184085 82.71936 
L 235.834695 81.3888 
L 236.485305 80.72352 
L 237.135915 82.05408 
L 237.786526 82.71936 
L 238.437136 82.71936 
L 239.087746 81.3888 
L 240.388967 84.04992 
L 241.039577 82.05408 
L 241.690188 82.71936 
L 242.340798 81.3888 
L 242.991408 82.05408 
L 243.642019 81.3888 
L 244.292629 80.05824 
L 244.943239 80.72352 
L 245.59385 80.05824 
L 246.24446 80.05824 
L 246.89507 78.0624 
L 247.54568 80.05824 
L 248.196291 77.39712 
L 248.846901 79.39296 
L 249.497511 80.72352 
L 250.798732 82.05408 
L 251.449342 80.72352 
L 252.750563 82.05408 
L 254.051784 82.05408 
L 254.702394 81.3888 
L 255.353004 82.05408 
L 256.003615 80.05824 
L 257.304835 81.3888 
L 257.955445 82.71936 
L 258.606056 82.05408 
L 259.256666 80.05824 
L 259.907276 81.3888 
L 260.557887 81.3888 
L 261.208497 80.72352 
L 261.859107 82.71936 
L 264.461549 77.39712 
L 265.112159 76.73184 
L 265.762769 80.05824 
L 266.413379 79.39296 
L 267.06399 80.72352 
L 267.7146 79.39296 
L 268.36521 81.3888 
L 269.015821 79.39296 
L 269.666431 78.0624 
L 270.317041 80.05824 
L 270.967652 80.05824 
L 272.268872 77.39712 
L 272.919483 78.72768 
L 273.570093 79.39296 
L 274.220703 81.3888 
L 274.871314 80.05824 
L 276.172534 78.72768 
L 276.823144 80.72352 
L 277.473755 82.05408 
L 278.124365 81.3888 
L 278.774975 80.05824 
L 279.425586 79.39296 
L 280.726806 79.39296 
L 281.377417 78.0624 
L 282.678637 76.73184 
L 283.329248 77.39712 
L 283.979858 78.72768 
L 284.630468 80.72352 
L 286.582299 78.72768 
L 287.232909 80.72352 
L 287.88352 80.05824 
L 288.53413 80.05824 
L 289.18474 78.72768 
L 289.835351 78.72768 
L 290.485961 80.05824 
L 291.787182 80.05824 
L 292.437792 78.72768 
L 293.088402 80.72352 
L 293.739013 81.3888 
L 295.040233 80.05824 
L 295.690844 77.39712 
L 296.341454 79.39296 
L 296.992064 80.72352 
L 297.642674 79.39296 
L 298.293285 82.05408 
L 298.943895 79.39296 
L 299.594505 78.72768 
L 300.245116 79.39296 
L 300.895726 78.0624 
L 301.546336 78.0624 
L 302.196947 79.39296 
L 302.847557 78.72768 
L 303.498167 80.05824 
L 304.148778 80.72352 
L 304.799388 78.72768 
L 305.449998 78.72768 
L 306.100608 82.05408 
L 306.751219 80.05824 
L 307.401829 80.72352 
L 308.052439 80.05824 
L 308.70305 82.05408 
L 309.35366 80.72352 
L 310.00427 80.72352 
L 310.654881 81.3888 
L 311.305491 80.72352 
L 311.956101 80.72352 
L 312.606712 81.3888 
L 313.257322 80.72352 
L 313.907932 79.39296 
L 314.558543 80.05824 
L 315.209153 80.05824 
L 315.859763 80.72352 
L 316.510373 79.39296 
L 317.811594 78.0624 
L 318.462204 78.72768 
L 319.112815 80.72352 
L 319.763425 80.72352 
L 320.414035 79.39296 
L 321.064646 79.39296 
L 321.715256 80.05824 
L 322.365866 79.39296 
L 323.667087 79.39296 
L 324.317697 81.3888 
L 324.968308 79.39296 
L 325.618918 80.05824 
L 326.269528 78.0624 
L 326.920138 78.0624 
L 328.221359 80.72352 
L 328.871969 80.05824 
L 329.52258 81.3888 
L 330.17319 79.39296 
L 330.8238 80.05824 
L 331.474411 78.72768 
L 332.775631 80.05824 
L 333.426242 80.05824 
L 334.076852 78.72768 
L 334.727462 78.0624 
L 335.378073 79.39296 
L 336.679293 79.39296 
L 337.329903 78.0624 
L 337.980514 78.0624 
L 339.281734 80.72352 
L 339.932345 76.73184 
L 340.582955 79.39296 
L 341.233565 80.05824 
L 341.884176 78.72768 
L 344.486617 81.3888 
L 345.137227 81.3888 
L 345.787837 82.05408 
L 346.438448 80.72352 
L 347.089058 80.72352 
L 347.739668 78.0624 
L 348.390279 79.39296 
L 349.040889 78.72768 
L 349.691499 80.05824 
L 350.99272 80.05824 
L 351.64333 82.05408 
L 352.293941 80.05824 
L 352.944551 81.3888 
L 353.595161 80.05824 
L 354.245772 79.39296 
L 354.896382 77.39712 
L 355.546992 79.39296 
L 358.149433 79.39296 
L 358.800044 80.05824 
L 359.450654 80.05824 
L 360.101264 80.72352 
L 360.751875 82.71936 
L 361.402485 81.3888 
L 362.053095 80.72352 
L 362.703706 81.3888 
L 363.354316 82.71936 
L 364.004926 83.38464 
L 365.956757 81.3888 
L 366.607367 80.05824 
L 367.908588 81.3888 
L 368.559198 81.3888 
L 369.209809 82.71936 
L 369.860419 80.72352 
L 371.16164 80.72352 
L 371.81225 82.71936 
L 373.113471 82.71936 
L 373.764081 79.39296 
L 374.414691 81.3888 
L 375.065302 80.72352 
L 375.715912 81.3888 
L 376.366522 81.3888 
L 377.017132 80.72352 
L 377.667743 79.39296 
L 378.318353 78.72768 
L 378.968963 80.72352 
L 380.270184 79.39296 
L 381.571405 79.39296 
L 382.222015 80.72352 
L 383.523236 80.72352 
L 384.173846 81.3888 
L 384.824456 81.3888 
L 385.475066 82.05408 
L 386.125677 80.05824 
L 386.776287 82.05408 
L 387.426897 81.3888 
L 388.077508 82.05408 
L 388.728118 81.3888 
L 389.378728 80.05824 
L 390.029339 79.39296 
L 390.679949 80.72352 
L 392.63178 80.72352 
L 393.28239 79.39296 
L 395.234221 81.3888 
L 395.884831 78.72768 
L 396.535442 80.05824 
L 397.186052 80.05824 
L 397.836662 80.72352 
L 398.487273 78.72768 
L 398.487273 78.72768 
" style="fill:none;stroke:#ff7f0e;stroke-linecap:square;stroke-width:1.5;"/>
   </g>
   <g id="patch_3">
    <path d="M 57.6 307.584 
L 57.6 41.472 
" style="fill:none;stroke:#000000;stroke-linecap:square;stroke-linejoin:miter;stroke-width:0.8;"/>
   </g>
   <g id="patch_4">
    <path d="M 414.72 307.584 
L 414.72 41.472 
" style="fill:none;stroke:#000000;stroke-linecap:square;stroke-linejoin:miter;stroke-width:0.8;"/>
   </g>
   <g id="patch_5">
    <path d="M 57.6 307.584 
L 414.72 307.584 
" style="fill:none;stroke:#000000;stroke-linecap:square;stroke-linejoin:miter;stroke-width:0.8;"/>
   </g>
   <g id="patch_6">
    <path d="M 57.6 41.472 
L 414.72 41.472 
" style="fill:none;stroke:#000000;stroke-linecap:square;stroke-linejoin:miter;stroke-width:0.8;"/>
   </g>
   <g id="legend_1">
    <g id="patch_7">
     <path d="M 64.6 302.584 
L 122.040625 302.584 
Q 124.040625 302.584 124.040625 300.584 
L 124.040625 272.22775 
Q 124.040625 270.22775 122.040625 270.22775 
L 64.6 270.22775 
Q 62.6 270.22775 62.6 272.22775 
L 62.6 300.584 
Q 62.6 302.584 64.6 302.584 
z
" style="fill:#ffffff;opacity:0.8;stroke:#cccccc;stroke-linejoin:miter;"/>
    </g>
    <g id="line2d_33">
     <path d="M 66.6 278.326187 
L 86.6 278.326187 
" style="fill:none;stroke:#1f77b4;stroke-linecap:square;stroke-width:1.5;"/>
    </g>
    <g id="line2d_34"/>
    <g id="text_18">
     <!-- Train -->
     <defs>
      <path d="M -0.296875 72.90625 
L 61.375 72.90625 
L 61.375 64.59375 
L 35.5 64.59375 
L 35.5 0 
L 25.59375 0 
L 25.59375 64.59375 
L -0.296875 64.59375 
z
" id="DejaVuSans-84"/>
      <path d="M 34.28125 27.484375 
Q 23.390625 27.484375 19.1875 25 
Q 14.984375 22.515625 14.984375 16.5 
Q 14.984375 11.71875 18.140625 8.90625 
Q 21.296875 6.109375 26.703125 6.109375 
Q 34.1875 6.109375 38.703125 11.40625 
Q 43.21875 16.703125 43.21875 25.484375 
L 43.21875 27.484375 
z
M 52.203125 31.203125 
L 52.203125 0 
L 43.21875 0 
L 43.21875 8.296875 
Q 40.140625 3.328125 35.546875 0.953125 
Q 30.953125 -1.421875 24.3125 -1.421875 
Q 15.921875 -1.421875 10.953125 3.296875 
Q 6 8.015625 6 15.921875 
Q 6 25.140625 12.171875 29.828125 
Q 18.359375 34.515625 30.609375 34.515625 
L 43.21875 34.515625 
L 43.21875 35.40625 
Q 43.21875 41.609375 39.140625 45 
Q 35.0625 48.390625 27.6875 48.390625 
Q 23 48.390625 18.546875 47.265625 
Q 14.109375 46.140625 10.015625 43.890625 
L 10.015625 52.203125 
Q 14.9375 54.109375 19.578125 55.046875 
Q 24.21875 56 28.609375 56 
Q 40.484375 56 46.34375 49.84375 
Q 52.203125 43.703125 52.203125 31.203125 
z
" id="DejaVuSans-97"/>
      <path d="M 54.890625 33.015625 
L 54.890625 0 
L 45.90625 0 
L 45.90625 32.71875 
Q 45.90625 40.484375 42.875 44.328125 
Q 39.84375 48.1875 33.796875 48.1875 
Q 26.515625 48.1875 22.3125 43.546875 
Q 18.109375 38.921875 18.109375 30.90625 
L 18.109375 0 
L 9.078125 0 
L 9.078125 54.6875 
L 18.109375 54.6875 
L 18.109375 46.1875 
Q 21.34375 51.125 25.703125 53.5625 
Q 30.078125 56 35.796875 56 
Q 45.21875 56 50.046875 50.171875 
Q 54.890625 44.34375 54.890625 33.015625 
z
" id="DejaVuSans-110"/>
     </defs>
     <g transform="translate(94.6 281.826187)scale(0.1 -0.1)">
      <use xlink:href="#DejaVuSans-84"/>
      <use x="60.865234" xlink:href="#DejaVuSans-114"/>
      <use x="101.978516" xlink:href="#DejaVuSans-97"/>
      <use x="163.257812" xlink:href="#DejaVuSans-105"/>
      <use x="191.041016" xlink:href="#DejaVuSans-110"/>
     </g>
    </g>
    <g id="line2d_35">
     <path d="M 66.6 293.004312 
L 86.6 293.004312 
" style="fill:none;stroke:#ff7f0e;stroke-linecap:square;stroke-width:1.5;"/>
    </g>
    <g id="line2d_36"/>
    <g id="text_19">
     <!-- Valid -->
     <defs>
      <path d="M 28.609375 0 
L 0.78125 72.90625 
L 11.078125 72.90625 
L 34.1875 11.53125 
L 57.328125 72.90625 
L 67.578125 72.90625 
L 39.796875 0 
z
" id="DejaVuSans-86"/>
      <path d="M 45.40625 46.390625 
L 45.40625 75.984375 
L 54.390625 75.984375 
L 54.390625 0 
L 45.40625 0 
L 45.40625 8.203125 
Q 42.578125 3.328125 38.25 0.953125 
Q 33.9375 -1.421875 27.875 -1.421875 
Q 17.96875 -1.421875 11.734375 6.484375 
Q 5.515625 14.40625 5.515625 27.296875 
Q 5.515625 40.1875 11.734375 48.09375 
Q 17.96875 56 27.875 56 
Q 33.9375 56 38.25 53.625 
Q 42.578125 51.265625 45.40625 46.390625 
z
M 14.796875 27.296875 
Q 14.796875 17.390625 18.875 11.75 
Q 22.953125 6.109375 30.078125 6.109375 
Q 37.203125 6.109375 41.296875 11.75 
Q 45.40625 17.390625 45.40625 27.296875 
Q 45.40625 37.203125 41.296875 42.84375 
Q 37.203125 48.484375 30.078125 48.484375 
Q 22.953125 48.484375 18.875 42.84375 
Q 14.796875 37.203125 14.796875 27.296875 
z
" id="DejaVuSans-100"/>
     </defs>
     <g transform="translate(94.6 296.504312)scale(0.1 -0.1)">
      <use xlink:href="#DejaVuSans-86"/>
      <use x="68.298828" xlink:href="#DejaVuSans-97"/>
      <use x="129.578125" xlink:href="#DejaVuSans-108"/>
      <use x="157.361328" xlink:href="#DejaVuSans-105"/>
      <use x="185.144531" xlink:href="#DejaVuSans-100"/>
     </g>
    </g>
   </g>
  </g>
 </g>
 <defs>
  <clipPath id="p8075410d2b">
   <rect height="266.112" width="357.12" x="57.6" y="41.472"/>
  </clipPath>
 </defs>
</svg>
